<svg id="a2a4f689-11da-4f83-8557-cbe3299f1ae8" data-name="Layer 1" xmlns="http://www.w3.org/2000/svg" viewBox="0 0 450 450">
  <title>icon-affordable-costs</title>
  <g>
    <g>
      <path d="M303.69,272.47a4.42,4.42,0,0,0-1.22-6.13,53,53,0,1,0,14.72,14.76,4.42,4.42,0,0,0-7.36,4.9,44.16,44.16,0,1,1-12.27-12.31A4.43,4.43,0,0,0,303.69,272.47Z"/>
      <path d="M273,239.74a70.77,70.77,0,0,0-70.69,70.69,70.05,70.05,0,0,0,14.6,43,4.42,4.42,0,0,0,7-5.38,61.27,61.27,0,0,1-12.78-37.65,61.85,61.85,0,1,1,24.21,49.09,4.41,4.41,0,0,0-5.38,7,70,70,0,0,0,43,14.61,70.7,70.7,0,0,0,0-141.39Z"/>
      <path d="M343.71,186.72a53,53,0,0,0-52.14,43.39,4.42,4.42,0,0,0,3.54,5.14,4.51,4.51,0,0,0,.81.07,4.42,4.42,0,0,0,4.34-3.62,44.2,44.2,0,0,1,68-28.71,4.42,4.42,0,0,0,4.92-7.34A52.81,52.81,0,0,0,343.71,186.72Z"/>
      <path d="M351.75,283.2a4.42,4.42,0,0,0,.79,8.76,4.33,4.33,0,0,0,.8-.07,53,53,0,0,0,34.54-81.48,4.42,4.42,0,0,0-7.36,4.89,44.2,44.2,0,0,1-28.77,67.9Z"/>
      <path d="M343.71,169.05a70.9,70.9,0,0,0-69.28,56.56c-.31,1.56-.58,3.13-.79,4.71a4.42,4.42,0,1,0,8.76,1.17c.18-1.39.42-2.77.69-4.12a61.86,61.86,0,1,1,73,73c-1.36.28-2.74.51-4.13.69a4.42,4.42,0,0,0,.58,8.8,3.9,3.9,0,0,0,.59,0c1.59-.21,3.16-.48,4.71-.79a70.7,70.7,0,0,0-14.13-140Z"/>
      <path d="M273,270.78a5.78,5.78,0,0,1,5.77,5.78v.87a1,1,0,0,0,.74,1c8.14,2.26,12.82,9,12.82,18.48a5.78,5.78,0,0,1-11.56,0c0-4-.94-7.77-7.77-7.77s-7.78,3.73-7.78,7.77c0,3.5,3.09,5.23,10.14,8.32s17,7.45,17,18.79c0,9.49-4.68,16.22-12.82,18.48a1,1,0,0,0-.74,1v.88a5.78,5.78,0,1,1-11.55,0v-.88a1,1,0,0,0-.73-1c-8.15-2.26-12.82-9-12.82-18.48a5.78,5.78,0,1,1,11.55,0c0,4,.95,7.77,7.78,7.77,4,0,7.77-.94,7.77-7.77,0-3.43-3.06-5.14-10.07-8.21-7.18-3.16-17-7.49-17-18.9,0-9.49,4.67-16.22,12.82-18.48a1,1,0,0,0,.73-1v-.87a5.78,5.78,0,0,1,5.78-5.78"/>
      <path d="M346.07,234.62c-7.05-3.09-10.14-4.82-10.14-8.32,0-4,.95-7.77,7.78-7.77s7.78,3.73,7.78,7.77a5.78,5.78,0,1,0,11.55,0c0-9.49-4.68-16.23-12.82-18.48a1,1,0,0,1-.73-1V206a5.78,5.78,0,0,0-11.56,0v.87a1,1,0,0,1-.73,1c-8.14,2.25-12.82,9-12.82,18.48,0,11.41,9.85,15.74,17,18.9,7,3.07,10.07,4.78,10.07,8.2,0,6.84-3.74,7.78-7.78,7.78-6.83,0-7.78-3.74-7.78-7.78a5.76,5.76,0,0,0-10.75-2.9A79.63,79.63,0,0,1,346,279a5.8,5.8,0,0,0,3.46-5.29v-.88a1,1,0,0,1,.73-1c8.14-2.26,12.82-9,12.82-18.49C363,242.07,353.23,237.77,346.07,234.62Z"/>
    </g>
    <g>
      <path d="M204,166.89a5.78,5.78,0,0,1,5.77,5.78v.87a1,1,0,0,0,.73,1c8.15,2.25,12.82,9,12.82,18.48a5.78,5.78,0,1,1-11.55,0c0-4-.94-7.77-7.77-7.77s-7.78,3.73-7.78,7.77c0,3.5,3.09,5.23,10.13,8.32s17,7.45,17,18.78c0,9.49-4.67,16.23-12.82,18.49a1,1,0,0,0-.73,1v.88a5.78,5.78,0,1,1-11.55,0v-.88a1,1,0,0,0-.73-1c-8.15-2.26-12.82-9-12.82-18.49a5.78,5.78,0,0,1,11.55,0c0,4,.94,7.78,7.78,7.78,4,0,7.77-.94,7.77-7.78,0-3.42-3.07-5.13-10.07-8.2-7.19-3.16-17-7.49-17-18.9,0-9.49,4.67-16.23,12.82-18.48a1,1,0,0,0,.73-1v-.87a5.78,5.78,0,0,1,5.78-5.78"/>
      <path d="M109.18,200.77a5.78,5.78,0,1,1-5.78,5.77,5.78,5.78,0,0,1,5.78-5.77"/>
      <path d="M359.87,112.69a5.78,5.78,0,0,1,5.78,5.77v39a86.76,86.76,0,0,0-11.55-2.52V125.24a1,1,0,0,0-1-1H55a1,1,0,0,0-1,1V287.85a1,1,0,0,0,1,1H185.08a85.74,85.74,0,0,0-1.76,11.55H48.2a5.78,5.78,0,0,1-5.78-5.78V118.46a5.78,5.78,0,0,1,5.78-5.77H359.87"/>
      <path d="M312.44,139.79a5.78,5.78,0,0,1,5.78,5.77,21.26,21.26,0,0,0,2.92,10.77A85.69,85.69,0,0,0,310,159.84a32.88,32.88,0,0,1-2.62-7.7,1,1,0,0,0-1-.8H244.63a1,1,0,0,0-.94.68,1,1,0,0,0,.34,1.12,66.81,66.81,0,0,1,25.28,39.4,85.66,85.66,0,0,0-10.78,22.83,55.17,55.17,0,1,0-61.93,45.87c-.44.69-.88,1.4-1.32,2.12l-.24.42-.16.28c-.56,1-1,1.77-1.44,2.53l-.42.8-.19.38c-.35.67-.73,1.4-1.1,2.14L191.2,271l-.13.29-.07.15c-.28.59-.56,1.2-.84,1.82H95.63a5.78,5.78,0,0,1-5.78-5.78A21.34,21.34,0,0,0,68.53,246.2a5.78,5.78,0,0,1-5.78-5.78V172.67a5.78,5.78,0,0,1,5.78-5.78,21.35,21.35,0,0,0,21.32-21.33,5.78,5.78,0,0,1,5.78-5.77H312.44m-210.72,122h61.75a1,1,0,0,0,.95-.69,1,1,0,0,0-.35-1.11,67.61,67.61,0,0,1-19.49-23.09,66.64,66.64,0,0,1,0-60.63A67.52,67.52,0,0,1,164,153.14a1,1,0,0,0-.6-1.8H101.72a1,1,0,0,0-1,.8A32.81,32.81,0,0,1,75.1,177.78a1,1,0,0,0-.8,1v55.57a1,1,0,0,0,.8,1A32.79,32.79,0,0,1,100.74,261a1,1,0,0,0,1,.8"/>
    </g>
  </g>
</svg>
