<svg id="eb14692f-c96b-4d2e-93a2-b6d90ce1367a" data-name="Layer 1" xmlns="http://www.w3.org/2000/svg" viewBox="0 0 450 450">
  <title>icon-no-exams</title>
  <g>
    <path d="M285.19,344.71H143a12.33,12.33,0,0,1-12.37-12.25V163.32a7.92,7.92,0,0,1,2.34-5.58l19.61-19.35a7.89,7.89,0,0,1,5.58-2.28h127a12.31,12.31,0,0,1,12.36,12.24V189a3.48,3.48,0,1,1-6.95,0v-40.6a5.36,5.36,0,0,0-5.41-5.29h-127a1,1,0,0,0-.69.28l-19.62,19.35a.88.88,0,0,0-.26.63V332.46a5.35,5.35,0,0,0,5.41,5.29H285.19a5.36,5.36,0,0,0,5.41-5.29V285.81a3.48,3.48,0,1,1,6.95,0v46.65A12.32,12.32,0,0,1,285.19,344.71Z"/>
    <path d="M168.92,177.83H148.06a3.48,3.48,0,1,1,0-7h17.38V153.49a3.48,3.48,0,1,1,6.95,0v20.86A3.47,3.47,0,0,1,168.92,177.83Z"/>
    <path d="M203.68,327.32a3.44,3.44,0,0,1-2.45-1,3.47,3.47,0,0,1-.82-3.62l10.64-29.81a3.73,3.73,0,0,1,.82-1.29l91-91c6.93-6.93,18-7.17,24.61-.53a16.56,16.56,0,0,1,4.82,12.28A18,18,0,0,1,327,224.65l-91,91a3.43,3.43,0,0,1-1.29.82l-29.8,10.64A3.35,3.35,0,0,1,203.68,327.32ZM217.34,296l-7.91,22.15,22.15-7.91L322,219.74a11.17,11.17,0,0,0,3.32-7.6,9.63,9.63,0,0,0-2.79-7.18c-3.93-3.93-10.56-3.68-14.78.53Zm16.15,17.25h0Z"/>
    <path d="M321.12,229a3.47,3.47,0,0,1-2.46-1l-19.15-19.16a3.47,3.47,0,0,1,4.91-4.91l19.16,19.16a3.48,3.48,0,0,1-2.46,5.93Z"/>
    <path d="M314.38,235.78a3.43,3.43,0,0,1-2.45-1l-19.17-19.15a3.48,3.48,0,0,1,4.92-4.92l19.16,19.16a3.48,3.48,0,0,1-2.46,5.93Z"/>
    <path d="M236.86,313.31a3.47,3.47,0,0,1-2.46-1l-19.16-19.16a3.48,3.48,0,1,1,4.92-4.92l19.16,19.16a3.48,3.48,0,0,1-2.46,5.94Z"/>
    <path d="M252.36,216.07H162a3.48,3.48,0,0,1,0-6.95h90.4a3.48,3.48,0,0,1,0,6.95Z"/>
    <path d="M224.54,250.84H162a3.48,3.48,0,0,1,0-7h62.58a3.48,3.48,0,1,1,0,7Z"/>
  </g>
  <path d="M220.84,403.77c-90.08,0-163.36-73.28-163.36-163.36a162,162,0,0,1,32.37-97.65,5.5,5.5,0,0,1,8.82,6.58,151.13,151.13,0,0,0-30.19,91.07c0,84,68.35,152.36,152.36,152.36a151.48,151.48,0,0,0,102-39.14L103.61,134.41a5.51,5.51,0,0,1-.06-7.72A162.06,162.06,0,0,1,220.84,77c90.09,0,163.37,73.29,163.37,163.37a161.76,161.76,0,0,1-34.79,100.8,5.5,5.5,0,0,1-8.65-6.8,150.84,150.84,0,0,0,32.44-94c0-84-68.35-152.37-152.37-152.37a151,151,0,0,0-105.55,42.48L333.69,349l.56.45a5.51,5.51,0,0,1,.38,8.23A162.5,162.5,0,0,1,220.84,403.77Z"/>
</svg>
