<svg id="a9ea847d-416c-41ac-9e73-3e067fbb7c61" data-name="Layer 1" xmlns="http://www.w3.org/2000/svg" viewBox="0 0 450 450">
  <title>icon-credit-transfer</title>
  <g>
    <g>
      <path d="M360.94,70.67H265.16a5,5,0,0,0-3.5,8.45l27.94,27.95a2.41,2.41,0,0,1,0,3.42l-50,50.05a4.95,4.95,0,1,0,7,7l55.26-55.26a5,5,0,0,0,0-7L281.24,84.7A2.42,2.42,0,0,1,283,80.57h70.62A2.42,2.42,0,0,1,356,83v70.63a2.41,2.41,0,0,1-1.49,2.23,2.35,2.35,0,0,1-.93.19,2.44,2.44,0,0,1-1.71-.71l-20.57-20.58a4.95,4.95,0,0,0-7,0L269,190a4.95,4.95,0,1,0,7,7l50.05-50a2.42,2.42,0,0,1,1.71-.71,2.45,2.45,0,0,1,1.71.71l27.94,27.94a4.89,4.89,0,0,0,3.5,1.46,5,5,0,0,0,1.9-.38,4.94,4.94,0,0,0,3.05-4.57V75.63A5,5,0,0,0,360.94,70.67Z"/>
      <path d="M365.89,211.46v81a5,5,0,0,1-8.45,3.5l-24.26-24.26a2.43,2.43,0,0,0-3.42,0l-46.37,46.37a5,5,0,0,1-7,0,4.95,4.95,0,0,1,0-7L328,259.53a5,5,0,0,1,7,0l16.89,16.9a2.42,2.42,0,0,0,4.13-1.71v-55.9a2.41,2.41,0,0,0-2.42-2.41H297.68a2.41,2.41,0,0,0-2.23,1.49,2.3,2.3,0,0,0-.19.92,2.42,2.42,0,0,0,.71,1.71l16.89,16.9a4.95,4.95,0,0,1,0,7L283.39,273.9a4.95,4.95,0,0,1-8.44-3.5,4.89,4.89,0,0,1,1.45-3.5l24.26-24.26a2.44,2.44,0,0,0,0-3.42L276.4,215a4.94,4.94,0,0,1,3.49-8.45h81.05A5,5,0,0,1,365.89,211.46Z"/>
      <path d="M158.86,82.07a2.29,2.29,0,0,0-.18.92,2.41,2.41,0,0,0,.7,1.71l16.9,16.9a4.94,4.94,0,0,1,0,7L124.7,160.17a4.95,4.95,0,1,1-7-7l46.37-46.37a2.4,2.4,0,0,0,0-3.41L139.81,79.12a4.95,4.95,0,0,1,3.5-8.45h81a5,5,0,0,1,5,5v81a5,5,0,0,1-8.45,3.5l-24.26-24.26a2.41,2.41,0,0,0-3.42,0l-24.26,24.26a4.95,4.95,0,1,1-7-7l29.47-29.47a5,5,0,0,1,7,0l16.89,16.89a2.42,2.42,0,0,0,4.13-1.71V83A2.42,2.42,0,0,0,217,80.57H161.09A2.41,2.41,0,0,0,158.86,82.07Z"/>
    </g>
    <g>
      <path d="M200.58,355.25H95.52a14.62,14.62,0,0,1-14.61-14.6v-128a4.75,4.75,0,0,1,1.39-3.36L108.57,183a4.72,4.72,0,0,1,3.36-1.4h88.65a14.62,14.62,0,0,1,14.6,14.61V340.65A14.62,14.62,0,0,1,200.58,355.25ZM90.42,214.57V340.65a5.1,5.1,0,0,0,5.1,5.09H200.58a5.09,5.09,0,0,0,5.09-5.09V196.19a5.1,5.1,0,0,0-5.09-5.1H113.9Z"/>
      <path d="M118.5,223.92H98.8a4.76,4.76,0,1,1,0-9.51h14.94V199.47a4.76,4.76,0,0,1,9.51,0v19.7A4.75,4.75,0,0,1,118.5,223.92Z"/>
      <path d="M233.41,381.52H128.35a14.63,14.63,0,0,1-14.61-14.61,4.76,4.76,0,0,1,9.51,0,5.11,5.11,0,0,0,5.1,5.1H233.41a5.11,5.11,0,0,0,5.1-5.1V222.45a5.1,5.1,0,0,0-5.1-5.09h-6.57a4.76,4.76,0,0,1,0-9.51h6.57a14.62,14.62,0,0,1,14.6,14.6V366.91A14.62,14.62,0,0,1,233.41,381.52Z"/>
      <path d="M180.88,312.57H115.21a4.76,4.76,0,0,1,0-9.51h65.67a4.76,4.76,0,0,1,0,9.51Z"/>
      <path d="M180.88,279.74H115.21a4.76,4.76,0,0,1,0-9.51h65.67a4.76,4.76,0,0,1,0,9.51Z"/>
      <path d="M180.88,246.91H148.05a4.76,4.76,0,1,1,0-9.51h32.83a4.76,4.76,0,0,1,0,9.51Z"/>
    </g>
  </g>
</svg>
