<svg id="b7c678d3-d83c-4164-a7a0-313d75e1ff90" data-name="Layer 1" xmlns="http://www.w3.org/2000/svg" viewBox="0 0 450 450">
  <title>icon-piggy-bank</title>
  <g>
    <path d="M314,204.42a21.92,21.92,0,1,0-21.92,21.93A21.95,21.95,0,0,0,314,204.42Zm-32.88,0a11,11,0,1,1,11,11A11,11,0,0,1,281.13,204.42Z"/>
    <path d="M200.67,159.09a192,192,0,0,0-20.28,7.4,5.47,5.47,0,0,0,2.1,10.53,5.32,5.32,0,0,0,2.1-.42c22.5-9.36,40.89-15.22,73-5.3a5.48,5.48,0,0,0,3.23-10.47,136,136,0,0,0-17-4.13,32.88,32.88,0,1,0-43.11,2.39Zm20.18-47.83a21.92,21.92,0,1,1-21.92,21.92A21.94,21.94,0,0,1,220.85,111.26Z"/>
    <path d="M365.37,215.78l-23.89-9.56c-.31-15.08-7.3-39.72-32.43-49.4l4.92-39.4a5.48,5.48,0,0,0-8.72-5.06l-43.84,32.88A5.48,5.48,0,0,0,268,154l33.51-25.14-3.88,31a5.49,5.49,0,0,0,3.92,5.95c30.68,8.89,29,42.29,28.93,43.7A5.48,5.48,0,0,0,333.9,215l24,9.58V261l-24,9.58a183.71,183.71,0,0,0-1.42.92,6.46,6.46,0,0,0-.77.8,5.1,5.1,0,0,0-.55.82,5.58,5.58,0,0,0-.41,1.05,4.07,4.07,0,0,0-.22.58c-5.32,31.31-27,33.73-27.94,33.82-.15,0-.27.1-.42.12a5.16,5.16,0,0,0-1.61.47,4.7,4.7,0,0,0-.8.61,5.07,5.07,0,0,0-.85.68,5.46,5.46,0,0,0-1.06,1.86l-9.71,29.12H268.08l-9.45-18.89a4.69,4.69,0,0,0-.57-.74,5.83,5.83,0,0,0-.61-.78,5.62,5.62,0,0,0-.91-.62,4.84,4.84,0,0,0-.86-.48,5.33,5.33,0,0,0-1.05-.24,6.51,6.51,0,0,0-1-.13,5.72,5.72,0,0,0-1.07.19,4.94,4.94,0,0,0-.84.15c-.21.08-22.33,8.5-51.22-.15a4.48,4.48,0,0,0-.63-.06,5.41,5.41,0,0,0-1.05-.1,5.61,5.61,0,0,0-1.09.14,4.87,4.87,0,0,0-1.87.83,5.17,5.17,0,0,0-.77.63,4.84,4.84,0,0,0-.68.87,4.3,4.3,0,0,0-.38.49l-9.45,18.89H164.7L154.88,307s0,0,0,0a5.62,5.62,0,0,0-1-1.91c-.06-.07-.16-.11-.22-.18a5.37,5.37,0,0,0-1.43-1.2c-21.24-11.53-35.5-38.22-35.5-66.42a82.31,82.31,0,0,1,61.66-79.59,5.48,5.48,0,0,0-2.76-10.61,93.19,93.19,0,0,0-41.81,23.7q-1.73-2.81-3.29-5.58c7.56-9.08,14.39-20.22,12.13-29-1-4.09-4.37-9.42-14.26-11.56-10.33-2.24-15.14,1.25-17.39,4.56-5.21,7.69-.08,22.17,6.2,34.51-3,3.22-6.29,6.36-9.55,9.19a5.48,5.48,0,1,0,7.18,8.27c1.44-1.25,4.42-3.9,7.92-7.43,1.22,2.06,2.38,3.91,3.41,5.52a92.89,92.89,0,0,0-20.4,58.06c0,31.69,15.31,60.74,39.16,74.83l10.37,36.27a5.47,5.47,0,0,0,5.27,4H188a5.49,5.49,0,0,0,4.9-3l9-18a103.94,103.94,0,0,0,25.22,3.25,91.85,91.85,0,0,0,23.84-3l8.87,17.74a5.49,5.49,0,0,0,4.9,3h27.4a5.48,5.48,0,0,0,5.2-3.75l9.92-29.76c11-2.5,27.88-12.86,33.48-39.22l24.68-9.87a5.46,5.46,0,0,0,3.44-5.08V220.86A5.46,5.46,0,0,0,365.37,215.78ZM125,154.55c-4.35-9.37-6.48-16.91-4.92-19.21.1-.14.72-.47,2.21-.47a17.88,17.88,0,0,1,3.78.48c2.45.53,5.47,1.57,6,3.55C132.9,142.22,129.89,148.09,125,154.55Z"/>
  </g>
</svg>
