<svg id="bd508932-bfab-478d-ac26-bb61940a6004" data-name="Layer 1" xmlns="http://www.w3.org/2000/svg" viewBox="0 0 450 450">
  <title>icon-transfer-arrows</title>
  <g>
    <path d="M132.76,112.05a6.26,6.26,0,0,0-4.38,1.77L39.06,200.66a8.4,8.4,0,0,0,0,12.11l89.32,86.85a6.33,6.33,0,0,0,6.77,1.31,6,6,0,0,0,3.83-5.58V253.58h70.48a6,6,0,1,0,0-12.08H139V206.72a6.21,6.21,0,0,0-12.42,0v74L53,209.22a3.47,3.47,0,0,1,0-5l73.59-71.55V165.9a6.13,6.13,0,0,0,6.21,6h101a6,6,0,0,0,6.09-5.92,6.15,6.15,0,0,0-6.21-6.16H139V118.09a6,6,0,0,0-3.84-5.58A6.37,6.37,0,0,0,132.76,112.05Z"/>
    <path d="M317.24,338a6.26,6.26,0,0,0,4.38-1.77l89.32-86.84a8.4,8.4,0,0,0,0-12.11l-89.32-86.85a6.33,6.33,0,0,0-6.77-1.31,6,6,0,0,0-3.83,5.58v41.77H240.54a6,6,0,1,0,0,12.08H311v34.78a6.21,6.21,0,0,0,12.42,0V169.23L397,240.78a3.47,3.47,0,0,1,0,5l-73.59,71.55V284.1a6.13,6.13,0,0,0-6.21-6h-101a6,6,0,0,0-6.09,5.92,6.15,6.15,0,0,0,6.21,6.16H311v41.77a6,6,0,0,0,3.84,5.58A6.37,6.37,0,0,0,317.24,338Z"/>
  </g>
</svg>
