<svg id="b8ee7468-3583-42f6-846f-328fd59f3260" data-name="Layer 1" xmlns="http://www.w3.org/2000/svg" viewBox="0 0 450 450">
  <title>icon-online-classes</title>
  <g>
    <path d="M250.69,319.67H187.52a3,3,0,0,1,0-6h63.17a3,3,0,0,1,0,6Z"/>
    <path d="M345.46,352.26H92.75a14.55,14.55,0,0,1-14.53-14.53v-5.26a4,4,0,0,1,.67-2.22L100,298.66a4,4,0,0,1,3.33-1.78H334.93a4,4,0,0,1,3.33,1.78l21.06,31.59a4,4,0,0,1,.67,2.22v5.26A14.55,14.55,0,0,1,345.46,352.26ZM86.22,333.68v4.05a6.54,6.54,0,0,0,6.53,6.53H345.46a6.54,6.54,0,0,0,6.53-6.53v-4.05l-19.2-28.8H105.42Z"/>
    <path d="M356,336.47H82.22a4,4,0,0,1,0-8H356a4,4,0,0,1,0,8Z"/>
    <path d="M334.93,304.88H103.28a4,4,0,0,1-4-4v-150a11.92,11.92,0,0,1,11.9-11.9H327a11.91,11.91,0,0,1,11.9,11.9v150A4,4,0,0,1,334.93,304.88Zm-227.65-8H330.93v-146a3.91,3.91,0,0,0-3.9-3.9H111.18a3.91,3.91,0,0,0-3.9,3.9Z"/>
    <path d="M308.61,272.29H287.54a3,3,0,0,1,0-6h18.07v-94H227.37v59.8a3,3,0,0,1-6,0v-62.8a3,3,0,0,1,3-3h84.24a3,3,0,0,1,3,3v100A3,3,0,0,1,308.61,272.29Z"/>
    <path d="M198.05,288.08a3,3,0,0,1-3-3V257.86a3,3,0,0,1,5.12-2.12l21.08,21.08h40a7.55,7.55,0,0,0,7.43-8.82c-.58-3.56-4-6.24-8-6.24H228.73a3,3,0,0,1-2.12-.88l-22.34-22.34a28.4,28.4,0,0,0-20.21-8.37H140.13A12.81,12.81,0,0,0,127.34,243v42.11a3,3,0,0,1-6,0V243a18.81,18.81,0,0,1,18.79-18.8h43.93a34.39,34.39,0,0,1,24.46,10.13L230,255.76h30.69c6.88,0,12.86,4.85,13.91,11.28a13.54,13.54,0,0,1-13.35,15.78H220a3,3,0,0,1-2.12-.88L201.05,265.1v20A3,3,0,0,1,198.05,288.08Z"/>
    <path d="M166.46,219.64c-13.72,0-24.06-12.61-24.06-29.32a24.06,24.06,0,0,1,48.12,0C190.52,207,180.17,219.64,166.46,219.64Zm0-47.38a18.08,18.08,0,0,0-18.06,18.06c0,13.51,7.59,23.32,18.06,23.32s18.06-9.81,18.06-23.32A18.08,18.08,0,0,0,166.46,172.26Z"/>
  </g>
</svg>
