<svg id="b9eef0e2-c604-4dc5-8620-96ce7a34ab21" data-name="Layer 1" xmlns="http://www.w3.org/2000/svg" viewBox="0 0 450 450">
  <title>icon-accredited</title>
  <g>
    <path d="M238.16,313.31a4.81,4.81,0,0,1-1.24-.17l-20.44-5.87L196,313.14a4.5,4.5,0,0,1-4.14-.89l-16.33-13.78-21-3.05a4.52,4.52,0,0,1-3.41-2.49l-9.38-19.33-18-11.46a4.47,4.47,0,0,1-2.08-3.62L120.83,237,109,219.1a4.53,4.53,0,0,1-.43-4.15l7.92-20-3.63-21.23a4.51,4.51,0,0,1,1.28-4l15.26-15,5.21-20.88a4.52,4.52,0,0,1,2.8-3.13l20-7.42,13.15-16.92a4.55,4.55,0,0,1,3.86-1.73l21.21,1.43,18.81-10a4.47,4.47,0,0,1,4.23,0l18.8,10,21.21-1.43a4.55,4.55,0,0,1,3.86,1.73l13.14,16.92,20,7.42a4.5,4.5,0,0,1,2.79,3.13l5.2,20.88,15.28,15a4.51,4.51,0,0,1,1.28,4L316.5,195l7.91,20a4.53,4.53,0,0,1-.43,4.15L312.12,237l-.8,21.54a4.5,4.5,0,0,1-2.08,3.62l-18,11.46-9.38,19.33a4.5,4.5,0,0,1-3.4,2.49l-21.05,3.05-16.34,13.78A4.45,4.45,0,0,1,238.16,313.31Zm-80-26.45,20,2.89a4.48,4.48,0,0,1,2.26,1l15.48,13.07,19.39-5.57a4.58,4.58,0,0,1,2.49,0l19.37,5.56,15.48-13.06a4.48,4.48,0,0,1,2.26-1l20-2.89,8.89-18.33a4.44,4.44,0,0,1,1.63-1.83l17.09-10.88.77-20.44a4.58,4.58,0,0,1,.74-2.32l11.26-17-7.52-19a4.5,4.5,0,0,1-.25-2.41l3.45-20.16-14.5-14.24a4.47,4.47,0,0,1-1.21-2.12l-4.94-19.81-18.94-7a4.49,4.49,0,0,1-2-1.46l-12.46-16-20.11,1.36a4.45,4.45,0,0,1-2.42-.52l-17.82-9.51-17.82,9.51a4.43,4.43,0,0,1-2.42.52l-20.11-1.36-12.47,16a4.49,4.49,0,0,1-2,1.46l-18.94,7-4.94,19.81a4.47,4.47,0,0,1-1.21,2.12L122.1,174.52l3.45,20.16a4.51,4.51,0,0,1-.26,2.41l-7.52,19,11.26,17a4.5,4.5,0,0,1,.75,2.32l.76,20.44,17.09,10.88a4.44,4.44,0,0,1,1.63,1.83Zm58.32-4.38a78.22,78.22,0,1,1,78.21-78.22A78.31,78.31,0,0,1,216.48,282.48Zm0-147.43a69.22,69.22,0,1,0,69.21,69.21A69.29,69.29,0,0,0,216.48,135.05Z"/>
    <path d="M246.2,250.84a4.47,4.47,0,0,1-2.1-.52l-27.62-14.51-27.63,14.51a4.5,4.5,0,0,1-6.53-4.74l5.27-30.75L165.24,193a4.5,4.5,0,0,1,2.49-7.68l30.9-4.49,13.81-28a4.5,4.5,0,0,1,8.07,0l13.82,28,30.89,4.48a4.5,4.5,0,0,1,2.5,7.68l-22.36,21.79,5.27,30.75a4.5,4.5,0,0,1-4.43,5.26ZM178.05,193,195.57,210a4.52,4.52,0,0,1,1.29,4l-4.13,24.1,21.66-11.38a4.48,4.48,0,0,1,4.18,0l21.65,11.38L236.09,214a4.5,4.5,0,0,1,1.3-4L254.9,193l-24.2-3.52a4.47,4.47,0,0,1-3.39-2.46L216.48,165,205.66,187a4.54,4.54,0,0,1-3.39,2.47Z"/>
    <path d="M161.19,368.58l-.39,0a4.48,4.48,0,0,1-3.66-2.54l-16.87-35.19-29.94,1.55a4.5,4.5,0,0,1-3.9-7.11l37.48-52.55a4.5,4.5,0,0,1,7.33,5.22l-32.07,45,23.63-1.22a4.53,4.53,0,0,1,4.29,2.55l14.87,31L198.66,304a4.5,4.5,0,0,1,7.32,5.24L164.85,366.7A4.51,4.51,0,0,1,161.19,368.58Z"/>
    <path d="M271.75,368.58a4.53,4.53,0,0,1-3.66-1.88L227,309.27a4.5,4.5,0,0,1,7.32-5.24L271,355.27l14.87-31a4.48,4.48,0,0,1,4.29-2.55l23.62,1.22-32.06-45a4.5,4.5,0,0,1,7.33-5.22l37.47,52.55a4.5,4.5,0,0,1-3.9,7.11l-29.93-1.55L275.81,366a4.5,4.5,0,0,1-3.67,2.54Z"/>
  </g>
</svg>
