<svg id="bdc58de0-a730-40c4-a340-7b4807fbbdfc" data-name="Layer 1" xmlns="http://www.w3.org/2000/svg" viewBox="0 0 450 450">
  <title>icon-academic-excellence</title>
  <g>
    <path d="M270.47,335.43a4.51,4.51,0,0,0-4.5,4.5v30a4.5,4.5,0,0,0,6.82,3.86l27.68-16.61,27.69,16.61a4.58,4.58,0,0,0,4.53.06,4.51,4.51,0,0,0,2.28-3.92v-30a4.5,4.5,0,0,0-9,0V362l-23.18-13.9a4.48,4.48,0,0,0-4.63,0L275,362V339.93A4.51,4.51,0,0,0,270.47,335.43Z"/>
    <path d="M300.47,213.94a45,45,0,1,0,45,45A45,45,0,0,0,300.47,213.94Zm0,78a33,33,0,1,1,33-33A33,33,0,0,1,300.47,291.93Z"/>
    <path d="M300.47,323.13c1.65,0,4.11,1.41,8,4,5,3.27,10.12,6.61,15.6,4.83,5.69-1.86,8-8,10-13.44l0-.09c1.64-4.34,2.69-6.7,3.88-7.56,1.35-1,4.51-1.21,8.51-1.42,6.08-.3,12.3-.6,15.77-5.39s1.83-10.73.28-16.52c-1.23-4.52-1.79-7.25-1.31-8.76s2.44-3.16,5.95-6c4.32-3.48,9.69-7.8,9.69-13.87s-5.37-10.4-9.69-13.88l.93-1.17-.94,1.17.94-1.17-.94,1.17c-3.59-2.89-5.49-4.6-5.93-6-.54-1.66.27-4.95,1.29-8.76,1.56-5.8,3.17-11.79-.27-16.53s-9.69-5.09-15.71-5.39c-4-.21-7.22-.44-8.56-1.42s-2.25-3.22-3.89-7.56l0-.09c-2-5.43-4.35-11.58-10-13.44-5.48-1.78-10.55,1.53-15.45,4.73l-.15.1c-3.94,2.59-6.4,4-8,4s-4.1-1.41-8.05-4c-5-3.27-10.12-6.62-15.59-4.83-5.7,1.86-8,8-10.05,13.44-1.68,4.42-2.73,6.78-3.92,7.65-1.34,1-4.52,1.21-8.52,1.42-6.06.3-12.29.6-15.76,5.39s-1.83,10.73-.27,16.52c1,3.82,1.83,7.11,1.3,8.76-.45,1.37-2.35,3.08-5.93,6-4.34,3.49-9.71,7.82-9.71,13.89s5.38,10.39,9.69,13.87c3.61,2.9,5.5,4.61,6,6,.54,1.67-.27,5-1.3,8.76-1.56,5.8-3.16,11.79.27,16.53s9.69,5.09,15.71,5.39c4.06.21,7.23.44,8.57,1.41,1.19.88,2.24,3.24,3.89,7.58,2.07,5.51,4.38,11.66,10.08,13.52a9.85,9.85,0,0,0,3.1.49c4.36,0,8.67-2.82,12.48-5.31S298.82,323.13,300.47,323.13Zm-20.71.39-.38-.23c-1.3-.78-2.42-3.27-4.17-7.91s-3.45-9.16-7-11.78-8.62-2.9-13.43-3.14c-5.52-.27-7.59-.58-8.5-1.27l-.34-.25-.16-.4c-.53-1.36,0-4,1.24-8.6s2.59-9.61,1.19-13.94c-1.35-4.17-5.17-7.23-8.85-10.2-4.55-3.65-6.08-5.25-6.32-6.56L233,259l0-.27c.27-1.53,2.34-3.43,6.33-6.64,3.68-3,7.5-6,8.85-10.2,1.4-4.32.1-9.17-1.17-13.86l0-.1c-1.42-5.31-1.75-7.26-1.38-8.34l.13-.4.32-.27c1.14-1,3.93-1.26,8.69-1.49s9.79-.48,13.43-3.14,5.34-7.26,7-11.75c2-5.35,2.91-7.17,3.85-7.82l.39-.26h.47c1.46,0,3.79,1.34,7.59,3.83s8.36,5.47,13,5.47,9-2.9,13-5.46c4.53-3,6.24-3.88,7.31-3.91l.44,0,.39.23c1.29.78,2.41,3.27,4.16,7.89s3.45,9.18,7,11.8,8.61,2.9,13.43,3.14c5.51.27,7.58.57,8.5,1.27l.34.26.15.39c.53,1.36,0,4.07-1.24,8.61-1.28,4.76-2.59,9.61-1.18,13.93,1.34,4.17,5.16,7.23,8.85,10.2,3.84,3.09,6,5,6.3,6.54l.07.33-.07.32c-.33,1.5-2.46,3.45-6.28,6.52h0c-3.69,3-7.51,6-8.85,10.21-1.4,4.33-.1,9.17,1.16,13.86,1.45,5.41,1.77,7.36,1.41,8.44l-.14.39-.32.28c-1.14.95-3.93,1.26-8.68,1.49s-9.8.48-13.44,3.14-5.33,7.26-7,11.75c-2,5.36-2.92,7.17-3.86,7.82l-.29.2-.36.05c-1.61.21-3.73-1.11-6.81-3.17l-1-.65c-3.93-2.57-8.37-5.47-13-5.47s-9,2.9-13,5.46c-4.53,3-6.23,3.88-7.3,3.91Zm1.09-126.42"/>
    <path d="M96.47,89.44a4.51,4.51,0,0,0-4.5,4.5v276a4.5,4.5,0,0,0,4.5,4.5h150a4.5,4.5,0,0,0,0-9H101v-267H296v73.5a4.5,4.5,0,0,0,9,0v-78a4.51,4.51,0,0,0-4.5-4.5Z"/>
    <path d="M149.93,113.44a4.48,4.48,0,0,0-4.43,3.75A31.45,31.45,0,0,1,119.73,143,4.48,4.48,0,0,0,116,147.4V316.47a4.48,4.48,0,0,0,3.76,4.44,31.45,31.45,0,0,1,25.77,25.77,4.47,4.47,0,0,0,4.43,3.75h96.55a4.5,4.5,0,0,0,0-9H153.57l-.32-1.07a40.27,40.27,0,0,0-27.2-27.21l-1.08-.31V151l1.08-.32a40.27,40.27,0,0,0,27.2-27.21l.32-1.07h89.8l.32,1.07a40.3,40.3,0,0,0,27.21,27.21L272,151v20.9a4.5,4.5,0,0,0,9,0V147.4a4.48,4.48,0,0,0-3.75-4.44,31.42,31.42,0,0,1-25.77-25.77,4.49,4.49,0,0,0-4.44-3.75Z"/>
    <path d="M228.47,159.94a6,6,0,0,0,0-12h-60a6,6,0,1,0,0,12Z"/>
    <path d="M246.47,189.94a6,6,0,0,0-6-6h-90a6,6,0,1,0,0,12h90A6,6,0,0,0,246.47,189.94Z"/>
    <path d="M216.47,213.94h-66a6,6,0,1,0,0,12h66a6,6,0,0,0,0-12Z"/>
    <path d="M150.47,255.94h54a6,6,0,0,0,0-12h-54a6,6,0,1,0,0,12Z"/>
    <path d="M150.47,285.94h60a6,6,0,0,0,0-12h-60a6,6,0,1,0,0,12Z"/>
    <path d="M162.47,315.93h54a6,6,0,0,0,0-12h-54a6,6,0,1,0,0,12Z"/>
  </g>
</svg>
