<svg id="f5527c78-bddc-4b81-96e5-5757f28cd2c4" data-name="Layer 1" xmlns="http://www.w3.org/2000/svg" viewBox="0 0 450 450">
  <title>icon-class-ratio</title>
  <g>
    <path d="M225,330.53c-16,0-28-14.56-28-33.87a28,28,0,0,1,56,0C253,316,241,330.53,225,330.53Zm0-52.87a19,19,0,0,0-19,19c0,14.41,8,24.87,19,24.87s19-10.46,19-24.87A19,19,0,0,0,225,277.66Z"/>
    <path d="M342.48,330.53c-16,0-28-14.56-28-33.87a28,28,0,1,1,56,0C370.47,316,358.44,330.53,342.48,330.53Zm0-52.87a19,19,0,0,0-19,19c0,14.41,8,24.87,19,24.87s19-10.46,19-24.87A19,19,0,0,0,342.48,277.66Z"/>
    <path d="M107.52,330.53c-16,0-28-14.56-28-33.87a28,28,0,1,1,56,0C135.52,316,123.48,330.53,107.52,330.53Zm0-52.87a19,19,0,0,0-19,19c0,14.41,8,24.87,19,24.87s19-10.46,19-24.87A19,19,0,0,0,107.52,277.66Z"/>
    <path d="M154.51,365.77a4.5,4.5,0,0,1-4.5-4.5v-4.66a7.22,7.22,0,0,0-4.2-6.59,92.87,92.87,0,0,0-38-7.75,95.1,95.1,0,0,0-38.48,7.8A7.2,7.2,0,0,0,65,356.68v4.59a4.5,4.5,0,0,1-9,0v-4.59a16.22,16.22,0,0,1,9.61-14.84,104.26,104.26,0,0,1,42.13-8.57,101.72,101.72,0,0,1,41.73,8.55A16.21,16.21,0,0,1,159,356.61v4.66A4.49,4.49,0,0,1,154.51,365.77Z"/>
    <path d="M272,365.77a4.5,4.5,0,0,1-4.5-4.5v-4.66a7.22,7.22,0,0,0-4.2-6.59,92.87,92.87,0,0,0-38-7.75,95.19,95.19,0,0,0-38.49,7.8,7.21,7.21,0,0,0-4.25,6.61v4.59a4.5,4.5,0,0,1-9,0v-4.59a16.22,16.22,0,0,1,9.61-14.84,104.22,104.22,0,0,1,42.13-8.57A101.76,101.76,0,0,1,267,341.82a16.21,16.21,0,0,1,9.51,14.79v4.66A4.49,4.49,0,0,1,272,365.77Z"/>
    <path d="M389.47,365.77a4.49,4.49,0,0,1-4.5-4.5v-4.66a7.21,7.21,0,0,0-4.21-6.59,92.77,92.77,0,0,0-38-7.75,95.19,95.19,0,0,0-38.49,7.8,7.21,7.21,0,0,0-4.25,6.61v4.59a4.5,4.5,0,0,1-9,0v-4.59a16.22,16.22,0,0,1,9.61-14.84,104.22,104.22,0,0,1,42.13-8.57,101.76,101.76,0,0,1,41.73,8.55A16.21,16.21,0,0,1,394,356.61v4.66A4.49,4.49,0,0,1,389.47,365.77Z"/>
    <path d="M366,260H84a4.49,4.49,0,0,1-4.5-4.5V73.45A4.49,4.49,0,0,1,84,69H366a4.49,4.49,0,0,1,4.5,4.5V255.54A4.49,4.49,0,0,1,366,260ZM88.53,251H361.47V78H88.53Z"/>
    <path d="M301.36,100.44H84a3.5,3.5,0,0,1,0-7H301.36a3.5,3.5,0,0,1,0,7Z"/>
    <path d="M348.35,100.44H336.6a3.5,3.5,0,0,1,0-7h11.75a3.5,3.5,0,0,1,0,7Z"/>
    <path d="M324.86,100.44H313.11a3.5,3.5,0,0,1,0-7h11.75a3.5,3.5,0,0,1,0,7Z"/>
    <path d="M201.5,241.42a3.5,3.5,0,0,1-3.5-3.5v-23.5a9.38,9.38,0,0,1,9.38-9.37H272a8.25,8.25,0,0,0,0-16.5H136.89a14.14,14.14,0,0,0-14.12,14.13v35.24a3.5,3.5,0,0,1-7,0V202.68a21.15,21.15,0,0,1,21.12-21.13H272a15.25,15.25,0,0,1,0,30.5H207.38a2.38,2.38,0,0,0-2.38,2.37v23.5A3.5,3.5,0,0,1,201.5,241.42Z"/>
    <path d="M166.26,176.81c-15.39,0-27-14.14-27-32.87a27,27,0,1,1,54,0C193.26,162.67,181.65,176.81,166.26,176.81Zm0-52.87a20,20,0,0,0-20,20c0,15,8.4,25.87,20,25.87s20-10.88,20-25.87A20,20,0,0,0,166.26,123.94Z"/>
    <path d="M324.86,141.56h-94a3.5,3.5,0,0,1,0-7h94a3.5,3.5,0,0,1,0,7Z"/>
    <path d="M324.86,165.06h-94a3.5,3.5,0,0,1,0-7h94a3.5,3.5,0,0,1,0,7Z"/>
  </g>
</svg>
