<svg id="a281b06f-4db2-461e-9dfb-bd5a0b8c6b13" data-name="Layer 1" xmlns="http://www.w3.org/2000/svg" viewBox="0 0 450 450">
  <title>icon-graduate</title>
  <g>
    <path d="M158.27,86.44a4.38,4.38,0,0,0,0,8.75h25v42.62c0,20.53,5.82,38.34,17.3,52.93l.32.41v25.9l-52.68,20a16.45,16.45,0,0,0-9.75,11.57l-19.37,96.74a16.32,16.32,0,0,0,3.1,13.94,16.1,16.1,0,0,0,12.66,6.13H322.68a16.26,16.26,0,0,0,15.81-19.84v0L319,248.39a16.38,16.38,0,0,0-9.84-11.4l-52.54-20V191.15l.32-.41c11.49-14.59,17.31-32.4,17.31-52.93V95.19h20.62v42.62a4.38,4.38,0,1,0,8.75,0v-47a4.38,4.38,0,0,0-4.37-4.38ZM322.68,356.68H233.14V245.37l20.22-20.22,52.63,20a7.48,7.48,0,0,1,4.48,5.11l19.47,97.19a7.53,7.53,0,0,1-1.45,6.42h0A7.41,7.41,0,0,1,322.68,356.68Zm-98.29,0H134.85a7.4,7.4,0,0,1-5.8-2.81,7.7,7.7,0,0,1-1.41-6.66L147,250.48a7.57,7.57,0,0,1,4.39-5.29l52.78-20,20.21,20.22Zm4.38-119.31-19.13-19.12v-17.7l2.47,2A67.67,67.67,0,0,0,227,212.32a4.39,4.39,0,0,0,3.48,0,67.93,67.93,0,0,0,14.92-9.72l2.46-2v17.7Zm0-33.93-.72-.4c-8.45-4.71-36-23.37-36-65.41v-7.19h73.5v7.37c0,42.21-27.56,60.6-36,65.24Zm36.74-81.75H192V95.19h73.5Z"/>
    <circle cx="205.27" cy="284.68" r="5.87"/>
    <circle cx="205.27" cy="308.18" r="5.87"/>
    <circle cx="205.27" cy="261.18" r="5.87"/>
    <circle cx="205.27" cy="331.68" r="5.87"/>
  </g>
</svg>
