<svg id="ab10f8c6-f98e-4e58-88ed-4f4fd55a691b" data-name="Layer 1" xmlns="http://www.w3.org/2000/svg" viewBox="0 0 450 450">
  <title>icon-start-times</title>
  <g>
    <path d="M111.17,266.77l7.35-1.32a113.38,113.38,0,0,1-1.76-15.82h12.81a98.81,98.81,0,0,0,2.24,17.28l7.29-1.6A91.09,91.09,0,0,1,137,249.63h28.52v-7.46H69.33v7.46h40A120.43,120.43,0,0,0,111.17,266.77Z"/>
    <path d="M316,168.45l14.68-16.07-7.63-7,6.78-7.45-5.52-5-6.77,7.44-7.81-7.13L295,149.46a117.3,117.3,0,0,0-53.61-20.64V114.53h10.45V86.17H202.52v28.36H213v14.29a117.53,117.53,0,0,0-84.56,52.72l6.26,4.08a110.47,110.47,0,1,1-.2,120.26,111.24,111.24,0,0,1-7.89-14.45h14.26a97.6,97.6,0,1,0,11.39-108.19L158,188a90.07,90.07,0,0,1,64.69-32.21v7.38h7.46v-7.45a90.32,90.32,0,0,1,87.18,86.42h-8.21v7.46h8.21a90.32,90.32,0,0,1-87.18,86.42V328.6h-7.46V336a90.29,90.29,0,0,1-63.13-30.55,91.28,91.28,0,0,1-10.13-14h16.18V284H91.4v7.47h27.05A117.88,117.88,0,1,0,316,168.45ZM210,107.07V93.63h34.33v13.44H210ZM220.43,128V114.53h13.44V128Zm80.51,26,9.29-10.17,9.92,9.06L310.91,163A118,118,0,0,0,300.94,154Z"/>
    <path d="M111.17,225l7.35,1.31a110.77,110.77,0,0,1,5-18.51h13.68a100,100,0,0,0-3.87,10.8c-.4,1.38-.68,2.8-1,4.23l-.41,2,7.29,1.6.45-2.23c.23-1.19.45-2.39.79-3.54a90.16,90.16,0,0,1,4.85-12.89h20.2v-7.46H101.85v7.46h13.76A120,120,0,0,0,111.17,225Z"/>
    <rect x="48.43" y="242.17" width="10.45" height="7.46"/>
    <rect x="70.5" y="283.96" width="10.45" height="7.46"/>
    <rect x="80.95" y="200.37" width="10.45" height="7.46"/>
    <path d="M277.08,190.89,234.3,233.67a14.18,14.18,0,1,0,5.23,5.32l42.83-42.83Zm-49.93,61.73a6.72,6.72,0,1,1,6.72-6.72A6.73,6.73,0,0,1,227.15,252.62Z"/>
  </g>
</svg>
