<svg id="bd485011-47d2-4b83-a5ba-bc083d25b804" data-name="Layer 1" xmlns="http://www.w3.org/2000/svg" viewBox="0 0 450 450">
  <title>icon-calendar</title>
  <g>
    <path d="M93.55,113.34a4.06,4.06,0,0,0-4.06,4.06V365.89A4.06,4.06,0,0,0,93.55,370h278.8a4.06,4.06,0,0,0,4.06-4.06V117.4a4.06,4.06,0,0,0-4.06-4.06H346.1V99.21a16.18,16.18,0,1,0-32.36,0v14.13H297.62V99.21a16.19,16.19,0,0,0-32.37,0v14.13H249.13V99.21a16.18,16.18,0,0,0-32.36,0v14.13H200.65V99.21a16.19,16.19,0,0,0-32.37,0v14.13H152.16V99.21a16.19,16.19,0,0,0-32.37,0v14.13ZM368.29,361.83H97.61V121.46h22.18v14.12a16.19,16.19,0,0,0,32.37,0V121.46h16.12v14.12a16.19,16.19,0,0,0,32.37,0V121.46h16.12v14.12a16.18,16.18,0,0,0,32.36,0V121.46h16.12v14.12a16.19,16.19,0,0,0,32.37,0V121.46h16.12v14.12a16.18,16.18,0,0,0,32.36,0V121.46h22.19ZM329.92,143.64a8.07,8.07,0,0,1-8.06-8.06V99.21a8.06,8.06,0,0,1,16.12,0v36.37A8.07,8.07,0,0,1,329.92,143.64Zm-48.48,0a8.08,8.08,0,0,1-8.07-8.06V99.21a8.07,8.07,0,0,1,16.13,0v36.37A8.07,8.07,0,0,1,281.44,143.64Zm-48.49,0a8.07,8.07,0,0,1-8.06-8.06V99.21a8.06,8.06,0,0,1,16.12,0v36.37A8.07,8.07,0,0,1,233,143.64Zm-48.49,0a8.07,8.07,0,0,1-8.06-8.06V99.21a8.06,8.06,0,0,1,16.12,0v36.37A8.07,8.07,0,0,1,184.46,143.64Zm-48.48,0a8.07,8.07,0,0,1-8.06-8.06V99.21a8.06,8.06,0,0,1,16.12,0v36.37A8.07,8.07,0,0,1,136,143.64Z"/>
    <path d="M148.1,190.13H123.85a6.06,6.06,0,0,0-6.06,6.06v24.24a6.06,6.06,0,0,0,6.06,6.06H148.1a6.06,6.06,0,0,0,6.06-6.06V196.19A6.06,6.06,0,0,0,148.1,190.13Z"/>
    <path d="M196.58,190.13H172.34a6.06,6.06,0,0,0-6.06,6.06v24.24a6.06,6.06,0,0,0,6.06,6.06h24.24a6.06,6.06,0,0,0,6.07-6.06V196.19A6.06,6.06,0,0,0,196.58,190.13Z"/>
    <path d="M245.07,190.13H220.83a6.06,6.06,0,0,0-6.06,6.06v24.24a6.06,6.06,0,0,0,6.06,6.06h24.24a6.06,6.06,0,0,0,6.06-6.06V196.19A6.06,6.06,0,0,0,245.07,190.13Z"/>
    <path d="M293.56,190.13H269.31a6.06,6.06,0,0,0-6.06,6.06v24.24a6.06,6.06,0,0,0,6.06,6.06h24.25a6.06,6.06,0,0,0,6.06-6.06V196.19A6.06,6.06,0,0,0,293.56,190.13Z"/>
    <path d="M342,190.13H317.8a6.06,6.06,0,0,0-6.06,6.06v24.24a6.06,6.06,0,0,0,6.06,6.06H342a6.06,6.06,0,0,0,6.06-6.06V196.19A6.06,6.06,0,0,0,342,190.13Z"/>
    <path d="M148.1,238.61H123.85a6.06,6.06,0,0,0-6.06,6.06v24.25a6.06,6.06,0,0,0,6.06,6.06H148.1a6.06,6.06,0,0,0,6.06-6.06V244.67A6.06,6.06,0,0,0,148.1,238.61Z"/>
    <path d="M196.58,238.61H172.34a6.06,6.06,0,0,0-6.06,6.06v24.25a6.06,6.06,0,0,0,6.06,6.06h24.24a6.06,6.06,0,0,0,6.07-6.06V244.67A6.06,6.06,0,0,0,196.58,238.61Z"/>
    <path d="M245.07,238.61H220.83a6.06,6.06,0,0,0-6.06,6.06v24.25a6.06,6.06,0,0,0,6.06,6.06h24.24a6.06,6.06,0,0,0,6.06-6.06V244.67A6.06,6.06,0,0,0,245.07,238.61Z"/>
    <path d="M293.56,238.61H269.31a6.06,6.06,0,0,0-6.06,6.06v24.25a6.06,6.06,0,0,0,6.06,6.06h24.25a6.06,6.06,0,0,0,6.06-6.06V244.67A6.06,6.06,0,0,0,293.56,238.61Z"/>
    <path d="M342,238.61H317.8a6.06,6.06,0,0,0-6.06,6.06v24.25A6.06,6.06,0,0,0,317.8,275H342a6.06,6.06,0,0,0,6.06-6.06V244.67A6.06,6.06,0,0,0,342,238.61Z"/>
    <path d="M148.1,287.1H123.85a6.06,6.06,0,0,0-6.06,6.06V317.4a6.06,6.06,0,0,0,6.06,6.06H148.1a6.06,6.06,0,0,0,6.06-6.06V293.16A6.06,6.06,0,0,0,148.1,287.1Z"/>
    <path d="M196.58,287.1H172.34a6.06,6.06,0,0,0-6.06,6.06V317.4a6.06,6.06,0,0,0,6.06,6.06h24.24a6.06,6.06,0,0,0,6.07-6.06V293.16A6.06,6.06,0,0,0,196.58,287.1Z"/>
    <path d="M245.07,287.1H220.83a6.06,6.06,0,0,0-6.06,6.06V317.4a6.06,6.06,0,0,0,6.06,6.06h24.24a6.06,6.06,0,0,0,6.06-6.06V293.16A6.06,6.06,0,0,0,245.07,287.1Z"/>
    <path d="M293.56,287.1H269.31a6.06,6.06,0,0,0-6.06,6.06V317.4a6.06,6.06,0,0,0,6.06,6.06h24.25a6.06,6.06,0,0,0,6.06-6.06V293.16A6.06,6.06,0,0,0,293.56,287.1Z"/>
  </g>
</svg>
