<svg id="aa651bb0-aafe-408b-acf0-8bf62253169c" data-name="Layer 1" xmlns="http://www.w3.org/2000/svg" viewBox="0 0 450 450">
  <title>icon-no-fees</title>
  <path d="M220.84,403.77c-90.08,0-163.36-73.28-163.36-163.36a162,162,0,0,1,32.38-97.65,5.5,5.5,0,0,1,8.81,6.58,151.13,151.13,0,0,0-30.19,91.07c0,84,68.35,152.36,152.36,152.36a151.48,151.48,0,0,0,102-39.14L103.61,134.41a5.51,5.51,0,0,1-.06-7.72A162.06,162.06,0,0,1,220.84,77c90.09,0,163.37,73.29,163.37,163.37a161.76,161.76,0,0,1-34.79,100.8,5.5,5.5,0,0,1-8.65-6.8,150.84,150.84,0,0,0,32.44-94c0-84-68.35-152.37-152.37-152.37a151,151,0,0,0-105.55,42.48L333.69,349l.56.45a5.51,5.51,0,0,1,.38,8.23A162.5,162.5,0,0,1,220.84,403.77Z"/>
  <g>
    <path d="M129.58,275.54V223H124.7a2.08,2.08,0,0,1-1.83-.85,4.94,4.94,0,0,1-.61-2.81v-1.46a4.94,4.94,0,0,1,.61-2.81,2.08,2.08,0,0,1,1.83-.85h4.88V202.59q0-9.65,4.76-13.24a17.69,17.69,0,0,1,11-3.6q8.9,0,8.9,3.66a12.21,12.21,0,0,1-.73,3.48c-.49,1.5-1.1,2.26-1.83,2.26a7.8,7.8,0,0,1-1.77-.31,14.92,14.92,0,0,0-3.48-.3,6.51,6.51,0,0,0-4.88,1.76c-1.14,1.18-1.7,3.6-1.7,7.26v10.62h10.61a2.07,2.07,0,0,1,1.89.85,5.37,5.37,0,0,1,.55,2.81v1.46a5.37,5.37,0,0,1-.55,2.81,2.07,2.07,0,0,1-1.89.85H139.83v52.58q0,2.68-4.88,2.69h-.49C131.2,278.23,129.58,277.33,129.58,275.54Z"/>
    <path d="M170.08,270.79q-7.32-7.94-7.32-24.28t7.2-24.65q7.2-8.42,21.23-8.41,12.44,0,18.79,8.11t6.34,23.73a5.93,5.93,0,0,1-1.46,3.05c-1,1.3-1.83,1.95-2.57,1.95H173.74q.73,10.13,5.25,14.88t13.54,4.76a27.31,27.31,0,0,0,8.84-1.28,45.37,45.37,0,0,0,6.17-2.56,12.87,12.87,0,0,1,2.8-1.28c.81,0,1.73.81,2.75,2.44a8.15,8.15,0,0,1,1.52,3.66q0,1.45-3.05,3.35a29,29,0,0,1-8.11,3.17,43.67,43.67,0,0,1-10.8,1.29Q177.4,278.72,170.08,270.79Zm35.38-29.28q0-19.27-14.64-19.28-15.73,0-17.08,19.28Z"/>
    <path d="M234.62,270.79q-7.32-7.94-7.32-24.28t7.2-24.65q7.19-8.42,21.22-8.41,12.45,0,18.79,8.11t6.35,23.73a5.88,5.88,0,0,1-1.47,3.05c-1,1.3-1.83,1.95-2.56,1.95H238.28q.74,10.13,5.24,14.88t13.55,4.76a27.35,27.35,0,0,0,8.84-1.28,44.65,44.65,0,0,0,6.16-2.56,12.83,12.83,0,0,1,2.81-1.28c.81,0,1.73.81,2.74,2.44a8.08,8.08,0,0,1,1.53,3.66q0,1.45-3,3.35a29.09,29.09,0,0,1-8.11,3.17,43.67,43.67,0,0,1-10.8,1.29Q241.94,278.72,234.62,270.79ZM270,241.51q0-19.27-14.64-19.28-15.74,0-17.08,19.28Z"/>
    <path d="M300.8,277.8a23.79,23.79,0,0,1-7.07-3.11c-1.75-1.22-2.63-2.32-2.63-3.29a8,8,0,0,1,1.53-3.66c1-1.63,1.93-2.45,2.74-2.45a11.74,11.74,0,0,1,2.32,1.35,24.72,24.72,0,0,0,5.19,2.44,20.62,20.62,0,0,0,6.89,1.1c3.9,0,6.87-.78,8.91-2.32a9,9,0,0,0,.06-13.42,32.15,32.15,0,0,0-9.21-4.4,46.8,46.8,0,0,1-8.79-3.72,16.36,16.36,0,0,1-5.85-5.73,17.82,17.82,0,0,1-2.32-9.58,16.4,16.4,0,0,1,2.62-9.15,17.85,17.85,0,0,1,7.2-6.28,23.34,23.34,0,0,1,10.43-2.26A36.32,36.32,0,0,1,324,214.91c3.3,1.06,4.94,2.28,4.94,3.66a8.93,8.93,0,0,1-1.4,4.09c-.94,1.66-1.77,2.5-2.5,2.5-.24-.08-1.32-.63-3.23-1.65a16.91,16.91,0,0,0-7.87-1.52,13.07,13.07,0,0,0-7.81,2.19,7,7,0,0,0-3.05,6,7.3,7.3,0,0,0,2,5.49c1.34,1.3,3.85,2.56,7.51,3.78q9.51,3.18,14.51,7.69t5,12.93a17.2,17.2,0,0,1-2.87,9.7,20,20,0,0,1-7.81,6.83,23.77,23.77,0,0,1-10.92,2.5A35.12,35.12,0,0,1,300.8,277.8Z"/>
  </g>
</svg>
