<?xml version="1.0" encoding="utf-8"?>
<!-- Generator: Adobe Illustrator 24.1.0, SVG Export Plug-In . SVG Version: 6.00 Build 0)  -->
<svg version="1.1" id="Layer_1" xmlns="http://www.w3.org/2000/svg" xmlns:xlink="http://www.w3.org/1999/xlink" x="0px" y="0px"
	 viewBox="0 0 450 450" style="enable-background:new 0 0 450 450;" xml:space="preserve">
<g>
	<path d="M314,204.4c0-12.1-9.8-21.9-21.9-21.9c-12.1,0-21.9,9.8-21.9,21.9c0,12.1,9.8,21.9,21.9,21.9
		C304.2,226.3,314,216.5,314,204.4z M281.1,204.4c0-6,4.9-11,11-11c6,0,11,4.9,11,11s-4.9,11-11,11
		C286,215.4,281.1,210.5,281.1,204.4z"/>
	<path d="M200.7,159.1c-6.8,2-13.4,4.5-20.3,7.4c-2.8,1.2-4.1,4.4-3,7.2c0.9,2.1,2.9,3.4,5.1,3.4c0.7,0,1.4-0.1,2.1-0.4
		c22.5-9.4,40.9-15.2,73-5.3c2.9,0.9,6-0.7,6.9-3.6c0.9-2.9-0.7-6-3.6-6.9c-6.1-1.9-11.7-3.2-17-4.1c6.1-6,9.9-14.3,9.9-23.5
		c0-18.1-14.7-32.9-32.9-32.9c-18.1,0-32.9,14.7-32.9,32.9C188,143.7,193,153.1,200.7,159.1z M220.9,111.3
		c12.1,0,21.9,9.8,21.9,21.9c0,12.1-9.8,21.9-21.9,21.9c-12.1,0-21.9-9.8-21.9-21.9C198.9,121.1,208.8,111.3,220.9,111.3z"/>
	<path d="M365.4,215.8l-23.9-9.6c-0.3-15.1-7.3-39.7-32.4-49.4l4.9-39.4c0.3-2.2-0.8-4.3-2.7-5.4c-1.9-1.1-4.3-1-6,0.4l-43.8,32.9
		c-2.4,1.8-2.9,5.2-1.1,7.7c1.8,2.4,5.2,2.9,7.7,1.1l33.5-25.1l-3.9,31c-0.3,2.7,1.3,5.2,3.9,5.9c30.7,8.9,29,42.3,28.9,43.7
		c-0.2,2.4,1.2,4.6,3.4,5.4l24,9.6V261l-24,9.6c-0.2,0.1-0.4,0.3-0.6,0.4c-0.3,0.2-0.6,0.3-0.8,0.5c-0.3,0.2-0.5,0.5-0.8,0.8
		c-0.2,0.3-0.4,0.5-0.6,0.8c-0.2,0.3-0.3,0.7-0.4,1c-0.1,0.2-0.2,0.4-0.2,0.6c-5.3,31.3-27,33.7-27.9,33.8c-0.2,0-0.3,0.1-0.4,0.1
		c-0.6,0.1-1.1,0.2-1.6,0.5c-0.3,0.2-0.5,0.4-0.8,0.6c-0.3,0.2-0.6,0.4-0.8,0.7c-0.5,0.5-0.8,1.2-1.1,1.9l-9.7,29.1h-20.1l-9.4-18.9
		c-0.1-0.3-0.4-0.5-0.6-0.7c-0.2-0.3-0.4-0.5-0.6-0.8c-0.3-0.3-0.6-0.4-0.9-0.6c-0.3-0.2-0.5-0.4-0.9-0.5c-0.3-0.1-0.7-0.2-1.1-0.2
		c-0.3-0.1-0.6-0.1-1-0.1c-0.4,0-0.7,0.1-1.1,0.2c-0.3,0.1-0.6,0-0.8,0.1c-0.2,0.1-22.3,8.5-51.2-0.1c-0.2-0.1-0.4,0-0.6-0.1
		c-0.4-0.1-0.7-0.1-1-0.1c-0.4,0-0.7,0.1-1.1,0.1c-0.3,0.1-0.6,0.2-0.9,0.3c-0.3,0.1-0.6,0.3-0.9,0.5c-0.3,0.2-0.5,0.4-0.8,0.6
		c-0.3,0.3-0.5,0.6-0.7,0.9c-0.1,0.2-0.3,0.3-0.4,0.5l-9.4,18.9h-19.9l-9.8-34.4c0,0,0,0,0,0c-0.2-0.7-0.5-1.3-1-1.9
		c-0.1-0.1-0.2-0.1-0.2-0.2c-0.4-0.5-0.9-0.9-1.4-1.2c-21.2-11.5-35.5-38.2-35.5-66.4c0-37.4,25.4-70.1,61.7-79.6
		c2.9-0.8,4.7-3.8,3.9-6.7c-0.8-2.9-3.8-4.7-6.7-3.9c-16.2,4.2-30.5,12.6-41.8,23.7c-1.1-1.9-2.3-3.7-3.3-5.6
		c7.6-9.1,14.4-20.2,12.1-29c-1-4.1-4.4-9.4-14.3-11.6c-10.3-2.2-15.1,1.3-17.4,4.6c-5.2,7.7-0.1,22.2,6.2,34.5
		c-3,3.2-6.3,6.4-9.5,9.2c-2.3,2-2.5,5.4-0.5,7.7c2,2.3,5.4,2.5,7.7,0.5c1.4-1.3,4.4-3.9,7.9-7.4c1.2,2.1,2.4,3.9,3.4,5.5
		c-12.8,16.1-20.4,36.4-20.4,58.1c0,31.7,15.3,60.7,39.2,74.8l10.4,36.3c0.7,2.4,2.8,4,5.3,4H188c2.1,0,4-1.2,4.9-3l9-18
		c9.3,2.3,17.8,3.2,25.2,3.2c10.6,0,19-1.7,23.8-3l8.9,17.7c0.9,1.9,2.8,3,4.9,3h27.4c2.4,0,4.5-1.5,5.2-3.7l9.9-29.8
		c11-2.5,27.9-12.9,33.5-39.2l24.7-9.9c2.1-0.8,3.4-2.8,3.4-5.1v-43.8C368.8,218.6,367.4,216.6,365.4,215.8z M125,154.5
		c-4.4-9.4-6.5-16.9-4.9-19.2c0.1-0.1,0.7-0.5,2.2-0.5c0.9,0,2.1,0.1,3.8,0.5c2.4,0.5,5.5,1.6,6,3.6
		C132.9,142.2,129.9,148.1,125,154.5z"/>
</g>
</svg>
