<?xml version="1.0" encoding="utf-8"?>
<!-- Generator: Adobe Illustrator 24.1.0, SVG Export Plug-In . SVG Version: 6.00 Build 0)  -->
<svg version="1.1" id="Layer_1" xmlns="http://www.w3.org/2000/svg" xmlns:xlink="http://www.w3.org/1999/xlink" x="0px" y="0px"
	 viewBox="0 0 450 450" style="enable-background:new 0 0 450 450;" xml:space="preserve">
<g>
	<g>
		<path d="M371.9,91.1h-82.6c-2.4,0.1-4.2,2.1-4.2,4.4c0,1,0.4,2.1,1.2,2.8l24.1,24.1c0.8,0.8,0.8,2.2,0,2.9l0,0l-43.1,43.2
			c-1.7,1.6-1.7,4.3-0.1,6c1.6,1.7,4.3,1.7,6,0.1c0,0,0,0,0.1-0.1l47.7-47.7c1.6-1.6,1.6-4.4,0-6l-17.8-17.8c-0.8-0.8-0.8-2.2,0-2.9
			c0.4-0.4,0.9-0.6,1.6-0.6h60.9c1.1,0,2.1,0.9,2.1,2.1v60.9c0,0.9-0.5,1.6-1.3,1.9c-0.3,0.1-0.5,0.2-0.8,0.2
			c-0.5,0-1.1-0.3-1.5-0.6l-17.8-17.8c-1.6-1.6-4.4-1.6-6,0L292.6,194c-1.7,1.6-1.7,4.3-0.1,6s4.3,1.7,6,0.1c0,0,0,0,0.1-0.1
			l43.1-43.1c0.4-0.4,0.9-0.6,1.5-0.6c0.5,0,1.1,0.3,1.5,0.6l24.1,24.1c0.8,0.8,1.9,1.3,3,1.3c0.6,0,1.1-0.1,1.6-0.3
			c1.6-0.7,2.7-2.2,2.6-4V95.3C376.1,93,374.3,91.1,371.9,91.1z"/>
		<path d="M376.2,212.5v69.9c-0.1,2.4-2.1,4.2-4.4,4.2c-1,0-2.1-0.4-2.8-1.2l-21-21c-0.8-0.8-2.2-0.8-2.9,0l-40,40
			c-1.6,1.6-4.4,1.6-6,0s-1.6-4.4,0-6l44.5-44.4c1.6-1.6,4.4-1.6,6,0l14.6,14.6c0.8,0.8,2.2,0.8,2.9,0c0.4-0.4,0.6-0.9,0.6-1.5
			v-48.2c0-1.1-0.9-2.1-2.1-2.1l0,0h-48.2c-0.9,0-1.6,0.5-1.9,1.3c-0.1,0.3-0.2,0.5-0.2,0.8c0,0.5,0.3,1.1,0.6,1.5l14.6,14.6
			c1.6,1.6,1.6,4.4,0,6L305,266.4c-1.6,1.6-4.4,1.6-6,0c-0.8-0.8-1.2-1.9-1.2-3c0-1.1,0.4-2.2,1.3-3l21-21c0.8-0.8,0.8-2.2,0-2.9
			l-21-21c-1.6-1.6-1.7-4.3,0-6c0.8-0.8,1.9-1.3,3-1.3H372C374.2,208.3,376.1,210.2,376.2,212.5z"/>
		<path d="M197.7,100.9c-0.1,0.3-0.2,0.5-0.2,0.8c0,0.5,0.2,1.1,0.6,1.5l14.6,14.6c1.6,1.6,1.6,4.4,0,6l0,0l-44.5,44.5
			c-1.6,1.7-4.3,1.7-6,0.1c-1.7-1.6-1.7-4.3-0.1-6c0,0,0,0,0.1-0.1l40-40c0.8-0.8,0.8-2.2,0-2.9l0,0l-21-21c-1.6-1.6-1.6-4.4,0-6
			c0.8-0.8,1.9-1.2,3-1.2h69.9c2.4,0,4.3,1.9,4.3,4.3v69.9c-0.1,2.4-2.1,4.2-4.4,4.2c-1,0-2.1-0.4-2.8-1.2l-21-21
			c-0.8-0.8-2.2-0.8-2.9,0l0,0l-21,21c-1.6,1.7-4.3,1.7-6,0.1c-1.7-1.6-1.7-4.3-0.1-6c0,0,0,0,0.1-0.1l25.4-25.4
			c1.6-1.6,4.4-1.6,6,0l14.6,14.6c0.8,0.8,2.2,0.8,2.9,0c0.4-0.4,0.6-0.9,0.6-1.5v-48.2c0-1.1-0.9-2.1-2.1-2.1l0,0h-48.2
			C198.7,99.6,197.9,100.1,197.7,100.9z"/>
	</g>
	<g>
		<g>
			<path d="M134.2,194.6c7.8,0,15.1,1.7,21.9,5.1s12.4,8.8,16.7,16.2s6.5,17,6.5,28.5c0,21.7-4.8,39.1-14.6,51.8
				c-9.7,12.8-20.1,21.7-31,26.7s-18.3,7.5-22,7.5c-2.1,0-3.8-0.9-5.2-2.9c-1.4-2-2.5-4.2-3.3-6.8c-0.8-2.6-1.1-4.6-1.1-6.1
				c0-1.4,0.2-2.3,0.5-2.8c0.3-0.5,0.9-0.9,2-1.1c9.7-2.7,18.2-7.3,25.7-14c7.4-6.6,12.7-14.5,15.8-23.7c-5.9,3.2-12.2,4.7-19.1,4.7
				c-5.4,0-11-1.3-16.8-4c-5.7-2.7-10.6-7.1-14.7-13.1c-4.1-6-6.1-13.9-6.1-23.4c0-9.8,2.2-17.9,6.5-24.2c4.3-6.4,9.8-11,16.6-14.1
				C119.2,196,126.4,194.6,134.2,194.6 M135.1,255.4c4.6,0,9.6-1.6,15.1-4.6c0.1-1.9,0.2-4.8,0.2-8.8c0-8.9-1.5-15.4-4.5-19.3
				c-3-4-7-6-11.9-6c-4.6,0-8.5,1.8-11.6,5.5c-3.1,3.7-4.7,8.4-4.7,14.1c0,5.9,1.6,10.4,4.6,13.9
				C125.5,253.7,129.7,255.4,135.1,255.4 M134.2,187.7c-8.7,0-17,1.7-24.6,5.1c-7.9,3.5-14.5,9.1-19.5,16.5
				c-5.1,7.5-7.7,17-7.7,28.1c0,10.9,2.4,20.1,7.3,27.3c4.7,7.1,10.7,12.2,17.5,15.4c6.6,3.1,13.3,4.7,19.7,4.7
				c1.8,0,3.6-0.1,5.4-0.3c-1.9,2.5-4.1,4.9-6.6,7.2c-6.6,5.9-14.3,10-22.9,12.4c-2.8,0.7-4.8,2.2-6.1,4.1c-1,1.6-1.6,3.7-1.6,6.5
				c0,2.2,0.4,4.8,1.5,8.1c0.9,3.3,2.4,6.2,4.2,8.8c2.7,3.8,6.5,5.9,10.8,5.9c3.3,0,9.1-0.9,24.8-8.2c11.9-5.5,23.3-15.2,33.6-28.8
				c10.6-14,16-32.8,16-56.1c0-12.8-2.5-23.5-7.4-32c-5-8.6-11.6-15-19.6-19C151.4,189.6,143,187.7,134.2,187.7L134.2,187.7z
				 M135.1,248.5c-4.7,0-6.6-1.6-7.7-2.8c-1.9-2.1-2.8-5.1-2.8-9.2c0-4.1,1-7.2,3-9.7c1.8-2.2,3.7-3.1,6.3-3.1
				c2.8,0,4.7,0.9,6.5,3.2c1.1,1.6,3.1,5.5,3.1,15.1c0,1.8,0,3.3,0,4.5C140.5,247.9,137.6,248.5,135.1,248.5L135.1,248.5z"/>
		</g>
		<g>
			<path d="M237,194.3c9.4,0,17.5,2.7,24.2,8.1c6.7,5.4,11.9,13.3,15.5,23.5c3.6,10.3,5.4,22.5,5.4,36.7c0,14.2-1.8,26.5-5.4,36.7
				c-3.6,10.3-8.8,18.1-15.5,23.5c-6.7,5.4-14.8,8.1-24.2,8.1c-9.4,0-17.5-2.7-24.2-8.1c-6.7-5.4-11.9-13.3-15.5-23.5
				c-3.6-10.3-5.4-22.5-5.4-36.7c0-14.2,1.8-26.5,5.4-36.7c3.6-10.3,8.8-18.1,15.5-23.5C219.5,197.1,227.5,194.3,237,194.3
				 M237,308.7c5.3,0,9.5-3.9,12.3-11.6c2.8-7.8,4.3-19.2,4.3-34.4c0-15.2-1.5-26.6-4.3-34.4c-2.8-7.8-7-11.6-12.3-11.6
				s-9.5,3.9-12.3,11.6c-2.8,7.8-4.3,19.2-4.3,34.4c0,15.2,1.5,26.6,4.3,34.4C227.5,304.9,231.6,308.7,237,308.7 M237,187.4
				c-11,0-20.6,3.3-28.5,9.7c-7.8,6.2-13.7,15.2-17.8,26.6c-3.9,11-5.9,24.1-5.9,39.1c0,15,2,28.1,5.9,39.1
				c4.1,11.5,10,20.4,17.8,26.6c7.9,6.4,17.6,9.7,28.5,9.7s20.6-3.3,28.5-9.7c7.8-6.2,13.7-15.2,17.8-26.6c3.9-11,5.9-24.1,5.9-39.1
				c0-15-2-28.1-5.9-39.1c-4.1-11.4-10-20.4-17.8-26.6C257.5,190.7,247.9,187.4,237,187.4L237,187.4z M237,301.8
				c-2.7,0-4.7-3.9-5.9-7.2c-2.6-7-3.9-17.7-3.9-32c0-14.2,1.3-25,3.9-32c1.2-3.3,3.2-7.2,5.9-7.2s4.7,3.9,5.9,7.2
				c2.6,7,3.9,17.8,3.9,32c0,14.2-1.3,25-3.9,32C241.6,298,239.6,301.8,237,301.8L237,301.8z"/>
		</g>
	</g>
</g>
</svg>
