<?xml version="1.0" encoding="utf-8"?>
<!-- Generator: Adobe Illustrator 24.1.0, SVG Export Plug-In . SVG Version: 6.00 Build 0)  -->
<svg version="1.1" id="Layer_1" xmlns="http://www.w3.org/2000/svg" xmlns:xlink="http://www.w3.org/1999/xlink" x="0px" y="0px"
	 viewBox="0 0 450 450" style="enable-background:new 0 0 450 450;" xml:space="preserve">
<g>
	<path d="M220.8,403.8c-90.1,0-163.4-73.3-163.4-163.4c0-35.5,11.2-69.3,32.4-97.6c1.8-2.4,5.3-2.9,7.7-1.1c2.4,1.8,2.9,5.3,1.1,7.7
		c-19.8,26.5-30.2,57.9-30.2,91.1c0,84,68.4,152.4,152.4,152.4c37.9,0,73.9-13.9,102-39.1L103.6,134.4c-2.1-2.1-2.2-5.6-0.1-7.7
		c31-32,72.7-49.6,117.3-49.6c90.1,0,163.4,73.3,163.4,163.4c0,36.9-12,71.8-34.8,100.8c-1.9,2.4-5.3,2.8-7.7,0.9
		c-2.4-1.9-2.8-5.3-0.9-7.7c21.2-27,32.4-59.5,32.4-94c0-84-68.4-152.4-152.4-152.4c-39.8,0-77.1,15-105.6,42.5L333.7,349l0.6,0.4
		c1.2,1,2,2.5,2,4c0.1,1.6-0.5,3.1-1.7,4.2C304,387.4,263.6,403.8,220.8,403.8z"/>
</g>
<g>
	<path d="M129.6,275.5V223h-4.9c-0.8,0-1.4-0.3-1.8-0.9c-0.4-0.6-0.6-1.5-0.6-2.8v-1.5c0-1.3,0.2-2.2,0.6-2.8c0.4-0.6,1-0.9,1.8-0.9
		h4.9v-11.6c0-6.4,1.6-10.8,4.8-13.2c3.2-2.4,6.8-3.6,11-3.6c5.9,0,8.9,1.2,8.9,3.7c0,0.8-0.2,2-0.7,3.5c-0.5,1.5-1.1,2.3-1.8,2.3
		c-0.4,0-1-0.1-1.8-0.3c-0.8-0.2-1.9-0.3-3.5-0.3c-2.1,0-3.7,0.6-4.9,1.8c-1.1,1.2-1.7,3.6-1.7,7.3v10.6h10.6c0.9,0,1.5,0.3,1.9,0.9
		c0.4,0.6,0.5,1.5,0.5,2.8v1.5c0,1.3-0.2,2.2-0.5,2.8c-0.4,0.6-1,0.9-1.9,0.9h-10.6v52.6c0,1.8-1.6,2.7-4.9,2.7h-0.5
		C131.2,278.2,129.6,277.3,129.6,275.5z"/>
	<path d="M170.1,270.8c-4.9-5.3-7.3-13.4-7.3-24.3c0-10.8,2.4-19,7.2-24.6c4.8-5.6,11.9-8.4,21.2-8.4c8.3,0,14.6,2.7,18.8,8.1
		c4.2,5.4,6.3,13.3,6.3,23.7c0,0.7-0.5,1.8-1.5,3c-1,1.3-1.8,2-2.6,2h-38.6c0.5,6.8,2.2,11.7,5.2,14.9c3,3.2,7.5,4.8,13.5,4.8
		c3.4,0,6.4-0.4,8.8-1.3c2.5-0.9,4.5-1.7,6.2-2.6c1.6-0.9,2.6-1.3,2.8-1.3c0.8,0,1.7,0.8,2.7,2.4c1,1.6,1.5,2.8,1.5,3.7
		c0,1-1,2.1-3,3.4c-2,1.3-4.7,2.3-8.1,3.2c-3.4,0.9-7,1.3-10.8,1.3C182.5,278.7,175,276.1,170.1,270.8z M205.5,241.5
		c0-12.9-4.9-19.3-14.6-19.3c-10.5,0-16.2,6.4-17.1,19.3H205.5z"/>
	<path d="M234.6,270.8c-4.9-5.3-7.3-13.4-7.3-24.3c0-10.8,2.4-19,7.2-24.6c4.8-5.6,11.9-8.4,21.2-8.4c8.3,0,14.6,2.7,18.8,8.1
		c4.2,5.4,6.3,13.3,6.3,23.7c0,0.7-0.5,1.8-1.5,3c-1,1.3-1.8,2-2.6,2h-38.6c0.5,6.8,2.2,11.7,5.2,14.9c3,3.2,7.5,4.8,13.5,4.8
		c3.4,0,6.4-0.4,8.8-1.3c2.5-0.9,4.5-1.7,6.2-2.6c1.6-0.9,2.6-1.3,2.8-1.3c0.8,0,1.7,0.8,2.7,2.4c1,1.6,1.5,2.8,1.5,3.7
		c0,1-1,2.1-3,3.4c-2,1.3-4.7,2.3-8.1,3.2c-3.4,0.9-7,1.3-10.8,1.3C247,278.7,239.5,276.1,234.6,270.8z M270,241.5
		c0-12.9-4.9-19.3-14.6-19.3c-10.5,0-16.2,6.4-17.1,19.3H270z"/>
	<path d="M300.8,277.8c-3-0.9-5.3-1.9-7.1-3.1c-1.8-1.2-2.6-2.3-2.6-3.3c0-0.8,0.5-2,1.5-3.7c1-1.6,1.9-2.4,2.7-2.4
		c0.2,0,0.9,0.4,2.3,1.3c1.4,0.9,3.1,1.7,5.2,2.4c2.1,0.7,4.4,1.1,6.9,1.1c3.9,0,6.9-0.8,8.9-2.3c2-1.5,3-3.8,3-6.7s-1-5.2-3-6.7
		c-2-1.5-5.1-3-9.2-4.4c-3.5-1.1-6.4-2.4-8.8-3.7c-2.4-1.3-4.3-3.3-5.9-5.7c-1.5-2.5-2.3-5.7-2.3-9.6c0-3.4,0.9-6.5,2.6-9.2
		c1.7-2.7,4.1-4.8,7.2-6.3c3-1.5,6.5-2.3,10.4-2.3c4.1,0,7.9,0.5,11.2,1.6c3.3,1.1,4.9,2.3,4.9,3.7c0,1.1-0.5,2.4-1.4,4.1
		c-0.9,1.7-1.8,2.5-2.5,2.5c-0.2-0.1-1.3-0.6-3.2-1.6c-1.9-1-4.5-1.5-7.9-1.5c-3.2,0-5.8,0.7-7.8,2.2c-2,1.5-3,3.5-3,6
		c0,2.4,0.7,4.2,2,5.5c1.3,1.3,3.8,2.6,7.5,3.8c6.3,2.1,11.2,4.7,14.5,7.7c3.3,3,5,7.3,5,12.9c0,3.6-1,6.8-2.9,9.7
		c-1.9,2.9-4.5,5.2-7.8,6.8s-6.9,2.5-10.9,2.5C307,279.1,303.8,278.7,300.8,277.8z"/>
</g>
</svg>
