<?xml version="1.0" encoding="utf-8"?>
<!-- Generator: Adobe Illustrator 24.1.0, SVG Export Plug-In . SVG Version: 6.00 Build 0)  -->
<svg version="1.1" id="Layer_1" xmlns="http://www.w3.org/2000/svg" xmlns:xlink="http://www.w3.org/1999/xlink" x="0px" y="0px"
	 viewBox="0 0 450 450" style="enable-background:new 0 0 450 450;" xml:space="preserve">
<g>
	<path d="M111.2,266.8l7.3-1.3c-1-5.5-1.6-10.7-1.8-15.8h12.8c0.2,5.7,1,11.5,2.2,17.3l7.3-1.6c-1.1-5.2-1.8-10.5-2.1-15.7h6.6h21.9
		v-7.5h-21.9h-10.4H69.3v7.5h40C109.5,255.1,110.1,260.8,111.2,266.8z"/>
	<path d="M316,168.5l14.7-16.1l-7.6-7l6.8-7.4l-5.5-5l-6.8,7.4l-7.8-7.1l-14.8,16.2c-15.5-11-33.8-18.3-53.6-20.6v-14.3h10.4V86.2
		h-49.3v28.4H213v14.3c-34.4,4.1-65.3,23.2-84.6,52.7l6.3,4.1c20.5-31.4,55.1-50.2,92.5-50.2c60.9,0,110.5,49.6,110.5,110.5
		c0,60.9-49.6,110.5-110.5,110.5c-37.5,0-72.2-18.9-92.7-50.5c-3-4.6-5.6-9.4-7.9-14.4h14.3c3.6,6.8,8,13.2,13.1,18.9
		c18.6,21.1,45.3,33.2,73.2,33.2c53.9,0,97.7-43.8,97.7-97.7c0-53.9-43.8-97.7-97.7-97.7c-18.7,0-36.8,5.3-52.5,15.3
		c-8.5,5.4-16,12-22.5,19.7l5.7,4.8c6-7.1,12.9-13.3,20.7-18.2c13.2-8.4,28.3-13.2,43.9-14v7.4h7.5v-7.5
		c47.1,1.5,85.3,39.4,87.2,86.4h-8.2v7.5h8.2c-1.9,47-40,84.9-87.2,86.4v-7.5h-7.5v7.4c-24.2-1.2-47-12.2-63.1-30.6
		c-3.8-4.3-7.2-9-10.1-14h16.2V284h-20.1h-30H91.4v7.5h27c2.7,6.5,6,12.7,9.8,18.5c21.9,33.7,58.9,53.9,98.9,53.9
		c65,0,117.9-52.9,117.9-117.9C345.1,216.3,334.1,189.2,316,168.5z M210,107.1V93.6h34.3v13.4h-3H213H210z M220.4,128v-13.4h13.4
		V128H220.4z M300.9,154l9.3-10.2l9.9,9.1l-9.2,10.1C307.8,159.8,304.4,156.8,300.9,154z"/>
	<path d="M111.2,225l7.3,1.3c1.1-6.3,2.8-12.5,5-18.5h13.7c-1.5,3.5-2.8,7.1-3.9,10.8c-0.4,1.4-0.7,2.8-1,4.2l-0.4,2l7.3,1.6
		l0.4-2.2c0.2-1.2,0.5-2.4,0.8-3.5c1.3-4.4,2.9-8.7,4.9-12.9h20.2v-7.5h-63.7v7.5h13.8C113.7,213.4,112.2,219.2,111.2,225z"/>
	<rect x="48.4" y="242.2" width="10.4" height="7.5"/>
	<rect x="70.5" y="284" width="10.4" height="7.5"/>
	<rect x="80.9" y="200.4" width="10.5" height="7.5"/>
	<path d="M277.1,190.9l-42.8,42.8c-2.1-1.2-4.5-2-7.1-2c-7.8,0-14.2,6.4-14.2,14.2c0,7.8,6.4,14.2,14.2,14.2
		c7.8,0,14.2-6.4,14.2-14.2c0-2.5-0.7-4.9-1.8-6.9l42.8-42.8L277.1,190.9z M227.2,252.6c-3.7,0-6.7-3-6.7-6.7c0-3.7,3-6.7,6.7-6.7
		c3.7,0,6.7,3,6.7,6.7C233.9,249.6,230.9,252.6,227.2,252.6z"/>
</g>
</svg>
