<?xml version="1.0" encoding="utf-8"?>
<!-- Generator: Adobe Illustrator 24.1.0, SVG Export Plug-In . SVG Version: 6.00 Build 0)  -->
<svg version="1.1" id="Layer_1" xmlns="http://www.w3.org/2000/svg" xmlns:xlink="http://www.w3.org/1999/xlink" x="0px" y="0px"
	 viewBox="0 0 450 450" style="enable-background:new 0 0 450 450;" xml:space="preserve">
<g>
	<g>
		<path d="M238.2,313.3c-0.4,0-0.8-0.1-1.2-0.2l-20.4-5.9l-20.5,5.9c-1.4,0.4-3,0.1-4.1-0.9l-16.3-13.8l-21-3.1
			c-1.5-0.2-2.8-1.1-3.4-2.5l-9.4-19.3l-18-11.5c-1.2-0.8-2-2.2-2.1-3.6l-0.8-21.5L109,219.1c-0.8-1.2-1-2.8-0.4-4.1l7.9-20
			l-3.6-21.2c-0.2-1.5,0.2-2.9,1.3-4l15.3-15l5.2-20.9c0.4-1.4,1.4-2.6,2.8-3.1l20-7.4l13.1-16.9c0.9-1.2,2.4-1.8,3.9-1.7l21.2,1.4
			l18.8-10c1.3-0.7,2.9-0.7,4.2,0l18.8,10l21.2-1.4c1.5-0.1,2.9,0.5,3.9,1.7l13.1,16.9l20,7.4c1.4,0.5,2.4,1.7,2.8,3.1l5.2,20.9
			l15.3,15c1.1,1,1.5,2.5,1.3,4l-3.6,21.2l7.9,20c0.5,1.4,0.4,2.9-0.4,4.1L312.1,237l-0.8,21.5c-0.1,1.5-0.8,2.8-2.1,3.6l-18,11.5
			l-9.4,19.3c-0.7,1.3-1.9,2.3-3.4,2.5l-21,3.1l-16.3,13.8C240.2,312.9,239.2,313.3,238.2,313.3z M158.2,286.9l20,2.9
			c0.8,0.1,1.6,0.5,2.3,1l15.5,13.1l19.4-5.6c0.8-0.2,1.7-0.2,2.5,0l19.4,5.6l15.5-13.1c0.6-0.5,1.4-0.9,2.3-1l20-2.9l8.9-18.3
			c0.4-0.8,0.9-1.4,1.6-1.8l17.1-10.9l0.8-20.4c0-0.8,0.3-1.6,0.7-2.3l11.3-17l-7.5-19c-0.3-0.8-0.4-1.6-0.3-2.4l3.4-20.2
			l-14.5-14.2c-0.6-0.6-1-1.3-1.2-2.1l-4.9-19.8l-18.9-7c-0.8-0.3-1.5-0.8-2-1.5l-12.5-16l-20.1,1.4c-0.8,0.1-1.7-0.1-2.4-0.5
			l-17.8-9.5l-17.8,9.5c-0.7,0.4-1.6,0.6-2.4,0.5l-20.1-1.4l-12.5,16c-0.5,0.7-1.2,1.2-2,1.5l-18.9,7l-4.9,19.8
			c-0.2,0.8-0.6,1.5-1.2,2.1l-14.5,14.2l3.4,20.2c0.1,0.8,0.1,1.6-0.3,2.4l-7.5,19l11.3,17c0.5,0.7,0.7,1.5,0.7,2.3l0.8,20.4
			l17.1,10.9c0.7,0.4,1.3,1.1,1.6,1.8L158.2,286.9z M216.5,282.5c-43.1,0-78.2-35.1-78.2-78.2c0-43.1,35.1-78.2,78.2-78.2
			c43.1,0,78.2,35.1,78.2,78.2C294.7,247.4,259.6,282.5,216.5,282.5z M216.5,135c-38.2,0-69.2,31-69.2,69.2
			c0,38.2,31.1,69.2,69.2,69.2c38.2,0,69.2-31.1,69.2-69.2C285.7,166.1,254.6,135,216.5,135z"/>
	</g>
	<g>
		<path d="M246.2,250.8c-0.7,0-1.4-0.2-2.1-0.5l-27.6-14.5l-27.6,14.5c-1.5,0.8-3.4,0.7-4.7-0.3s-2.1-2.7-1.8-4.4l5.3-30.8
			L165.2,193c-1.2-1.2-1.7-3-1.1-4.6c0.5-1.6,1.9-2.8,3.6-3.1l30.9-4.5l13.8-28c0.8-1.5,2.3-2.5,4-2.5s3.3,1,4,2.5l13.8,28l30.9,4.5
			c1.7,0.2,3.1,1.4,3.6,3.1c0.5,1.6,0.1,3.4-1.1,4.6l-22.4,21.8l5.3,30.8c0.3,1.7-0.4,3.4-1.8,4.4
			C248.1,250.6,247.1,250.8,246.2,250.8z M178,193l17.5,17.1c1.1,1,1.5,2.5,1.3,4l-4.1,24.1l21.7-11.4c1.3-0.7,2.9-0.7,4.2,0
			l21.6,11.4l-4.1-24.1c-0.2-1.5,0.2-2.9,1.3-4l17.5-17.1l-24.2-3.5c-1.5-0.2-2.7-1.1-3.4-2.5L216.5,165L205.7,187
			c-0.7,1.3-1.9,2.2-3.4,2.5L178,193z"/>
	</g>
	<g>
		<path d="M161.2,368.6c-0.1,0-0.3,0-0.4,0c-1.6-0.1-3-1.1-3.7-2.5l-16.9-35.2l-29.9,1.5c-1.7,0.1-3.3-0.8-4.2-2.3
			c-0.8-1.5-0.7-3.4,0.3-4.8l37.5-52.6c1.4-2,4.3-2.5,6.3-1.1c2,1.4,2.5,4.3,1.1,6.3l-32.1,45l23.6-1.2c1.8-0.1,3.5,0.9,4.3,2.5
			l14.9,31l36.7-51.2c1.4-2,4.3-2.5,6.3-1c2,1.4,2.5,4.3,1,6.3l-41.1,57.4C164,367.9,162.6,368.6,161.2,368.6z"/>
	</g>
	<g>
		<path d="M271.7,368.6c-1.4,0-2.8-0.7-3.7-1.9L227,309.3c-1.4-2-1-4.8,1-6.3c2-1.4,4.8-1,6.3,1l36.7,51.2l14.9-31
			c0.8-1.6,2.5-2.6,4.3-2.5l23.6,1.2l-32.1-45c-1.4-2-1-4.8,1.1-6.3s4.8-1,6.3,1.1l37.5,52.6c1,1.4,1.1,3.3,0.3,4.8
			c-0.8,1.5-2.4,2.4-4.2,2.3l-29.9-1.5L275.8,366c-0.7,1.4-2.1,2.4-3.7,2.5C272,368.6,271.9,368.6,271.7,368.6z"/>
	</g>
</g>
</svg>
