<?xml version="1.0" encoding="utf-8"?>
<!-- Generator: Adobe Illustrator 24.1.0, SVG Export Plug-In . SVG Version: 6.00 Build 0)  -->
<svg version="1.1" id="Layer_1" xmlns="http://www.w3.org/2000/svg" xmlns:xlink="http://www.w3.org/1999/xlink" x="0px" y="0px"
	 viewBox="0 0 450 450" style="enable-background:new 0 0 450 450;" xml:space="preserve">
<g>
	<g>
		<path d="M158.3,86.4c-2.4,0-4.4,2-4.4,4.4s2,4.4,4.4,4.4h25v42.6c0,20.5,5.8,38.3,17.3,52.9l0.3,0.4V217l-52.7,20
			c-4.9,2-8.5,6.3-9.7,11.6l-19.4,96.7c-1.2,4.9,0,10,3.1,13.9c3.1,3.9,7.7,6.1,12.7,6.1h187.8c5,0,9.6-2.2,12.7-6.1
			c3.1-3.9,4.3-8.9,3.1-13.7l0,0L319,248.4c-1.2-5.1-4.9-9.4-9.8-11.4l-52.5-20v-25.9l0.3-0.4c11.5-14.6,17.3-32.4,17.3-52.9V95.2
			h20.6v42.6c0,2.4,2,4.4,4.4,4.4s4.4-2,4.4-4.4v-47c0-2.4-2-4.4-4.4-4.4H158.3z M322.7,356.7h-89.5V245.4l20.2-20.2l52.6,20
			c2.3,0.9,4,2.9,4.5,5.1l19.5,97.2c0.5,2.2,0,4.6-1.5,6.4l0,0C327.1,355.7,325,356.7,322.7,356.7z M224.4,356.7h-89.5
			c-2.3,0-4.4-1-5.8-2.8c-1.5-1.9-2-4.2-1.4-6.7l19.4-96.7c0.6-2.4,2.2-4.4,4.4-5.3l52.8-20l20.2,20.2V356.7z M228.8,237.4
			l-19.1-19.1v-17.7l2.5,2.1c8,6.7,14.6,9.6,14.9,9.7c1.1,0.5,2.4,0.5,3.5,0c0.3-0.1,6.9-3.1,14.9-9.7l2.5-2.1v17.7L228.8,237.4z
			 M228.8,203.4l-0.7-0.4c-8.5-4.7-36-23.4-36-65.4v-7.2h73.5v7.4c0,42.2-27.6,60.6-36,65.2L228.8,203.4z M265.5,121.7H192V95.2
			h73.5V121.7z"/>
	</g>
	<g>
		<circle cx="205.3" cy="284.7" r="5.9"/>
	</g>
	<g>
		<circle cx="205.3" cy="308.2" r="5.9"/>
	</g>
	<g>
		<circle cx="205.3" cy="261.2" r="5.9"/>
	</g>
	<g>
		<circle cx="205.3" cy="331.7" r="5.9"/>
	</g>
</g>
</svg>
