<?xml version="1.0" encoding="utf-8"?>
<!-- Generator: Adobe Illustrator 24.1.0, SVG Export Plug-In . SVG Version: 6.00 Build 0)  -->
<svg version="1.1" id="Layer_1" xmlns="http://www.w3.org/2000/svg" xmlns:xlink="http://www.w3.org/1999/xlink" x="0px" y="0px"
	 viewBox="0 0 450 450" style="enable-background:new 0 0 450 450;" xml:space="preserve">
<g>
	<g>
		<path d="M93.6,113.3c-2.2,0-4.1,1.8-4.1,4.1v248.5c0,2.2,1.8,4.1,4.1,4.1h278.8c2.2,0,4.1-1.8,4.1-4.1V117.4
			c0-2.2-1.8-4.1-4.1-4.1h-26.2V99.2c0-8.9-7.3-16.2-16.2-16.2s-16.2,7.3-16.2,16.2v14.1h-16.1V99.2c0-8.9-7.3-16.2-16.2-16.2
			s-16.2,7.3-16.2,16.2v14.1h-16.1V99.2c0-8.9-7.3-16.2-16.2-16.2s-16.2,7.3-16.2,16.2v14.1h-16.1V99.2c0-8.9-7.3-16.2-16.2-16.2
			s-16.2,7.3-16.2,16.2v14.1h-16.1V99.2c0-8.9-7.3-16.2-16.2-16.2s-16.2,7.3-16.2,16.2v14.1H93.6z M368.3,361.8H97.6V121.5h22.2
			v14.1c0,8.9,7.3,16.2,16.2,16.2s16.2-7.3,16.2-16.2v-14.1h16.1v14.1c0,8.9,7.3,16.2,16.2,16.2s16.2-7.3,16.2-16.2v-14.1h16.1v14.1
			c0,8.9,7.3,16.2,16.2,16.2s16.2-7.3,16.2-16.2v-14.1h16.1v14.1c0,8.9,7.3,16.2,16.2,16.2s16.2-7.3,16.2-16.2v-14.1h16.1v14.1
			c0,8.9,7.3,16.2,16.2,16.2s16.2-7.3,16.2-16.2v-14.1h22.2V361.8z M329.9,143.6c-4.4,0-8.1-3.6-8.1-8.1V99.2c0-4.4,3.6-8.1,8.1-8.1
			s8.1,3.6,8.1,8.1v36.4C338,140,334.4,143.6,329.9,143.6z M281.4,143.6c-4.4,0-8.1-3.6-8.1-8.1V99.2c0-4.4,3.6-8.1,8.1-8.1
			s8.1,3.6,8.1,8.1v36.4C289.5,140,285.9,143.6,281.4,143.6z M232.9,143.6c-4.4,0-8.1-3.6-8.1-8.1V99.2c0-4.4,3.6-8.1,8.1-8.1
			s8.1,3.6,8.1,8.1v36.4C241,140,237.4,143.6,232.9,143.6z M184.5,143.6c-4.4,0-8.1-3.6-8.1-8.1V99.2c0-4.4,3.6-8.1,8.1-8.1
			s8.1,3.6,8.1,8.1v36.4C192.5,140,188.9,143.6,184.5,143.6z M136,143.6c-4.4,0-8.1-3.6-8.1-8.1V99.2c0-4.4,3.6-8.1,8.1-8.1
			s8.1,3.6,8.1,8.1v36.4C144,140,140.4,143.6,136,143.6z"/>
	</g>
	<g>
		<path d="M148.1,190.1h-24.2c-3.3,0-6.1,2.7-6.1,6.1v24.2c0,3.3,2.7,6.1,6.1,6.1h24.2c3.3,0,6.1-2.7,6.1-6.1v-24.2
			C154.2,192.8,151.4,190.1,148.1,190.1z"/>
	</g>
	<g>
		<path d="M196.6,190.1h-24.2c-3.3,0-6.1,2.7-6.1,6.1v24.2c0,3.3,2.7,6.1,6.1,6.1h24.2c3.3,0,6.1-2.7,6.1-6.1v-24.2
			C202.6,192.8,199.9,190.1,196.6,190.1z"/>
	</g>
	<g>
		<path d="M245.1,190.1h-24.2c-3.3,0-6.1,2.7-6.1,6.1v24.2c0,3.3,2.7,6.1,6.1,6.1h24.2c3.3,0,6.1-2.7,6.1-6.1v-24.2
			C251.1,192.8,248.4,190.1,245.1,190.1z"/>
	</g>
	<g>
		<path d="M293.6,190.1h-24.2c-3.3,0-6.1,2.7-6.1,6.1v24.2c0,3.3,2.7,6.1,6.1,6.1h24.2c3.3,0,6.1-2.7,6.1-6.1v-24.2
			C299.6,192.8,296.9,190.1,293.6,190.1z"/>
	</g>
	<g>
		<path d="M342,190.1h-24.2c-3.3,0-6.1,2.7-6.1,6.1v24.2c0,3.3,2.7,6.1,6.1,6.1H342c3.3,0,6.1-2.7,6.1-6.1v-24.2
			C348.1,192.8,345.4,190.1,342,190.1z"/>
	</g>
	<g>
		<path d="M148.1,238.6h-24.2c-3.3,0-6.1,2.7-6.1,6.1v24.2c0,3.3,2.7,6.1,6.1,6.1h24.2c3.3,0,6.1-2.7,6.1-6.1v-24.2
			C154.2,241.3,151.4,238.6,148.1,238.6z"/>
	</g>
	<g>
		<path d="M196.6,238.6h-24.2c-3.3,0-6.1,2.7-6.1,6.1v24.2c0,3.3,2.7,6.1,6.1,6.1h24.2c3.3,0,6.1-2.7,6.1-6.1v-24.2
			C202.6,241.3,199.9,238.6,196.6,238.6z"/>
	</g>
	<g>
		<path d="M245.1,238.6h-24.2c-3.3,0-6.1,2.7-6.1,6.1v24.2c0,3.3,2.7,6.1,6.1,6.1h24.2c3.3,0,6.1-2.7,6.1-6.1v-24.2
			C251.1,241.3,248.4,238.6,245.1,238.6z"/>
	</g>
	<g>
		<path d="M293.6,238.6h-24.2c-3.3,0-6.1,2.7-6.1,6.1v24.2c0,3.3,2.7,6.1,6.1,6.1h24.2c3.3,0,6.1-2.7,6.1-6.1v-24.2
			C299.6,241.3,296.9,238.6,293.6,238.6z"/>
	</g>
	<g>
		<path d="M342,238.6h-24.2c-3.3,0-6.1,2.7-6.1,6.1v24.2c0,3.3,2.7,6.1,6.1,6.1H342c3.3,0,6.1-2.7,6.1-6.1v-24.2
			C348.1,241.3,345.4,238.6,342,238.6z"/>
	</g>
	<g>
		<path d="M148.1,287.1h-24.2c-3.3,0-6.1,2.7-6.1,6.1v24.2c0,3.3,2.7,6.1,6.1,6.1h24.2c3.3,0,6.1-2.7,6.1-6.1v-24.2
			C154.2,289.8,151.4,287.1,148.1,287.1z"/>
	</g>
	<g>
		<path d="M196.6,287.1h-24.2c-3.3,0-6.1,2.7-6.1,6.1v24.2c0,3.3,2.7,6.1,6.1,6.1h24.2c3.3,0,6.1-2.7,6.1-6.1v-24.2
			C202.6,289.8,199.9,287.1,196.6,287.1z"/>
	</g>
	<g>
		<path d="M245.1,287.1h-24.2c-3.3,0-6.1,2.7-6.1,6.1v24.2c0,3.3,2.7,6.1,6.1,6.1h24.2c3.3,0,6.1-2.7,6.1-6.1v-24.2
			C251.1,289.8,248.4,287.1,245.1,287.1z"/>
	</g>
	<g>
		<path d="M293.6,287.1h-24.2c-3.3,0-6.1,2.7-6.1,6.1v24.2c0,3.3,2.7,6.1,6.1,6.1h24.2c3.3,0,6.1-2.7,6.1-6.1v-24.2
			C299.6,289.8,296.9,287.1,293.6,287.1z"/>
	</g>
</g>
</svg>
