<?xml version="1.0" encoding="utf-8"?>
<!-- Generator: Adobe Illustrator 24.1.0, SVG Export Plug-In . SVG Version: 6.00 Build 0)  -->
<svg version="1.1" id="Layer_1" xmlns="http://www.w3.org/2000/svg" xmlns:xlink="http://www.w3.org/1999/xlink" x="0px" y="0px"
	 viewBox="0 0 450 450" style="enable-background:new 0 0 450 450;" xml:space="preserve">
<g>
	<g>
		<g>
			<path d="M360.9,70.7h-95.8c-2,0-3.8,1.2-4.6,3.1c-0.8,1.9-0.3,4,1.1,5.4l27.9,27.9c0.5,0.5,0.7,1.1,0.7,1.7
				c0,0.6-0.3,1.3-0.7,1.7l-50,50c-1.9,1.9-1.9,5.1,0,7c0.9,0.9,2.2,1.4,3.5,1.4c1.3,0,2.6-0.5,3.5-1.4l55.3-55.3
				c1.9-1.9,1.9-5.1,0-7l-20.6-20.6c-0.7-0.7-0.9-1.7-0.5-2.6c0.4-0.9,1.3-1.5,2.2-1.5h70.6c1.3,0,2.4,1.1,2.4,2.4v70.6
				c0,1-0.6,1.9-1.5,2.2c-0.3,0.1-0.6,0.2-0.9,0.2c-0.6,0-1.2-0.2-1.7-0.7l-20.6-20.6c-0.9-0.9-2.2-1.5-3.5-1.5
				c-1.3,0-2.6,0.5-3.5,1.5L269,190c-1.9,1.9-1.9,5.1,0,7c0.9,0.9,2.2,1.5,3.5,1.5c1.3,0,2.6-0.5,3.5-1.5l50-50
				c0.5-0.5,1.1-0.7,1.7-0.7c0.6,0,1.2,0.2,1.7,0.7l27.9,27.9c0.9,0.9,2.2,1.5,3.5,1.5c0.6,0,1.3-0.1,1.9-0.4
				c1.9-0.8,3.1-2.6,3.1-4.6V75.6C365.9,72.9,363.7,70.7,360.9,70.7z"/>
		</g>
		<g>
			<path d="M365.9,211.5v81c0,2-1.2,3.8-3.1,4.6c-1.9,0.8-4,0.3-5.4-1.1l-24.3-24.3c-0.9-0.9-2.5-0.9-3.4,0l-46.4,46.4
				c-1.9,1.9-5.1,1.9-7,0c-0.9-0.9-1.5-2.2-1.5-3.5c0-1.3,0.5-2.6,1.5-3.5l51.6-51.6c1.9-1.9,5.1-1.9,7,0l16.9,16.9
				c0.7,0.7,1.7,0.9,2.6,0.5c0.9-0.4,1.5-1.3,1.5-2.2v-55.9c0-1.3-1.1-2.4-2.4-2.4h-55.9c-1,0-1.9,0.6-2.2,1.5
				c-0.1,0.3-0.2,0.6-0.2,0.9c0,0.6,0.2,1.2,0.7,1.7l16.9,16.9c0.9,0.9,1.5,2.2,1.5,3.5c0,1.3-0.5,2.6-1.5,3.5l-29.5,29.5
				c-1.9,1.9-5.1,1.9-7,0c-0.9-0.9-1.5-2.2-1.5-3.5c0-1.3,0.5-2.6,1.5-3.5l24.3-24.3c0.5-0.5,0.7-1.1,0.7-1.7c0-0.6-0.2-1.2-0.7-1.7
				L276.4,215c-0.9-0.9-1.5-2.2-1.5-3.5c0-0.7,0.1-1.3,0.4-1.9c0.8-1.9,2.6-3.1,4.6-3.1h81C363.7,206.5,365.9,208.7,365.9,211.5z"/>
		</g>
		<g>
			<path d="M158.9,82.1c-0.1,0.3-0.2,0.6-0.2,0.9c0,0.6,0.2,1.2,0.7,1.7l16.9,16.9c0.9,0.9,1.5,2.2,1.5,3.5c0,1.3-0.5,2.6-1.5,3.5
				l-51.6,51.6c-1.9,1.9-5.1,1.9-7,0c-0.9-0.9-1.5-2.2-1.5-3.5s0.5-2.6,1.5-3.5l46.4-46.4c0.5-0.5,0.7-1.1,0.7-1.7
				c0-0.6-0.3-1.3-0.7-1.7l-24.3-24.3c-0.9-0.9-1.5-2.2-1.5-3.5c0-0.6,0.1-1.3,0.4-1.9c0.8-1.9,2.6-3.1,4.6-3.1h81
				c2.7,0,5,2.2,5,4.9v81c0,2-1.2,3.8-3.1,4.6c-1.9,0.8-4,0.3-5.4-1.1l-24.3-24.3c-0.9-0.9-2.5-0.9-3.4,0l-24.3,24.3
				c-1.9,1.9-5.1,1.9-7,0c-0.9-0.9-1.5-2.2-1.5-3.5c0-1.3,0.5-2.6,1.5-3.5l29.5-29.5c1.9-1.9,5.1-1.9,7,0l16.9,16.9
				c0.7,0.7,1.7,0.9,2.6,0.5c0.9-0.4,1.5-1.3,1.5-2.2V83c0-1.3-1.1-2.4-2.4-2.4h-55.9C160.1,80.6,159.2,81.2,158.9,82.1z"/>
		</g>
	</g>
	<g>
		<g>
			<path d="M200.6,355.3H95.5c-8.1,0-14.6-6.6-14.6-14.6v-128c0-1.3,0.5-2.5,1.4-3.4l26.3-26.3c0.9-0.9,2.1-1.4,3.4-1.4h88.6
				c8.1,0,14.6,6.6,14.6,14.6v144.5C215.2,348.7,208.6,355.3,200.6,355.3z M90.4,214.6v126.1c0,2.8,2.3,5.1,5.1,5.1h105.1
				c2.8,0,5.1-2.3,5.1-5.1V196.2c0-2.8-2.3-5.1-5.1-5.1h-86.7L90.4,214.6z"/>
		</g>
		<g>
			<path d="M118.5,223.9H98.8c-2.6,0-4.8-2.1-4.8-4.8c0-2.6,2.1-4.8,4.8-4.8h14.9v-14.9c0-2.6,2.1-4.8,4.8-4.8s4.8,2.1,4.8,4.8v19.7
				C123.3,221.8,121.1,223.9,118.5,223.9z"/>
		</g>
		<g>
			<path d="M233.4,381.5H128.3c-8.1,0-14.6-6.6-14.6-14.6c0-2.6,2.1-4.8,4.8-4.8s4.8,2.1,4.8,4.8c0,2.8,2.3,5.1,5.1,5.1h105.1
				c2.8,0,5.1-2.3,5.1-5.1V222.5c0-2.8-2.3-5.1-5.1-5.1h-6.6c-2.6,0-4.8-2.1-4.8-4.8c0-2.6,2.1-4.8,4.8-4.8h6.6
				c8.1,0,14.6,6.6,14.6,14.6v144.5C248,375,241.5,381.5,233.4,381.5z"/>
		</g>
		<g>
			<path d="M180.9,312.6h-65.7c-2.6,0-4.8-2.1-4.8-4.8c0-2.6,2.1-4.8,4.8-4.8h65.7c2.6,0,4.8,2.1,4.8,4.8
				C185.6,310.4,183.5,312.6,180.9,312.6z"/>
		</g>
		<g>
			<path d="M180.9,279.7h-65.7c-2.6,0-4.8-2.1-4.8-4.8c0-2.6,2.1-4.8,4.8-4.8h65.7c2.6,0,4.8,2.1,4.8,4.8
				C185.6,277.6,183.5,279.7,180.9,279.7z"/>
		</g>
		<g>
			<path d="M180.9,246.9H148c-2.6,0-4.8-2.1-4.8-4.8c0-2.6,2.1-4.8,4.8-4.8h32.8c2.6,0,4.8,2.1,4.8,4.8
				C185.6,244.8,183.5,246.9,180.9,246.9z"/>
		</g>
	</g>
</g>
</svg>
