<?xml version="1.0" encoding="utf-8"?>
<!-- Generator: Adobe Illustrator 24.1.0, SVG Export Plug-In . SVG Version: 6.00 Build 0)  -->
<svg version="1.1" id="Layer_1" xmlns="http://www.w3.org/2000/svg" xmlns:xlink="http://www.w3.org/1999/xlink" x="0px" y="0px"
	 viewBox="0 0 450 450" style="enable-background:new 0 0 450 450;" xml:space="preserve">
<g>
	<path d="M343.2,112.3c-2.1-2.2-5.5-2.3-7.7-0.2l-78.8,72.8c-0.7-0.6-1.4-1.1-2.1-1.6c-5.6-3.8-12.2-4.8-20.3-4.8h-29.2
		c-2.8,0-4.9,2.2-4.9,4.8V237l-18.1,16.7v-28.6c0-2.7-1.5-4.8-4.5-4.8h-27.4c-2.3,0-4.1,2-4.1,4.3c0,2.4,1.8,4.4,4.1,4.4h22.4v17.8
		c-5.5,4-13.7,7.3-23.2,7.3c-18.4,0-33.1-13.3-33.1-34.2c0-18.4,14.9-33.8,33.1-33.8c4.9,0,8.7,0.7,11.8,1.8c6,2.1,7.7,4,10.1,4
		s4.5-1.8,4.5-4.5c0-2.8-2.4-4.6-6-6.1c-5.6-2.3-11.7-4-20.4-4c-23.8,0-43.3,19.2-43.3,42.6c0,27.6,19.2,42.8,42.8,42.8
		c9.8,0,17.9-2.9,23.5-6.7v2c0,1.3,0.4,2.5,1.2,3.3l-66.1,61.1C83.7,293.5,71.1,256.6,72.7,219C76.1,135,147.1,69.4,231,72.8
		c32.8,1.2,64.3,13.1,89.8,33.8c2.3,1.8,5.6,1.4,7.5-0.8c2-2.3,1.7-5.8-0.6-7.8c-27.3-22.2-61.1-34.9-96.3-36.2
		c-90-3.6-166.1,66.8-169.7,156.8C60,261,74.9,302.5,103.3,334.1c0.1,0.2,0.3,0.3,0.5,0.5c2.3,2,5.8,1.8,7.8-0.5l0.5-0.5l88.3-81.5
		v6.1c0,2.6,2.1,4.8,4.9,4.8c2.7,0,4.9-2.2,4.9-4.8v-15.1l15-13.8h6.5l23.8,31.4c1,1.3,2.4,2.3,4.1,2.3c2.8,0,5-2.3,5-4.9
		c0-1.1-0.5-2.3-1.3-3.3l-20.4-26c4.3-0.7,8.2-2.1,12-4.9c6-4.4,9.8-10.9,9.8-19.9c0-3.7-0.5-6.9-1.5-9.8l76-70.2
		c26.2,29.4,40,67.8,38.3,107.1c-3.3,84-74.3,149.6-158.3,146.2c-34.1-1.2-66.7-14-92.6-36.1c-2.3-2-5.8-1.7-7.8,0.6
		c-2,2.3-1.7,5.8,0.6,7.8c27.8,23.8,62.8,37.4,99.3,38.7c90,3.6,166.1-66.8,169.7-156.8C390.1,187.2,373.9,144.2,343.2,112.3z
		 M210.1,220.9v-34.2h23.2c5.5,0,10.2,0.5,14.3,2.9c0.8,0.5,1.5,1,2.2,1.6l-32,29.6H210.1z M254.5,203.8c0,7.3-2.9,11.7-7.2,14.3
		c-3.8,2.2-8.2,2.7-13.4,2.8l20.5-18.9C254.4,202.6,254.5,203.2,254.5,203.8z"/>
	<path d="M335.8,187.1c2.3,0,4.1-2,4.1-4.4c0-2.3-1.8-4.3-4.1-4.3h-51.4c-2.8,0-4.9,2.2-4.9,4.8v73.6c0,2.6,2.1,4.8,4.9,4.8h51.4
		c2.3,0,4.1-2,4.1-4.3c0-2.4-1.8-4.4-4.1-4.4h-46.5v-28.7h40.1c2.4,0,4.3-2,4.3-4.3c0-2.3-1.8-4.4-4.3-4.4h-40.1v-28.4H335.8z"/>
</g>
</svg>
