<?xml version="1.0" encoding="utf-8"?>
<!-- Generator: Adobe Illustrator 24.1.0, SVG Export Plug-In . SVG Version: 6.00 Build 0)  -->
<svg version="1.1" id="Layer_1" xmlns="http://www.w3.org/2000/svg" xmlns:xlink="http://www.w3.org/1999/xlink" x="0px" y="0px"
	 viewBox="0 0 450 450" style="enable-background:new 0 0 450 450;" xml:space="preserve">
<g>
	<g>
		<path d="M132.8,112c-1.6,0-3.2,0.6-4.4,1.8l-89.3,86.8c-1.7,1.6-2.6,3.8-2.6,6.1c0,2.3,0.9,4.4,2.6,6.1l89.3,86.8
			c1.8,1.7,4.4,2.2,6.8,1.3c2.3-0.9,3.8-3.1,3.8-5.6v-41.8h70.5c3.4,0,6.2-2.7,6.2-6c0-3.3-2.8-6-6.2-6H139v-34.8c0-3.3-2.8-6-6.2-6
			c-3.4,0-6.2,2.7-6.2,6v74L53,209.2c-0.7-0.7-1.1-1.6-1.1-2.5s0.4-1.8,1.1-2.5l73.6-71.5v33.2c0,3.3,2.8,6,6.2,6h101
			c3.4,0,6.1-2.7,6.1-5.9c0-3.4-2.8-6.2-6.2-6.2H139v-41.8c0-2.5-1.5-4.6-3.8-5.6C134.4,112.2,133.6,112,132.8,112z"/>
	</g>
	<g>
		<path d="M317.2,338c1.6,0,3.2-0.6,4.4-1.8l89.3-86.8c1.7-1.6,2.6-3.8,2.6-6.1c0-2.3-0.9-4.4-2.6-6.1l-89.3-86.8
			c-1.8-1.7-4.4-2.2-6.8-1.3c-2.3,0.9-3.8,3.1-3.8,5.6v41.8h-70.5c-3.4,0-6.2,2.7-6.2,6c0,3.3,2.8,6,6.2,6H311v34.8
			c0,3.3,2.8,6,6.2,6c3.4,0,6.2-2.7,6.2-6v-74l73.6,71.5c0.7,0.7,1.1,1.6,1.1,2.5s-0.4,1.8-1.1,2.5l-73.6,71.5v-33.2
			c0-3.3-2.8-6-6.2-6h-101c-3.4,0-6.1,2.7-6.1,5.9c0,3.4,2.8,6.2,6.2,6.2H311v41.8c0,2.5,1.5,4.6,3.8,5.6
			C315.6,337.8,316.4,338,317.2,338z"/>
	</g>
</g>
</svg>
