<?xml version="1.0" encoding="utf-8"?>
<!-- Generator: Adobe Illustrator 24.1.0, SVG Export Plug-In . SVG Version: 6.00 Build 0)  -->
<svg version="1.1" id="Layer_1" xmlns="http://www.w3.org/2000/svg" xmlns:xlink="http://www.w3.org/1999/xlink" x="0px" y="0px"
	 viewBox="0 0 450 450" style="enable-background:new 0 0 450 450;" xml:space="preserve">
<g>
	<g>
		<path d="M250.7,319.7h-63.2c-1.7,0-3-1.3-3-3s1.3-3,3-3h63.2c1.7,0,3,1.3,3,3S252.4,319.7,250.7,319.7z"/>
	</g>
	<g>
		<path d="M345.5,352.3H92.7c-8,0-14.5-6.5-14.5-14.5v-5.3c0-0.8,0.2-1.6,0.7-2.2l21.1-31.6c0.7-1.1,2-1.8,3.3-1.8h231.7
			c1.3,0,2.6,0.7,3.3,1.8l21.1,31.6c0.4,0.7,0.7,1.4,0.7,2.2v5.3C360,345.7,353.5,352.3,345.5,352.3z M86.2,333.7v4.1
			c0,3.6,2.9,6.5,6.5,6.5h252.7c3.6,0,6.5-2.9,6.5-6.5v-4.1l-19.2-28.8H105.4L86.2,333.7z"/>
	</g>
	<g>
		<path d="M356,336.5H82.2c-2.2,0-4-1.8-4-4s1.8-4,4-4H356c2.2,0,4,1.8,4,4S358.2,336.5,356,336.5z"/>
	</g>
	<g>
		<path d="M334.9,304.9H103.3c-2.2,0-4-1.8-4-4v-150c0-6.6,5.3-11.9,11.9-11.9H327c6.6,0,11.9,5.3,11.9,11.9v150
			C338.9,303.1,337.1,304.9,334.9,304.9z M107.3,296.9h223.7v-146c0-2.1-1.7-3.9-3.9-3.9H111.2c-2.1,0-3.9,1.7-3.9,3.9V296.9z"/>
	</g>
	<g>
		<path d="M308.6,272.3h-21.1c-1.7,0-3-1.3-3-3s1.3-3,3-3h18.1v-94h-78.2v59.8c0,1.7-1.3,3-3,3s-3-1.3-3-3v-62.8c0-1.7,1.3-3,3-3
			h84.2c1.7,0,3,1.3,3,3v100C311.6,270.9,310.3,272.3,308.6,272.3z"/>
	</g>
	<g>
		<path d="M198,288.1c-1.7,0-3-1.3-3-3v-27.2c0-1.2,0.7-2.3,1.9-2.8c1.1-0.5,2.4-0.2,3.3,0.7l21.1,21.1h40c2.2,0,4.3-1,5.7-2.7
			c1.5-1.7,2.1-3.9,1.7-6.2c-0.6-3.6-4-6.2-8-6.2h-31.9c-0.8,0-1.6-0.3-2.1-0.9l-22.3-22.3c-5.4-5.4-12.6-8.4-20.2-8.4h-43.9
			c-7.1,0-12.8,5.7-12.8,12.8v42.1c0,1.7-1.3,3-3,3s-3-1.3-3-3V243c0-10.4,8.4-18.8,18.8-18.8h43.9c9.2,0,17.9,3.6,24.5,10.1
			l21.5,21.5h30.7c6.9,0,12.9,4.8,13.9,11.3c0.6,4-0.5,8-3,11c-2.6,3-6.3,4.8-10.3,4.8H220c-0.8,0-1.6-0.3-2.1-0.9L201,265.1v20
			C201,286.7,199.7,288.1,198,288.1z"/>
	</g>
	<g>
		<path d="M166.5,219.6c-13.7,0-24.1-12.6-24.1-29.3c0-13.3,10.8-24.1,24.1-24.1s24.1,10.8,24.1,24.1
			C190.5,207,180.2,219.6,166.5,219.6z M166.5,172.3c-10,0-18.1,8.1-18.1,18.1c0,13.5,7.6,23.3,18.1,23.3s18.1-9.8,18.1-23.3
			C184.5,180.4,176.4,172.3,166.5,172.3z"/>
	</g>
</g>
</svg>
