<?xml version="1.0" encoding="utf-8"?>
<!-- Generator: Adobe Illustrator 24.1.0, SVG Export Plug-In . SVG Version: 6.00 Build 0)  -->
<svg version="1.1" id="Layer_1" xmlns="http://www.w3.org/2000/svg" xmlns:xlink="http://www.w3.org/1999/xlink" x="0px" y="0px"
	 viewBox="0 0 450 450" style="enable-background:new 0 0 450 450;" xml:space="preserve">
<g>
	<g>
		<path d="M285.2,344.7H143c-6.8,0-12.4-5.5-12.4-12.2V163.3c0-2.1,0.9-4.1,2.3-5.6l19.6-19.4c1.5-1.5,3.5-2.3,5.6-2.3h127
			c6.8,0,12.4,5.5,12.4,12.2V189c0,1.9-1.6,3.5-3.5,3.5c-1.9,0-3.5-1.6-3.5-3.5v-40.6c0-2.9-2.4-5.3-5.4-5.3h-127
			c-0.3,0-0.5,0.1-0.7,0.3l-19.6,19.4c-0.2,0.2-0.3,0.4-0.3,0.6v169.1c0,2.9,2.4,5.3,5.4,5.3h142.2c3,0,5.4-2.4,5.4-5.3v-46.7
			c0-1.9,1.6-3.5,3.5-3.5c1.9,0,3.5,1.6,3.5,3.5v46.7C297.6,339.2,292,344.7,285.2,344.7z"/>
	</g>
	<g>
		<path d="M168.9,177.8h-20.9c-1.9,0-3.5-1.6-3.5-3.5s1.6-3.5,3.5-3.5h17.4v-17.4c0-1.9,1.6-3.5,3.5-3.5s3.5,1.6,3.5,3.5v20.9
			C172.4,176.3,170.8,177.8,168.9,177.8z"/>
	</g>
	<g>
		<path d="M203.7,327.3c-0.9,0-1.8-0.4-2.5-1c-1-0.9-1.3-2.4-0.8-3.6l10.6-29.8c0.2-0.5,0.5-0.9,0.8-1.3l91-91
			c6.9-6.9,18-7.2,24.6-0.5c3.2,3.2,5,7.6,4.8,12.3c-0.1,4.6-2,9-5.4,12.3l-91,91c-0.4,0.4-0.8,0.6-1.3,0.8l-29.8,10.6
			C204.5,327.3,204.1,327.3,203.7,327.3z M217.3,295.9l-7.9,22.2l22.2-7.9l90.5-90.5c2.1-2.1,3.2-4.8,3.3-7.6
			c0.1-2.8-0.9-5.3-2.8-7.2c-3.9-3.9-10.6-3.7-14.8,0.5L217.3,295.9z M233.5,313.2L233.5,313.2L233.5,313.2z"/>
	</g>
	<g>
		<path d="M321.1,229c-0.9,0-1.8-0.3-2.5-1l-19.2-19.2c-1.4-1.4-1.4-3.6,0-4.9c1.4-1.4,3.6-1.4,4.9,0l19.2,19.2
			c1.4,1.4,1.4,3.6,0,4.9C322.9,228.7,322,229,321.1,229z"/>
	</g>
	<g>
		<path d="M314.4,235.8c-0.9,0-1.8-0.3-2.5-1l-19.2-19.2c-1.4-1.4-1.4-3.6,0-4.9c1.4-1.4,3.6-1.4,4.9,0l19.2,19.2
			c1.4,1.4,1.4,3.6,0,4.9C316.2,235.4,315.3,235.8,314.4,235.8z"/>
	</g>
	<g>
		<path d="M236.9,313.3c-0.9,0-1.8-0.3-2.5-1l-19.2-19.2c-1.4-1.4-1.4-3.6,0-4.9s3.6-1.4,4.9,0l19.2,19.2c1.4,1.4,1.4,3.6,0,4.9
			C238.6,313,237.7,313.3,236.9,313.3z"/>
	</g>
	<g>
		<path d="M252.4,216.1H162c-1.9,0-3.5-1.6-3.5-3.5c0-1.9,1.6-3.5,3.5-3.5h90.4c1.9,0,3.5,1.6,3.5,3.5
			C255.8,214.5,254.3,216.1,252.4,216.1z"/>
	</g>
	<g>
		<path d="M224.5,250.8H162c-1.9,0-3.5-1.6-3.5-3.5s1.6-3.5,3.5-3.5h62.6c1.9,0,3.5,1.6,3.5,3.5S226.5,250.8,224.5,250.8z"/>
	</g>
</g>
<g>
	<path d="M220.8,403.8c-90.1,0-163.4-73.3-163.4-163.4c0-35.5,11.2-69.3,32.4-97.6c1.8-2.4,5.3-2.9,7.7-1.1c2.4,1.8,2.9,5.3,1.1,7.7
		c-19.8,26.5-30.2,57.9-30.2,91.1c0,84,68.4,152.4,152.4,152.4c37.9,0,73.9-13.9,102-39.1L103.6,134.4c-2.1-2.1-2.2-5.6-0.1-7.7
		c31-32,72.7-49.6,117.3-49.6c90.1,0,163.4,73.3,163.4,163.4c0,36.9-12,71.8-34.8,100.8c-1.9,2.4-5.3,2.8-7.7,0.9
		c-2.4-1.9-2.8-5.3-0.9-7.7c21.2-27,32.4-59.5,32.4-94c0-84-68.4-152.4-152.4-152.4c-39.8,0-77.1,15-105.6,42.5L333.7,349l0.6,0.4
		c1.2,1,2,2.5,2,4c0.1,1.6-0.5,3.1-1.7,4.2C304,387.4,263.6,403.8,220.8,403.8z"/>
</g>
</svg>
