<?xml version="1.0" encoding="utf-8"?>
<!-- Generator: Adobe Illustrator 24.1.0, SVG Export Plug-In . SVG Version: 6.00 Build 0)  -->
<svg version="1.1" id="Layer_1" xmlns="http://www.w3.org/2000/svg" xmlns:xlink="http://www.w3.org/1999/xlink" x="0px" y="0px"
	 viewBox="0 0 450 450" style="enable-background:new 0 0 450 450;" xml:space="preserve">
<g>
	<g>
		<path d="M270.5,335.4c-2.5,0-4.5,2-4.5,4.5v30c0,1.6,0.9,3.1,2.3,3.9c1.4,0.8,3.1,0.8,4.5-0.1l27.7-16.6l27.7,16.6
			c1.4,0.8,3.2,0.8,4.5,0.1c1.4-0.8,2.3-2.3,2.3-3.9v-30c0-2.5-2-4.5-4.5-4.5s-4.5,2-4.5,4.5v22l-23.2-13.9c-1.4-0.9-3.2-0.9-4.6,0
			L275,362v-22C275,337.5,273,335.4,270.5,335.4z"/>
	</g>
	<g>
		<path d="M300.5,213.9c-24.8,0-45,20.2-45,45c0,24.8,20.2,45,45,45c24.8,0,45-20.2,45-45C345.5,234.1,325.3,213.9,300.5,213.9z
			 M300.5,291.9c-18.2,0-33-14.8-33-33s14.8-33,33-33c18.2,0,33,14.8,33,33S318.7,291.9,300.5,291.9z"/>
	</g>
	<g>
		<path d="M300.5,323.1c1.7,0,4.1,1.4,8,4c5,3.3,10.1,6.6,15.6,4.8c5.7-1.9,8-8,10-13.4l0-0.1c1.6-4.3,2.7-6.7,3.9-7.6
			c1.3-1,4.5-1.2,8.5-1.4c6.1-0.3,12.3-0.6,15.8-5.4c3.4-4.7,1.8-10.7,0.3-16.5c-1.2-4.5-1.8-7.2-1.3-8.8c0.4-1.4,2.4-3.2,5.9-6
			c4.3-3.5,9.7-7.8,9.7-13.9c0-6.1-5.4-10.4-9.7-13.9l0.9-1.2l-0.9,1.2l0.9-1.2l-0.9,1.2c-3.6-2.9-5.5-4.6-5.9-6
			c-0.5-1.7,0.3-5,1.3-8.8c1.6-5.8,3.2-11.8-0.3-16.5c-3.5-4.8-9.7-5.1-15.7-5.4c-4.1-0.2-7.2-0.4-8.6-1.4c-1.2-0.9-2.2-3.2-3.9-7.6
			l0-0.1c-2-5.4-4.4-11.6-10-13.4c-5.5-1.8-10.5,1.5-15.4,4.7l-0.2,0.1c-3.9,2.6-6.4,4-8,4s-4.1-1.4-8-4c-5-3.3-10.1-6.6-15.6-4.8
			c-5.7,1.9-8,8-10,13.4c-1.7,4.4-2.7,6.8-3.9,7.7c-1.3,1-4.5,1.2-8.5,1.4c-6.1,0.3-12.3,0.6-15.8,5.4c-3.4,4.7-1.8,10.7-0.3,16.5
			c1,3.8,1.8,7.1,1.3,8.8c-0.4,1.4-2.3,3.1-5.9,6c-4.3,3.5-9.7,7.8-9.7,13.9c0,6.1,5.4,10.4,9.7,13.9c3.6,2.9,5.5,4.6,5.9,6
			c0.5,1.7-0.3,5-1.3,8.8c-1.6,5.8-3.2,11.8,0.3,16.5c3.5,4.8,9.7,5.1,15.7,5.4c4.1,0.2,7.2,0.4,8.6,1.4c1.2,0.9,2.2,3.2,3.9,7.6
			c2.1,5.5,4.4,11.7,10.1,13.5c1,0.3,2,0.5,3.1,0.5c4.4,0,8.7-2.8,12.5-5.3C296.4,324.5,298.8,323.1,300.5,323.1z M279.8,323.5
			l-0.4-0.2c-1.3-0.8-2.4-3.3-4.2-7.9c-1.7-4.5-3.4-9.2-7-11.8c-3.6-2.7-8.6-2.9-13.4-3.1c-5.5-0.3-7.6-0.6-8.5-1.3l-0.3-0.3
			l-0.2-0.4c-0.5-1.4,0-4,1.2-8.6c1.3-4.8,2.6-9.6,1.2-13.9c-1.4-4.2-5.2-7.2-8.9-10.2c-4.5-3.7-6.1-5.2-6.3-6.6l0-0.3l0-0.3
			c0.3-1.5,2.3-3.4,6.3-6.6c3.7-3,7.5-6,8.9-10.2c1.4-4.3,0.1-9.2-1.2-13.9l0-0.1c-1.4-5.3-1.7-7.3-1.4-8.3l0.1-0.4l0.3-0.3
			c1.1-1,3.9-1.3,8.7-1.5c4.8-0.2,9.8-0.5,13.4-3.1c3.6-2.6,5.3-7.3,7-11.8c2-5.4,2.9-7.2,3.9-7.8l0.4-0.3h0.5
			c1.5,0,3.8,1.3,7.6,3.8c3.9,2.6,8.4,5.5,13,5.5s9-2.9,13-5.5c4.5-3,6.2-3.9,7.3-3.9l0.4,0l0.4,0.2c1.3,0.8,2.4,3.3,4.2,7.9
			c1.7,4.5,3.5,9.2,7,11.8c3.6,2.7,8.6,2.9,13.4,3.1c5.5,0.3,7.6,0.6,8.5,1.3l0.3,0.3l0.2,0.4c0.5,1.4,0,4.1-1.2,8.6
			c-1.3,4.8-2.6,9.6-1.2,13.9c1.3,4.2,5.2,7.2,8.9,10.2c3.8,3.1,6,5,6.3,6.5l0.1,0.3l-0.1,0.3c-0.3,1.5-2.5,3.4-6.3,6.5l0,0
			c-3.7,3-7.5,6-8.9,10.2c-1.4,4.3-0.1,9.2,1.2,13.9c1.4,5.4,1.8,7.4,1.4,8.4l-0.1,0.4l-0.3,0.3c-1.1,1-3.9,1.3-8.7,1.5
			c-4.8,0.2-9.8,0.5-13.4,3.1c-3.6,2.6-5.3,7.3-7,11.8c-2,5.4-2.9,7.2-3.9,7.8l-0.3,0.2l-0.4,0c-1.6,0.2-3.7-1.1-6.8-3.2
			c-0.3-0.2-0.7-0.5-1-0.7c-3.9-2.6-8.4-5.5-13-5.5s-9,2.9-13,5.5c-4.5,3-6.2,3.9-7.3,3.9L279.8,323.5z M280.8,197.1"/>
	</g>
	<g>
		<path d="M96.5,89.4c-2.5,0-4.5,2-4.5,4.5v276c0,2.5,2,4.5,4.5,4.5h150c2.5,0,4.5-2,4.5-4.5s-2-4.5-4.5-4.5H101v-267h195v73.5
			c0,2.5,2,4.5,4.5,4.5s4.5-2,4.5-4.5v-78c0-2.5-2-4.5-4.5-4.5H96.5z"/>
	</g>
	<g>
		<path d="M149.9,113.4c-2.2,0-4.1,1.6-4.4,3.8c-2.2,13.2-12.6,23.6-25.8,25.8c-2.2,0.4-3.8,2.2-3.8,4.4v169.1
			c0,2.2,1.6,4.1,3.8,4.4c13.2,2.2,23.5,12.6,25.8,25.8c0.4,2.2,2.2,3.8,4.4,3.8h96.5c2.5,0,4.5-2,4.5-4.5s-2-4.5-4.5-4.5h-92.9
			l-0.3-1.1c-3.9-13.1-14.1-23.3-27.2-27.2l-1.1-0.3V151l1.1-0.3c13.1-3.9,23.3-14.1,27.2-27.2l0.3-1.1h89.8l0.3,1.1
			c3.9,13.1,14.1,23.3,27.2,27.2l1.1,0.3v20.9c0,2.5,2,4.5,4.5,4.5s4.5-2,4.5-4.5v-24.5c0-2.2-1.6-4.1-3.8-4.4
			c-13.2-2.2-23.6-12.6-25.8-25.8c-0.4-2.2-2.2-3.8-4.4-3.8H149.9z"/>
	</g>
	<g>
		<path d="M228.5,159.9c3.3,0,6-2.7,6-6s-2.7-6-6-6h-60c-3.3,0-6,2.7-6,6s2.7,6,6,6H228.5z"/>
	</g>
	<g>
		<path d="M246.5,189.9c0-3.3-2.7-6-6-6h-90c-3.3,0-6,2.7-6,6s2.7,6,6,6h90C243.8,195.9,246.5,193.3,246.5,189.9z"/>
	</g>
	<g>
		<path d="M216.5,213.9h-66c-3.3,0-6,2.7-6,6s2.7,6,6,6h66c3.3,0,6-2.7,6-6S219.8,213.9,216.5,213.9z"/>
	</g>
	<g>
		<path d="M150.5,255.9h54c3.3,0,6-2.7,6-6s-2.7-6-6-6h-54c-3.3,0-6,2.7-6,6S147.2,255.9,150.5,255.9z"/>
	</g>
	<g>
		<path d="M150.5,285.9h60c3.3,0,6-2.7,6-6s-2.7-6-6-6h-60c-3.3,0-6,2.7-6,6S147.2,285.9,150.5,285.9z"/>
	</g>
	<g>
		<path d="M162.5,315.9h54c3.3,0,6-2.7,6-6s-2.7-6-6-6h-54c-3.3,0-6,2.7-6,6S159.2,315.9,162.5,315.9z"/>
	</g>
</g>
</svg>
