<?xml version="1.0" encoding="utf-8"?>
<!-- Generator: Adobe Illustrator 24.1.0, SVG Export Plug-In . SVG Version: 6.00 Build 0)  -->
<svg version="1.1" id="Layer_1" xmlns="http://www.w3.org/2000/svg" xmlns:xlink="http://www.w3.org/1999/xlink" x="0px" y="0px"
	 viewBox="0 0 450 450" style="enable-background:new 0 0 450 450;" xml:space="preserve">
<g>
	<g>
		<path d="M303.7,272.5c1.4-2,0.8-4.8-1.2-6.1c-8.7-5.8-18.9-8.9-29.5-8.9c-29.2,0-53,23.8-53,53c0,29.2,23.8,53,53,53
			c29.2,0,53-23.8,53-53c0-10.5-3.1-20.6-8.8-29.3c-1.4-2-4.1-2.6-6.1-1.2c-2,1.4-2.6,4.1-1.2,6.1c4.8,7.2,7.4,15.7,7.4,24.4
			c0,24.4-19.8,44.2-44.2,44.2c-24.4,0-44.2-19.8-44.2-44.2c0-24.4,19.8-44.2,44.2-44.2c8.8,0,17.3,2.6,24.5,7.4
			C299.6,275,302.3,274.5,303.7,272.5z"/>
		<path d="M273,239.7c-39,0-70.7,31.7-70.7,70.7c0,15.7,5,30.6,14.6,43c1.5,1.9,4.3,2.3,6.2,0.8c1.9-1.5,2.3-4.3,0.8-6.2
			c-8.4-10.9-12.8-23.9-12.8-37.6c0-34.1,27.7-61.9,61.9-61.9c34.1,0,61.9,27.7,61.9,61.9s-27.7,61.9-61.9,61.9
			c-13.8,0-26.8-4.4-37.6-12.8c-1.9-1.5-4.7-1.1-6.2,0.8c-1.5,1.9-1.1,4.7,0.8,6.2c12.4,9.6,27.3,14.6,43,14.6
			c39,0,70.7-31.7,70.7-70.7S312,239.7,273,239.7z"/>
		<path d="M343.7,186.7c-25.6,0-47.5,18.2-52.1,43.4c-0.4,2.4,1.1,4.7,3.5,5.1c0.3,0.1,0.5,0.1,0.8,0.1c2.1,0,3.9-1.5,4.3-3.6
			c3.8-20.9,22.1-36.1,43.5-36.1c8.8,0,17.3,2.6,24.5,7.4c2,1.4,4.8,0.8,6.1-1.2c1.4-2,0.8-4.8-1.2-6.1
			C364.4,189.8,354.3,186.7,343.7,186.7z"/>
		<path d="M351.7,283.2c-2.4,0.4-4,2.7-3.5,5.1c0.4,2.1,2.2,3.6,4.3,3.6c0.3,0,0.5,0,0.8-0.1c25.1-4.6,43.4-26.5,43.4-52.1
			c0-10.5-3.1-20.6-8.8-29.3c-1.4-2-4.1-2.6-6.1-1.2c-2,1.4-2.6,4.1-1.2,6.1c4.8,7.2,7.4,15.7,7.4,24.4
			C387.9,261.1,372.7,279.3,351.7,283.2z"/>
		<path d="M343.7,169.1c-33.5,0-62.6,23.8-69.3,56.6c-0.3,1.6-0.6,3.1-0.8,4.7c-0.3,2.4,1.4,4.6,3.8,5c2.4,0.3,4.6-1.4,5-3.8
			c0.2-1.4,0.4-2.8,0.7-4.1c5.8-28.7,31.3-49.5,60.6-49.5c34.1,0,61.9,27.7,61.9,61.9c0,29.3-20.8,54.8-49.5,60.6
			c-1.4,0.3-2.7,0.5-4.1,0.7c-2.4,0.3-4.1,2.5-3.8,5c0.3,2.2,2.2,3.8,4.4,3.8c0.2,0,0.4,0,0.6,0c1.6-0.2,3.2-0.5,4.7-0.8
			c32.8-6.7,56.6-35.8,56.6-69.3C414.4,200.8,382.7,169.1,343.7,169.1z"/>
		<g>
			<path d="M273,270.8c3.2,0,5.8,2.6,5.8,5.8v0.9c0,0.4,0.3,0.8,0.7,1c8.1,2.3,12.8,9,12.8,18.5c0,3.2-2.6,5.8-5.8,5.8
				s-5.8-2.6-5.8-5.8c0-4-0.9-7.8-7.8-7.8s-7.8,3.7-7.8,7.8c0,3.5,3.1,5.2,10.1,8.3c7.2,3.1,17,7.4,17,18.8
				c0,9.5-4.7,16.2-12.8,18.5c-0.4,0.1-0.7,0.5-0.7,1v0.9c0,3.2-2.6,5.8-5.8,5.8s-5.8-2.6-5.8-5.8v-0.9c0-0.4-0.3-0.8-0.7-1
				c-8.1-2.3-12.8-9-12.8-18.5c0-3.2,2.6-5.8,5.8-5.8s5.8,2.6,5.8,5.8c0,4,0.9,7.8,7.8,7.8c4,0,7.8-0.9,7.8-7.8
				c0-3.4-3.1-5.1-10.1-8.2c-7.2-3.2-17-7.5-17-18.9c0-9.5,4.7-16.2,12.8-18.5c0.4-0.1,0.7-0.5,0.7-1v-0.9
				C267.2,273.4,269.8,270.8,273,270.8"/>
		</g>
		<path d="M346.1,234.6c-7-3.1-10.1-4.8-10.1-8.3c0-4,0.9-7.8,7.8-7.8s7.8,3.7,7.8,7.8c0,3.2,2.6,5.8,5.8,5.8s5.8-2.6,5.8-5.8
			c0-9.5-4.7-16.2-12.8-18.5c-0.4-0.1-0.7-0.5-0.7-1V206c0-3.2-2.6-5.8-5.8-5.8s-5.8,2.6-5.8,5.8v0.9c0,0.4-0.3,0.8-0.7,1
			c-8.1,2.3-12.8,9-12.8,18.5c0,11.4,9.8,15.7,17,18.9c7,3.1,10.1,4.8,10.1,8.2c0,6.8-3.7,7.8-7.8,7.8c-6.8,0-7.8-3.7-7.8-7.8
			c0-3.2-2.6-5.8-5.8-5.8c-2.1,0-4,1.2-5,2.9c8.9,7.8,16.1,17.5,20.9,28.5c2-0.9,3.5-2.9,3.5-5.3v-0.9c0-0.4,0.3-0.8,0.7-1
			c8.1-2.3,12.8-9,12.8-18.5C363,242.1,353.2,237.8,346.1,234.6z"/>
	</g>
	<g>
		<g>
			<path d="M204,166.9c3.2,0,5.8,2.6,5.8,5.8v0.9c0,0.4,0.3,0.8,0.7,1c8.1,2.3,12.8,9,12.8,18.5c0,3.2-2.6,5.8-5.8,5.8
				s-5.8-2.6-5.8-5.8c0-4-0.9-7.8-7.8-7.8s-7.8,3.7-7.8,7.8c0,3.5,3.1,5.2,10.1,8.3c7.2,3.1,17,7.4,17,18.8
				c0,9.5-4.7,16.2-12.8,18.5c-0.4,0.1-0.7,0.5-0.7,1v0.9c0,3.2-2.6,5.8-5.8,5.8s-5.8-2.6-5.8-5.8v-0.9c0-0.4-0.3-0.8-0.7-1
				c-8.1-2.3-12.8-9-12.8-18.5c0-3.2,2.6-5.8,5.8-5.8s5.8,2.6,5.8,5.8c0,4,0.9,7.8,7.8,7.8c4,0,7.8-0.9,7.8-7.8
				c0-3.4-3.1-5.1-10.1-8.2c-7.2-3.2-17-7.5-17-18.9c0-9.5,4.7-16.2,12.8-18.5c0.4-0.1,0.7-0.5,0.7-1v-0.9
				C198.3,169.5,200.9,166.9,204,166.9"/>
		</g>
		<g>
			<path d="M109.2,200.8c3.2,0,5.8,2.6,5.8,5.8c0,3.2-2.6,5.8-5.8,5.8c-3.2,0-5.8-2.6-5.8-5.8C103.4,203.4,106,200.8,109.2,200.8"/>
		</g>
		<g>
			<path d="M359.9,112.7c3.2,0,5.8,2.6,5.8,5.8v39c-3.7-1.1-7.6-1.9-11.6-2.5v-29.7c0-0.6-0.4-1-1-1H55c-0.6,0-1,0.4-1,1v162.6
				c0,0.6,0.4,1,1,1h130.1c-0.8,3.7-1.4,7.6-1.8,11.6H48.2c-3.2,0-5.8-2.6-5.8-5.8V118.5c0-3.2,2.6-5.8,5.8-5.8H359.9"/>
		</g>
		<g>
			<path d="M312.4,139.8c3.2,0,5.8,2.6,5.8,5.8c0,3.8,1,7.5,2.9,10.8c-3.8,0.9-7.5,2.1-11.2,3.5c-1.2-2.5-2.1-5.1-2.6-7.7
				c-0.1-0.5-0.5-0.8-1-0.8h-61.7c-0.4,0-0.8,0.3-0.9,0.7c-0.1,0.4,0,0.9,0.3,1.1c12.9,9.7,21.9,23.7,25.3,39.4
				c-4.7,7.1-8.3,14.8-10.8,22.8c0.5-2.9,0.7-5.9,0.7-8.8c0-30.4-24.8-55.2-55.2-55.2s-55.2,24.8-55.2,55.2c0,13.7,5.1,26.9,14.3,37
				c8.8,9.7,20.6,15.9,33.5,17.7c-0.4,0.7-0.9,1.4-1.3,2.1c-0.1,0.1-0.2,0.3-0.2,0.4l-0.2,0.3c-0.6,1-1,1.8-1.4,2.5
				c-0.1,0.3-0.3,0.5-0.4,0.8l-0.2,0.4c-0.4,0.7-0.7,1.4-1.1,2.1c-0.2,0.4-0.4,0.7-0.5,1.1l-0.1,0.3l-0.1,0.2
				c-0.3,0.6-0.6,1.2-0.8,1.8H95.6c-3.2,0-5.8-2.6-5.8-5.8c0-11.8-9.6-21.3-21.3-21.3c-3.2,0-5.8-2.6-5.8-5.8v-67.8
				c0-3.2,2.6-5.8,5.8-5.8c11.8,0,21.3-9.6,21.3-21.3c0-3.2,2.6-5.8,5.8-5.8H312.4 M101.7,261.7h61.8c0.4,0,0.8-0.3,0.9-0.7
				c0.1-0.4,0-0.9-0.3-1.1c-8.1-6.1-14.9-14.1-19.5-23.1c-4.8-9.4-7.3-19.6-7.3-30.3c0-10.7,2.5-20.9,7.3-30.3
				c4.6-9,11.3-17,19.5-23.1c0.3-0.3,0.5-0.7,0.3-1.1c-0.1-0.4-0.5-0.7-0.9-0.7h-61.7c-0.5,0-0.9,0.3-1,0.8
				c-2.6,12.9-12.7,23-25.6,25.6c-0.5,0.1-0.8,0.5-0.8,1v55.6c0,0.5,0.3,0.9,0.8,1c12.9,2.6,23,12.7,25.6,25.6
				C100.8,261.4,101.2,261.7,101.7,261.7"/>
		</g>
	</g>
</g>
</svg>
