<?xml version="1.0" encoding="utf-8"?>
<!-- Generator: Adobe Illustrator 24.1.0, SVG Export Plug-In . SVG Version: 6.00 Build 0)  -->
<svg version="1.1" id="Layer_1" xmlns="http://www.w3.org/2000/svg" xmlns:xlink="http://www.w3.org/1999/xlink" x="0px" y="0px"
	 viewBox="0 0 450 450" style="enable-background:new 0 0 450 450;" xml:space="preserve">
<g>
	<g>
		<path d="M225,330.5c-16,0-28-14.6-28-33.9c0-15.4,12.6-28,28-28c15.4,0,28,12.6,28,28C253,316,241,330.5,225,330.5z M225,277.7
			c-10.5,0-19,8.5-19,19c0,14.4,8,24.9,19,24.9s19-10.5,19-24.9C244,286.2,235.5,277.7,225,277.7z"/>
	</g>
	<g>
		<path d="M342.5,330.5c-16,0-28-14.6-28-33.9c0-15.4,12.6-28,28-28c15.4,0,28,12.6,28,28C370.5,316,358.4,330.5,342.5,330.5z
			 M342.5,277.7c-10.5,0-19,8.5-19,19c0,14.4,8,24.9,19,24.9s19-10.5,19-24.9C361.5,286.2,353,277.7,342.5,277.7z"/>
	</g>
	<g>
		<path d="M107.5,330.5c-16,0-28-14.6-28-33.9c0-15.4,12.6-28,28-28s28,12.6,28,28C135.5,316,123.5,330.5,107.5,330.5z M107.5,277.7
			c-10.5,0-19,8.5-19,19c0,14.4,8,24.9,19,24.9c11,0,19-10.5,19-24.9C126.5,286.2,118,277.7,107.5,277.7z"/>
	</g>
	<g>
		<path d="M154.5,365.8c-2.5,0-4.5-2-4.5-4.5v-4.7c0-2.9-1.7-5.4-4.2-6.6c-7.9-3.5-20.8-7.7-38-7.7c-17.3,0-30.5,4.2-38.5,7.8
			c-2.6,1.1-4.3,3.7-4.3,6.6v4.6c0,2.5-2,4.5-4.5,4.5s-4.5-2-4.5-4.5v-4.6c0-6.4,3.8-12.3,9.6-14.8c8.8-3.9,23.3-8.6,42.1-8.6
			c18.8,0,33.1,4.6,41.7,8.5c5.8,2.6,9.5,8.4,9.5,14.8v4.7C159,363.8,157,365.8,154.5,365.8z"/>
	</g>
	<g>
		<path d="M272,365.8c-2.5,0-4.5-2-4.5-4.5v-4.7c0-2.9-1.7-5.4-4.2-6.6c-7.9-3.5-20.8-7.7-38-7.7c-17.3,0-30.5,4.2-38.5,7.8
			c-2.6,1.1-4.3,3.7-4.3,6.6v4.6c0,2.5-2,4.5-4.5,4.5s-4.5-2-4.5-4.5v-4.6c0-6.4,3.8-12.3,9.6-14.8c8.8-3.9,23.3-8.6,42.1-8.6
			c18.8,0,33.1,4.6,41.7,8.5c5.8,2.6,9.5,8.4,9.5,14.8v4.7C276.5,363.8,274.5,365.8,272,365.8z"/>
	</g>
	<g>
		<path d="M389.5,365.8c-2.5,0-4.5-2-4.5-4.5v-4.7c0-2.9-1.7-5.4-4.2-6.6c-7.9-3.5-20.8-7.7-38-7.7c-17.3,0-30.5,4.2-38.5,7.8
			c-2.6,1.1-4.3,3.7-4.3,6.6v4.6c0,2.5-2,4.5-4.5,4.5s-4.5-2-4.5-4.5v-4.6c0-6.4,3.8-12.3,9.6-14.8c8.8-3.9,23.3-8.6,42.1-8.6
			c18.8,0,33.1,4.6,41.7,8.5c5.8,2.6,9.5,8.4,9.5,14.8v4.7C394,363.8,392,365.8,389.5,365.8z"/>
	</g>
	<g>
		<path d="M366,260H84c-2.5,0-4.5-2-4.5-4.5V73.4c0-2.5,2-4.5,4.5-4.5H366c2.5,0,4.5,2,4.5,4.5v182.1C370.5,258,368.5,260,366,260z
			 M88.5,251h272.9V77.9H88.5V251z"/>
	</g>
	<g>
		<path d="M301.4,100.4H84c-1.9,0-3.5-1.6-3.5-3.5s1.6-3.5,3.5-3.5h217.3c1.9,0,3.5,1.6,3.5,3.5S303.3,100.4,301.4,100.4z"/>
	</g>
	<g>
		<path d="M348.4,100.4h-11.7c-1.9,0-3.5-1.6-3.5-3.5s1.6-3.5,3.5-3.5h11.7c1.9,0,3.5,1.6,3.5,3.5S350.3,100.4,348.4,100.4z"/>
	</g>
	<g>
		<path d="M324.9,100.4h-11.7c-1.9,0-3.5-1.6-3.5-3.5s1.6-3.5,3.5-3.5h11.7c1.9,0,3.5,1.6,3.5,3.5S326.8,100.4,324.9,100.4z"/>
	</g>
	<g>
		<path d="M201.5,241.4c-1.9,0-3.5-1.6-3.5-3.5v-23.5c0-5.2,4.2-9.4,9.4-9.4H272c4.5,0,8.2-3.7,8.2-8.2s-3.7-8.2-8.2-8.2H136.9
			c-7.8,0-14.1,6.3-14.1,14.1v35.2c0,1.9-1.6,3.5-3.5,3.5s-3.5-1.6-3.5-3.5v-35.2c0-11.6,9.5-21.1,21.1-21.1H272
			c8.4,0,15.2,6.8,15.2,15.2S280.4,212,272,212h-64.6c-1.3,0-2.4,1.1-2.4,2.4v23.5C205,239.9,203.4,241.4,201.5,241.4z"/>
	</g>
	<g>
		<path d="M166.3,176.8c-15.4,0-27-14.1-27-32.9c0-14.9,12.1-27,27-27s27,12.1,27,27C193.3,162.7,181.7,176.8,166.3,176.8z
			 M166.3,123.9c-11,0-20,9-20,20c0,15,8.4,25.9,20,25.9s20-10.9,20-25.9C186.3,132.9,177.3,123.9,166.3,123.9z"/>
	</g>
	<g>
		<path d="M324.9,141.6h-94c-1.9,0-3.5-1.6-3.5-3.5s1.6-3.5,3.5-3.5h94c1.9,0,3.5,1.6,3.5,3.5S326.8,141.6,324.9,141.6z"/>
	</g>
	<g>
		<path d="M324.9,165.1h-94c-1.9,0-3.5-1.6-3.5-3.5s1.6-3.5,3.5-3.5h94c1.9,0,3.5,1.6,3.5,3.5S326.8,165.1,324.9,165.1z"/>
	</g>
</g>
</svg>
