<?xml version="1.0" encoding="utf-8"?>
<!-- Generator: Adobe Illustrator 24.1.0, SVG Export Plug-In . SVG Version: 6.00 Build 0)  -->
<svg version="1.1" id="Layer_1" xmlns="http://www.w3.org/2000/svg" xmlns:xlink="http://www.w3.org/1999/xlink" x="0px" y="0px"
	 viewBox="0 0 64 64" style="enable-background:new 0 0 64 64;" xml:space="preserve">
<path d="M63.5,15.1l-3.9-0.6l0.3-2.1c0.2-1.3-0.7-2.6-2-2.8c-1.3-0.2-2.6,0.7-2.8,2c0,0,0,0.1,0,0.1l-0.3,2.1l-2.4-0.3l0.3-2.1
	c0.2-1.3-0.7-2.6-2.1-2.8c-1.3-0.2-2.6,0.7-2.8,2.1l-0.3,2.1l-2.4-0.3l0.3-2.1c0.2-1.3-0.8-2.6-2.1-2.7c-1.3-0.2-2.5,0.7-2.7,2
	l-0.3,2.1l-2.4-0.3l0.3-2.1c0.2-1.3-0.8-2.6-2.1-2.7c-1.3-0.2-2.5,0.7-2.7,2l-0.3,2.1l-2.4-0.3L31,8.2c0.2-1.3-0.7-2.6-2.1-2.8
	c-1.3-0.2-2.6,0.7-2.8,2.1l-0.3,2.1L21.9,9c-0.3-0.1-0.6,0.2-0.7,0.5l-0.9,5.9c-1.1-0.6-2.5-0.1-3.1,1c-0.2,0.5-0.3,1-0.2,1.5
	l0.4,1.9l-2.2,0.4l-0.4-1.9c-0.3-1.2-1.5-2-2.7-1.7c-1.2,0.3-1.9,1.4-1.7,2.6l0.4,1.9l-2.2,0.4l-0.4-1.9c-0.2-1.2-1.4-2-2.7-1.8
	s-2,1.4-1.8,2.7l0.4,1.9l-3.6,0.7C0.2,23.2,0,23.6,0,23.9l6.8,34.3c0.1,0.3,0.4,0.5,0.7,0.5l36.8-7.2l13.7,2
	c0.3,0.1,0.6-0.2,0.7-0.5L64,15.8C64,15.4,63.8,15.1,63.5,15.1z M55.5,17.3l0.8-5.4c0.1-0.7,0.7-1.1,1.4-1c0.7,0.1,1.1,0.7,1,1.4v0
	l-0.8,5.4c-0.1,0.7-0.7,1.1-1.4,1S55.4,18,55.5,17.3C55.5,17.3,55.5,17.3,55.5,17.3L55.5,17.3z M48.2,16.2l0.8-5.4
	c0.1-0.7,0.7-1.1,1.4-1c0.7,0.1,1.1,0.7,1,1.4l-0.8,5.4c-0.1,0.7-0.7,1.1-1.4,1S48.2,16.9,48.2,16.2L48.2,16.2z M41,15.2l0.8-5.4
	c0.1-0.7,0.7-1.1,1.4-1c0.7,0.1,1.1,0.7,1,1.4l-0.8,5.4c-0.1,0.7-0.7,1.1-1.4,1S40.9,15.8,41,15.2L41,15.2z M33.8,14.1l0.8-5.4
	c0.1-0.7,0.7-1.1,1.4-1s1.1,0.7,1,1.4l-0.8,5.4c-0.1,0.7-0.7,1.1-1.4,1S33.7,14.8,33.8,14.1L33.8,14.1z M26.6,13.1l0.8-5.4
	c0.1-0.7,0.7-1.1,1.4-1c0.7,0.1,1.1,0.7,1,1.4L29,13.4c-0.1,0.7-0.7,1.1-1.4,1C26.9,14.4,26.5,13.7,26.6,13.1L26.6,13.1z M19.1,16.3
	c0.4-0.1,0.8,0.1,1.1,0.4l-0.9,6.2c0-0.1-0.1-0.1-0.1-0.2l-1-5C18.1,17.1,18.5,16.5,19.1,16.3L19.1,16.3z M12.4,17.7
	c0.6-0.1,1.2,0.3,1.3,0.9l1,5c0.1,0.6-0.3,1.2-0.9,1.3s-1.2-0.3-1.3-0.9l-1-5C11.4,18.4,11.8,17.8,12.4,17.7z M5.7,19
	c0.6-0.1,1.2,0.3,1.3,0.9l1,5c0.1,0.6-0.3,1.2-0.9,1.3s-1.2-0.3-1.3-0.9l-1-5C4.7,19.7,5.1,19.1,5.7,19L5.7,19z M7.8,57.4L1.3,24.2
	l3.1-0.6l0.4,1.9c0.2,1.2,1.4,2.1,2.7,1.8c1.2-0.2,2.1-1.4,1.8-2.7v0l-0.4-1.9l2.2-0.4l0.4,1.9c0.2,1.2,1.4,2.1,2.6,1.8
	s2.1-1.4,1.8-2.6c0,0,0-0.1,0-0.1l-0.4-1.9l2.2-0.4l0.4,1.9c0.1,0.6,0.5,1.1,1,1.5l-1.2,7.9l-0.1-0.7c-0.1-0.5-0.5-0.8-1-0.7
	l-3.4,0.7c-0.5,0.1-0.8,0.5-0.7,1l0.7,3.4c0.1,0.5,0.5,0.8,1,0.7l2.9-0.6l-0.3,1.8l-2.3,0.5c-0.5,0.1-0.8,0.5-0.7,1l0.7,3.3
	c0.1,0.5,0.5,0.8,1,0.7l0.6-0.1L16,45.1c-0.5,0.1-0.8,0.5-0.7,1l0.7,3.4c0.1,0.5,0.5,0.8,1,0.7l3.4-0.7c0.5-0.1,0.8-0.5,0.7-1L21,48
	l1.8,0.3c0.2,0.4,0.5,0.6,1,0.5l1.1-0.2l16,2.3L7.8,57.4L7.8,57.4z M57.5,52l-11.1-1.6l-1.9-0.3l-16.8-2.5l-5.1-0.8l-1.8-0.3
	l-3.6-0.5l0.1-0.7l0.1-0.7l0.3-1.8l0.8-5.3l1.9-12.9l0.2-1.1l0.5-3.7l0.5-3.3l0.9-6.3l3.3,0.5l-0.3,2.1c-0.2,1.3,0.7,2.6,2.1,2.8
	s2.6-0.7,2.8-2.1l0.3-2.1l2.4,0.3l-0.3,2.1c-0.2,1.3,0.8,2.6,2.1,2.7c1.3,0.2,2.5-0.7,2.7-2l0.3-2.1l2.4,0.3L39.8,15
	c-0.2,1.3,0.7,2.6,2.1,2.8c1.3,0.2,2.6-0.7,2.8-2.1l0.3-2.1l2.4,0.3L47,16c-0.2,1.3,0.7,2.6,2.1,2.8c1.3,0.2,2.6-0.7,2.8-2.1
	l0.3-2.1l2.4,0.3l-0.3,2.1c-0.2,1.3,0.8,2.6,2.1,2.7c1.3,0.2,2.5-0.7,2.7-2l0.3-2.1l3.3,0.5L57.5,52z"/>
<path d="M6.6,28.8l3.4-0.6c0.5-0.1,0.9,0.2,1,0.7l0.6,3.4c0.1,0.5-0.2,0.9-0.7,1l-3.3,0.6c-0.5,0.1-0.9-0.2-1-0.7l-0.7-3.4
	C5.8,29.3,6.1,28.9,6.6,28.8z M8.1,35.5l3.4-0.7c0.5-0.1,0.9,0.2,1,0.7l0.7,3.4c0.1,0.5-0.2,0.9-0.7,1l-3.4,0.7
	c-0.5,0.1-0.9-0.2-1-0.7l-0.7-3.4C7.3,36,7.6,35.5,8.1,35.5z M9.4,42.2l3.4-0.7c0.5-0.1,0.9,0.2,1,0.7l0.7,3.4
	c0.1,0.5-0.2,0.9-0.7,1l-3.4,0.7c-0.5,0.1-0.9-0.2-1-0.7l-0.6-3.4C8.6,42.7,8.9,42.2,9.4,42.2z M23.1,21.2l0.5-3.6
	c0.1-0.5,0.5-0.8,1-0.8l3.6,0.5c0.5,0.1,0.8,0.5,0.8,1l-0.5,3.6c-0.1,0.5-0.5,0.8-1,0.8l-3.6-0.5C23.4,22.1,23,21.7,23.1,21.2z
	 M30.4,22.4l0.5-3.6c0.1-0.5,0.5-0.8,1-0.8l3.6,0.5c0.5,0.1,0.8,0.5,0.8,1l-0.5,3.6c-0.1,0.5-0.5,0.8-1,0.8l-3.6-0.5
	C30.7,23.3,30.4,22.9,30.4,22.4z M37.7,23.4l0.5-3.6c0.1-0.5,0.5-0.8,1-0.8l3.6,0.5c0.5,0.1,0.8,0.5,0.8,1l-0.5,3.6
	c-0.1,0.5-0.5,0.8-1,0.8l-3.6-0.5C38,24.4,37.6,23.9,37.7,23.4z M44.9,24.5l0.5-3.6c0.1-0.5,0.5-0.8,1-0.8l3.6,0.5
	c0.5,0.1,0.8,0.5,0.8,1l-0.5,3.6c-0.1,0.5-0.5,0.8-1,0.8l-3.6-0.5C45.2,25.4,44.8,25,44.9,24.5z M52.1,25.5l0.5-3.6
	c0.1-0.5,0.5-0.8,1-0.8l3.6,0.5c0.5,0.1,0.8,0.5,0.8,1l-0.5,3.6c-0.1,0.5-0.5,0.8-1,0.8l-3.6-0.5C52.4,26.5,52.1,26,52.1,25.5z
	 M22.2,28.6l0.5-3.6c0.1-0.5,0.5-0.8,1-0.8l3.6,0.5c0.5,0.1,0.8,0.5,0.8,1l-0.5,3.6c-0.1,0.5-0.5,0.8-1,0.8l-3.6-0.5
	C22.4,29.5,22.1,29,22.2,28.6z M29.4,29.6l0.5-3.6c0.1-0.5,0.5-0.8,1-0.8l3.6,0.5c0.5,0.1,0.8,0.5,0.8,1l-0.5,3.6
	c-0.1,0.5-0.5,0.8-1,0.8l-3.6-0.5C29.7,30.6,29.3,30.1,29.4,29.6z M36.6,30.7l0.5-3.6c0.1-0.5,0.5-0.8,1-0.8l3.6,0.5
	c0.5,0.1,0.8,0.5,0.8,1L42,31.5c-0.1,0.5-0.5,0.8-1,0.8l-3.6-0.5C36.9,31.6,36.6,31.2,36.6,30.7L36.6,30.7z M43.8,31.7l0.5-3.6
	c0.1-0.5,0.5-0.8,1-0.8l3.6,0.5c0.5,0.1,0.8,0.5,0.8,1l-0.5,3.6c-0.1,0.5-0.5,0.8-1,0.8l-3.6-0.5C44.1,32.7,43.8,32.2,43.8,31.7
	L43.8,31.7z M51.1,32.8l0.5-3.6c0.1-0.5,0.5-0.8,1-0.8l3.6,0.5c0.5,0.1,0.8,0.5,0.8,1l-0.5,3.6c-0.1,0.5-0.5,0.8-1,0.8l-3.6-0.5
	C51.4,33.7,51,33.3,51.1,32.8z M21.1,35.8l0.5-3.6c0.1-0.5,0.5-0.8,1-0.8l3.6,0.5c0.5,0.1,0.8,0.5,0.8,1l-0.5,3.6
	c-0.1,0.5-0.5,0.8-1,0.8l-3.6-0.5C21.4,36.7,21,36.3,21.1,35.8z M28.3,36.8l0.5-3.6c0.1-0.5,0.5-0.8,1-0.8l3.6,0.5
	c0.5,0.1,0.8,0.5,0.8,1l-0.5,3.6c-0.1,0.5-0.5,0.8-1,0.8l-3.6-0.5C28.6,37.8,28.3,37.3,28.3,36.8z M35.6,37.9l0.5-3.6
	c0.1-0.5,0.5-0.8,1-0.8l3.6,0.5c0.5,0.1,0.8,0.5,0.8,1L41,38.7c-0.1,0.5-0.5,0.8-1,0.8l-3.6-0.5C35.8,38.8,35.5,38.4,35.6,37.9
	L35.6,37.9z M42.8,38.9l0.5-3.6c0.1-0.5,0.5-0.8,1-0.8l3.6,0.5c0.5,0.1,0.8,0.5,0.8,1l-0.5,3.6c-0.1,0.5-0.5,0.8-1,0.8L43.6,40
	C43.1,39.9,42.7,39.4,42.8,38.9z"/>
</svg>
