<?xml version="1.0" encoding="utf-8"?>
<!-- Generator: Adobe Illustrator 24.2.1, SVG Export Plug-In . SVG Version: 6.00 Build 0)  -->
<svg version="1.1" id="Layer_1" xmlns="http://www.w3.org/2000/svg" xmlns:xlink="http://www.w3.org/1999/xlink" x="0px" y="0px"
	 viewBox="0 0 20 20" style="enable-background:new 0 0 20 20;" xml:space="preserve">
<style type="text/css">
	.st0{fill:#010101;}
</style>
<g>
	<path class="st0" d="M19,8.8l-8.4-8.4C10.3,0.2,9.9,0,9.4,0C9,0,8.6,0.2,8.3,0.5l-1,1C7,1.8,6.8,2.1,6.8,2.6c0,0.5,0.2,0.8,0.5,1.2
		l3.8,3.8h-9C1.6,7.5,1.2,7.7,1,8C0.7,8.3,0.6,8.7,0.6,9.2v1.6c0,0.5,0.1,0.8,0.4,1.2s0.6,0.5,1.1,0.5h9l-3.8,3.8
		c-0.3,0.3-0.5,0.7-0.5,1.2c0,0.5,0.2,0.8,0.5,1.2l1,1C8.6,19.8,9,20,9.4,20c0.4,0,0.8-0.2,1.2-0.5l8.4-8.4c0.3-0.3,0.5-0.7,0.5-1.2
		C19.4,9.5,19.3,9.1,19,8.8z"/>
</g>
</svg>
