<svg aria-hidden="true" style="position: absolute; width: 0; height: 0; overflow: hidden;" version="1.1" xmlns="http://www.w3.org/2000/svg" xmlns:xlink="http://www.w3.org/1999/xlink">
<defs>
<symbol id="icon-no-fees" viewBox="0 0 450 450"><path d="M220.8 403.8c-90.1 0-163.4-73.3-163.4-163.4 0-35.5 11.2-69.3 32.4-97.6 1.8-2.4 5.3-2.9 7.7-1.1 2.4 1.8 2.9 5.3 1.1 7.7-19.8 26.5-30.2 57.9-30.2 91.1 0 84 68.4 152.4 152.4 152.4 37.9 0 73.9-13.9 102-39.1L103.6 134.4c-2.1-2.1-2.2-5.6-.1-7.7 31-32 72.7-49.6 117.3-49.6 90.1 0 163.4 73.3 163.4 163.4 0 36.9-12 71.8-34.8 100.8-1.9 2.4-5.3 2.8-7.7.9-2.4-1.9-2.8-5.3-.9-7.7 21.2-27 32.4-59.5 32.4-94 0-84-68.4-152.4-152.4-152.4-39.8 0-77.1 15-105.6 42.5L333.7 349l.6.4c1.2 1 2 2.5 2 4 .1 1.6-.5 3.1-1.7 4.2-30.6 29.8-71 46.2-113.8 46.2z"/><path d="M129.6 275.5V223h-4.9c-.8 0-1.4-.3-1.8-.9-.4-.6-.6-1.5-.6-2.8v-1.5c0-1.3.2-2.2.6-2.8.4-.6 1-.9 1.8-.9h4.9v-11.6c0-6.4 1.6-10.8 4.8-13.2 3.2-2.4 6.8-3.6 11-3.6 5.9 0 8.9 1.2 8.9 3.7 0 .8-.2 2-.7 3.5-.5 1.5-1.1 2.3-1.8 2.3-.4 0-1-.1-1.8-.3-.8-.2-1.9-.3-3.5-.3-2.1 0-3.7.6-4.9 1.8-1.1 1.2-1.7 3.6-1.7 7.3v10.6h10.6c.9 0 1.5.3 1.9.9.4.6.5 1.5.5 2.8v1.5c0 1.3-.2 2.2-.5 2.8-.4.6-1 .9-1.9.9h-10.6v52.6c0 1.8-1.6 2.7-4.9 2.7h-.5c-3.3-.3-4.9-1.2-4.9-3zM170.1 270.8c-4.9-5.3-7.3-13.4-7.3-24.3 0-10.8 2.4-19 7.2-24.6 4.8-5.6 11.9-8.4 21.2-8.4 8.3 0 14.6 2.7 18.8 8.1 4.2 5.4 6.3 13.3 6.3 23.7 0 .7-.5 1.8-1.5 3-1 1.3-1.8 2-2.6 2h-38.6c.5 6.8 2.2 11.7 5.2 14.9 3 3.2 7.5 4.8 13.5 4.8 3.4 0 6.4-.4 8.8-1.3 2.5-.9 4.5-1.7 6.2-2.6 1.6-.9 2.6-1.3 2.8-1.3.8 0 1.7.8 2.7 2.4 1 1.6 1.5 2.8 1.5 3.7 0 1-1 2.1-3 3.4-2 1.3-4.7 2.3-8.1 3.2-3.4.9-7 1.3-10.8 1.3-9.9-.1-17.4-2.7-22.3-8zm35.4-29.3c0-12.9-4.9-19.3-14.6-19.3-10.5 0-16.2 6.4-17.1 19.3h31.7zM234.6 270.8c-4.9-5.3-7.3-13.4-7.3-24.3 0-10.8 2.4-19 7.2-24.6 4.8-5.6 11.9-8.4 21.2-8.4 8.3 0 14.6 2.7 18.8 8.1 4.2 5.4 6.3 13.3 6.3 23.7 0 .7-.5 1.8-1.5 3-1 1.3-1.8 2-2.6 2h-38.6c.5 6.8 2.2 11.7 5.2 14.9 3 3.2 7.5 4.8 13.5 4.8 3.4 0 6.4-.4 8.8-1.3 2.5-.9 4.5-1.7 6.2-2.6 1.6-.9 2.6-1.3 2.8-1.3.8 0 1.7.8 2.7 2.4 1 1.6 1.5 2.8 1.5 3.7 0 1-1 2.1-3 3.4-2 1.3-4.7 2.3-8.1 3.2-3.4.9-7 1.3-10.8 1.3-9.9-.1-17.4-2.7-22.3-8zm35.4-29.3c0-12.9-4.9-19.3-14.6-19.3-10.5 0-16.2 6.4-17.1 19.3H270zM300.8 277.8c-3-.9-5.3-1.9-7.1-3.1-1.8-1.2-2.6-2.3-2.6-3.3 0-.8.5-2 1.5-3.7 1-1.6 1.9-2.4 2.7-2.4.2 0 .9.4 2.3 1.3s3.1 1.7 5.2 2.4 4.4 1.1 6.9 1.1c3.9 0 6.9-.8 8.9-2.3 2-1.5 3-3.8 3-6.7s-1-5.2-3-6.7-5.1-3-9.2-4.4c-3.5-1.1-6.4-2.4-8.8-3.7-2.4-1.3-4.3-3.3-5.9-5.7-1.5-2.5-2.3-5.7-2.3-9.6 0-3.4.9-6.5 2.6-9.2 1.7-2.7 4.1-4.8 7.2-6.3 3-1.5 6.5-2.3 10.4-2.3 4.1 0 7.9.5 11.2 1.6 3.3 1.1 4.9 2.3 4.9 3.7 0 1.1-.5 2.4-1.4 4.1-.9 1.7-1.8 2.5-2.5 2.5-.2-.1-1.3-.6-3.2-1.6-1.9-1-4.5-1.5-7.9-1.5-3.2 0-5.8.7-7.8 2.2-2 1.5-3 3.5-3 6 0 2.4.7 4.2 2 5.5 1.3 1.3 3.8 2.6 7.5 3.8 6.3 2.1 11.2 4.7 14.5 7.7 3.3 3 5 7.3 5 12.9 0 3.6-1 6.8-2.9 9.7-1.9 2.9-4.5 5.2-7.8 6.8s-6.9 2.5-10.9 2.5c-3.3 0-6.5-.4-9.5-1.3z"/>
</symbol>
<symbol id="icon-transfer-90" viewBox="0 0 450 450"><path d="M371.9 91.1h-82.6c-2.4.1-4.2 2.1-4.2 4.4 0 1 .4 2.1 1.2 2.8l24.1 24.1c.8.8.8 2.2 0 2.9l-43.1 43.2c-1.7 1.6-1.7 4.3-.1 6 1.6 1.7 4.3 1.7 6 .1l.1-.1 47.7-47.7c1.6-1.6 1.6-4.4 0-6L303.2 103c-.8-.8-.8-2.2 0-2.9.4-.4.9-.6 1.6-.6h60.9c1.1 0 2.1.9 2.1 2.1v60.9c0 .9-.5 1.6-1.3 1.9-.3.1-.5.2-.8.2-.5 0-1.1-.3-1.5-.6l-17.8-17.8c-1.6-1.6-4.4-1.6-6 0L292.6 194c-1.7 1.6-1.7 4.3-.1 6s4.3 1.7 6 .1l.1-.1 43.1-43.1c.4-.4.9-.6 1.5-.6.5 0 1.1.3 1.5.6l24.1 24.1c.8.8 1.9 1.3 3 1.3.6 0 1.1-.1 1.6-.3 1.6-.7 2.7-2.2 2.6-4V95.3c.1-2.3-1.7-4.2-4.1-4.2zM376.2 212.5v69.9c-.1 2.4-2.1 4.2-4.4 4.2-1 0-2.1-.4-2.8-1.2l-21-21c-.8-.8-2.2-.8-2.9 0l-40 40c-1.6 1.6-4.4 1.6-6 0s-1.6-4.4 0-6l44.5-44.4c1.6-1.6 4.4-1.6 6 0l14.6 14.6c.8.8 2.2.8 2.9 0 .4-.4.6-.9.6-1.5v-48.2c0-1.1-.9-2.1-2.1-2.1h-48.2c-.9 0-1.6.5-1.9 1.3-.1.3-.2.5-.2.8 0 .5.3 1.1.6 1.5l14.6 14.6c1.6 1.6 1.6 4.4 0 6L305 266.4c-1.6 1.6-4.4 1.6-6 0-.8-.8-1.2-1.9-1.2-3s.4-2.2 1.3-3l21-21c.8-.8.8-2.2 0-2.9l-21-21c-1.6-1.6-1.7-4.3 0-6 .8-.8 1.9-1.3 3-1.3H372c2.2.1 4.1 2 4.2 4.3zM197.7 100.9c-.1.3-.2.5-.2.8 0 .5.2 1.1.6 1.5l14.6 14.6c1.6 1.6 1.6 4.4 0 6l-44.5 44.5c-1.6 1.7-4.3 1.7-6 .1-1.7-1.6-1.7-4.3-.1-6l.1-.1 40-40c.8-.8.8-2.2 0-2.9l-21-21c-1.6-1.6-1.6-4.4 0-6 .8-.8 1.9-1.2 3-1.2h69.9c2.4 0 4.3 1.9 4.3 4.3v69.9c-.1 2.4-2.1 4.2-4.4 4.2-1 0-2.1-.4-2.8-1.2l-21-21c-.8-.8-2.2-.8-2.9 0l-21 21c-1.6 1.7-4.3 1.7-6 .1-1.7-1.6-1.7-4.3-.1-6l.1-.1 25.4-25.4c1.6-1.6 4.4-1.6 6 0l14.6 14.6c.8.8 2.2.8 2.9 0 .4-.4.6-.9.6-1.5v-48.2c0-1.1-.9-2.1-2.1-2.1h-48.2c-.8-.2-1.6.3-1.8 1.1z"/><g><path d="M134.2 194.6c7.8 0 15.1 1.7 21.9 5.1s12.4 8.8 16.7 16.2 6.5 17 6.5 28.5c0 21.7-4.8 39.1-14.6 51.8-9.7 12.8-20.1 21.7-31 26.7s-18.3 7.5-22 7.5c-2.1 0-3.8-.9-5.2-2.9-1.4-2-2.5-4.2-3.3-6.8-.8-2.6-1.1-4.6-1.1-6.1 0-1.4.2-2.3.5-2.8s.9-.9 2-1.1c9.7-2.7 18.2-7.3 25.7-14 7.4-6.6 12.7-14.5 15.8-23.7-5.9 3.2-12.2 4.7-19.1 4.7-5.4 0-11-1.3-16.8-4-5.7-2.7-10.6-7.1-14.7-13.1s-6.1-13.9-6.1-23.4c0-9.8 2.2-17.9 6.5-24.2 4.3-6.4 9.8-11 16.6-14.1 6.7-2.9 13.9-4.3 21.7-4.3m.9 60.8c4.6 0 9.6-1.6 15.1-4.6.1-1.9.2-4.8.2-8.8 0-8.9-1.5-15.4-4.5-19.3-3-4-7-6-11.9-6-4.6 0-8.5 1.8-11.6 5.5-3.1 3.7-4.7 8.4-4.7 14.1 0 5.9 1.6 10.4 4.6 13.9 3.2 3.5 7.4 5.2 12.8 5.2m-.9-67.7c-8.7 0-17 1.7-24.6 5.1-7.9 3.5-14.5 9.1-19.5 16.5-5.1 7.5-7.7 17-7.7 28.1 0 10.9 2.4 20.1 7.3 27.3 4.7 7.1 10.7 12.2 17.5 15.4 6.6 3.1 13.3 4.7 19.7 4.7 1.8 0 3.6-.1 5.4-.3-1.9 2.5-4.1 4.9-6.6 7.2-6.6 5.9-14.3 10-22.9 12.4-2.8.7-4.8 2.2-6.1 4.1-1 1.6-1.6 3.7-1.6 6.5 0 2.2.4 4.8 1.5 8.1.9 3.3 2.4 6.2 4.2 8.8 2.7 3.8 6.5 5.9 10.8 5.9 3.3 0 9.1-.9 24.8-8.2 11.9-5.5 23.3-15.2 33.6-28.8 10.6-14 16-32.8 16-56.1 0-12.8-2.5-23.5-7.4-32-5-8.6-11.6-15-19.6-19-7.6-3.8-16-5.7-24.8-5.7zm.9 60.8c-4.7 0-6.6-1.6-7.7-2.8-1.9-2.1-2.8-5.1-2.8-9.2s1-7.2 3-9.7c1.8-2.2 3.7-3.1 6.3-3.1 2.8 0 4.7.9 6.5 3.2 1.1 1.6 3.1 5.5 3.1 15.1v4.5c-3 1.4-5.9 2-8.4 2z"/><path d="M237 194.3c9.4 0 17.5 2.7 24.2 8.1 6.7 5.4 11.9 13.3 15.5 23.5 3.6 10.3 5.4 22.5 5.4 36.7 0 14.2-1.8 26.5-5.4 36.7-3.6 10.3-8.8 18.1-15.5 23.5-6.7 5.4-14.8 8.1-24.2 8.1-9.4 0-17.5-2.7-24.2-8.1-6.7-5.4-11.9-13.3-15.5-23.5-3.6-10.3-5.4-22.5-5.4-36.7 0-14.2 1.8-26.5 5.4-36.7 3.6-10.3 8.8-18.1 15.5-23.5 6.7-5.3 14.7-8.1 24.2-8.1m0 114.4c5.3 0 9.5-3.9 12.3-11.6 2.8-7.8 4.3-19.2 4.3-34.4s-1.5-26.6-4.3-34.4c-2.8-7.8-7-11.6-12.3-11.6s-9.5 3.9-12.3 11.6c-2.8 7.8-4.3 19.2-4.3 34.4s1.5 26.6 4.3 34.4c2.8 7.8 6.9 11.6 12.3 11.6m0-121.3c-11 0-20.6 3.3-28.5 9.7-7.8 6.2-13.7 15.2-17.8 26.6-3.9 11-5.9 24.1-5.9 39.1s2 28.1 5.9 39.1c4.1 11.5 10 20.4 17.8 26.6 7.9 6.4 17.6 9.7 28.5 9.7s20.6-3.3 28.5-9.7c7.8-6.2 13.7-15.2 17.8-26.6 3.9-11 5.9-24.1 5.9-39.1s-2-28.1-5.9-39.1c-4.1-11.4-10-20.4-17.8-26.6-8-6.4-17.6-9.7-28.5-9.7zm0 114.4c-2.7 0-4.7-3.9-5.9-7.2-2.6-7-3.9-17.7-3.9-32 0-14.2 1.3-25 3.9-32 1.2-3.3 3.2-7.2 5.9-7.2s4.7 3.9 5.9 7.2c2.6 7 3.9 17.8 3.9 32s-1.3 25-3.9 32c-1.3 3.4-3.3 7.2-5.9 7.2z"/></g>
</symbol>
<symbol id="icon-affordable-costs" viewBox="0 0 450 450"><path d="M303.7 272.5c1.4-2 .8-4.8-1.2-6.1-8.7-5.8-18.9-8.9-29.5-8.9-29.2 0-53 23.8-53 53s23.8 53 53 53 53-23.8 53-53c0-10.5-3.1-20.6-8.8-29.3-1.4-2-4.1-2.6-6.1-1.2-2 1.4-2.6 4.1-1.2 6.1 4.8 7.2 7.4 15.7 7.4 24.4 0 24.4-19.8 44.2-44.2 44.2-24.4 0-44.2-19.8-44.2-44.2 0-24.4 19.8-44.2 44.2-44.2 8.8 0 17.3 2.6 24.5 7.4 2 1.3 4.7.8 6.1-1.2z"/><path d="M273 239.7c-39 0-70.7 31.7-70.7 70.7 0 15.7 5 30.6 14.6 43 1.5 1.9 4.3 2.3 6.2.8 1.9-1.5 2.3-4.3.8-6.2-8.4-10.9-12.8-23.9-12.8-37.6 0-34.1 27.7-61.9 61.9-61.9 34.1 0 61.9 27.7 61.9 61.9s-27.7 61.9-61.9 61.9c-13.8 0-26.8-4.4-37.6-12.8-1.9-1.5-4.7-1.1-6.2.8-1.5 1.9-1.1 4.7.8 6.2 12.4 9.6 27.3 14.6 43 14.6 39 0 70.7-31.7 70.7-70.7S312 239.7 273 239.7zM343.7 186.7c-25.6 0-47.5 18.2-52.1 43.4-.4 2.4 1.1 4.7 3.5 5.1.3.1.5.1.8.1 2.1 0 3.9-1.5 4.3-3.6 3.8-20.9 22.1-36.1 43.5-36.1 8.8 0 17.3 2.6 24.5 7.4 2 1.4 4.8.8 6.1-1.2 1.4-2 .8-4.8-1.2-6.1-8.7-5.9-18.8-9-29.4-9zM351.7 283.2c-2.4.4-4 2.7-3.5 5.1.4 2.1 2.2 3.6 4.3 3.6.3 0 .5 0 .8-.1 25.1-4.6 43.4-26.5 43.4-52.1 0-10.5-3.1-20.6-8.8-29.3-1.4-2-4.1-2.6-6.1-1.2-2 1.4-2.6 4.1-1.2 6.1 4.8 7.2 7.4 15.7 7.4 24.4-.1 21.4-15.3 39.6-36.3 43.5z"/><path d="M343.7 169.1c-33.5 0-62.6 23.8-69.3 56.6-.3 1.6-.6 3.1-.8 4.7-.3 2.4 1.4 4.6 3.8 5 2.4.3 4.6-1.4 5-3.8.2-1.4.4-2.8.7-4.1 5.8-28.7 31.3-49.5 60.6-49.5 34.1 0 61.9 27.7 61.9 61.9 0 29.3-20.8 54.8-49.5 60.6-1.4.3-2.7.5-4.1.7-2.4.3-4.1 2.5-3.8 5 .3 2.2 2.2 3.8 4.4 3.8h.6c1.6-.2 3.2-.5 4.7-.8 32.8-6.7 56.6-35.8 56.6-69.3-.1-39.1-31.8-70.8-70.8-70.8zM273 270.8c3.2 0 5.8 2.6 5.8 5.8v.9c0 .4.3.8.7 1 8.1 2.3 12.8 9 12.8 18.5 0 3.2-2.6 5.8-5.8 5.8s-5.8-2.6-5.8-5.8c0-4-.9-7.8-7.8-7.8s-7.8 3.7-7.8 7.8c0 3.5 3.1 5.2 10.1 8.3 7.2 3.1 17 7.4 17 18.8 0 9.5-4.7 16.2-12.8 18.5-.4.1-.7.5-.7 1v.9c0 3.2-2.6 5.8-5.8 5.8s-5.8-2.6-5.8-5.8v-.9c0-.4-.3-.8-.7-1-8.1-2.3-12.8-9-12.8-18.5 0-3.2 2.6-5.8 5.8-5.8s5.8 2.6 5.8 5.8c0 4 .9 7.8 7.8 7.8 4 0 7.8-.9 7.8-7.8 0-3.4-3.1-5.1-10.1-8.2-7.2-3.2-17-7.5-17-18.9 0-9.5 4.7-16.2 12.8-18.5.4-.1.7-.5.7-1v-.9c0-3.2 2.6-5.8 5.8-5.8"/><path d="M346.1 234.6c-7-3.1-10.1-4.8-10.1-8.3 0-4 .9-7.8 7.8-7.8s7.8 3.7 7.8 7.8c0 3.2 2.6 5.8 5.8 5.8s5.8-2.6 5.8-5.8c0-9.5-4.7-16.2-12.8-18.5-.4-.1-.7-.5-.7-1v-.8c0-3.2-2.6-5.8-5.8-5.8s-5.8 2.6-5.8 5.8v.9c0 .4-.3.8-.7 1-8.1 2.3-12.8 9-12.8 18.5 0 11.4 9.8 15.7 17 18.9 7 3.1 10.1 4.8 10.1 8.2 0 6.8-3.7 7.8-7.8 7.8-6.8 0-7.8-3.7-7.8-7.8 0-3.2-2.6-5.8-5.8-5.8-2.1 0-4 1.2-5 2.9 8.9 7.8 16.1 17.5 20.9 28.5 2-.9 3.5-2.9 3.5-5.3v-.9c0-.4.3-.8.7-1 8.1-2.3 12.8-9 12.8-18.5-.2-11.3-10-15.6-17.1-18.8z"/><g><path d="M204 166.9c3.2 0 5.8 2.6 5.8 5.8v.9c0 .4.3.8.7 1 8.1 2.3 12.8 9 12.8 18.5 0 3.2-2.6 5.8-5.8 5.8s-5.8-2.6-5.8-5.8c0-4-.9-7.8-7.8-7.8s-7.8 3.7-7.8 7.8c0 3.5 3.1 5.2 10.1 8.3 7.2 3.1 17 7.4 17 18.8 0 9.5-4.7 16.2-12.8 18.5-.4.1-.7.5-.7 1v.9c0 3.2-2.6 5.8-5.8 5.8s-5.8-2.6-5.8-5.8v-.9c0-.4-.3-.8-.7-1-8.1-2.3-12.8-9-12.8-18.5 0-3.2 2.6-5.8 5.8-5.8s5.8 2.6 5.8 5.8c0 4 .9 7.8 7.8 7.8 4 0 7.8-.9 7.8-7.8 0-3.4-3.1-5.1-10.1-8.2-7.2-3.2-17-7.5-17-18.9 0-9.5 4.7-16.2 12.8-18.5.4-.1.7-.5.7-1v-.9c.1-3.2 2.7-5.8 5.8-5.8M109.2 200.8c3.2 0 5.8 2.6 5.8 5.8 0 3.2-2.6 5.8-5.8 5.8-3.2 0-5.8-2.6-5.8-5.8 0-3.2 2.6-5.8 5.8-5.8"/><path d="M359.9 112.7c3.2 0 5.8 2.6 5.8 5.8v39c-3.7-1.1-7.6-1.9-11.6-2.5v-29.7c0-.6-.4-1-1-1H55c-.6 0-1 .4-1 1v162.6c0 .6.4 1 1 1h130.1c-.8 3.7-1.4 7.6-1.8 11.6H48.2c-3.2 0-5.8-2.6-5.8-5.8V118.5c0-3.2 2.6-5.8 5.8-5.8h311.7"/><path d="M312.4 139.8c3.2 0 5.8 2.6 5.8 5.8 0 3.8 1 7.5 2.9 10.8-3.8.9-7.5 2.1-11.2 3.5-1.2-2.5-2.1-5.1-2.6-7.7-.1-.5-.5-.8-1-.8h-61.7c-.4 0-.8.3-.9.7-.1.4 0 .9.3 1.1 12.9 9.7 21.9 23.7 25.3 39.4-4.7 7.1-8.3 14.8-10.8 22.8.5-2.9.7-5.9.7-8.8 0-30.4-24.8-55.2-55.2-55.2s-55.2 24.8-55.2 55.2c0 13.7 5.1 26.9 14.3 37 8.8 9.7 20.6 15.9 33.5 17.7-.4.7-.9 1.4-1.3 2.1-.1.1-.2.3-.2.4l-.2.3c-.6 1-1 1.8-1.4 2.5-.1.3-.3.5-.4.8l-.2.4c-.4.7-.7 1.4-1.1 2.1-.2.4-.4.7-.5 1.1l-.1.3-.1.2c-.3.6-.6 1.2-.8 1.8H95.6c-3.2 0-5.8-2.6-5.8-5.8 0-11.8-9.6-21.3-21.3-21.3-3.2 0-5.8-2.6-5.8-5.8v-67.8c0-3.2 2.6-5.8 5.8-5.8 11.8 0 21.3-9.6 21.3-21.3 0-3.2 2.6-5.8 5.8-5.8h216.8m-210.7 122h61.8c.4 0 .8-.3.9-.7.1-.4 0-.9-.3-1.1-8.1-6.1-14.9-14.1-19.5-23.1-4.8-9.4-7.3-19.6-7.3-30.3s2.5-20.9 7.3-30.3c4.6-9 11.3-17 19.5-23.1.3-.3.5-.7.3-1.1-.1-.4-.5-.7-.9-.7h-61.7c-.5 0-.9.3-1 .8-2.6 12.9-12.7 23-25.6 25.6-.5.1-.8.5-.8 1v55.6c0 .5.3.9.8 1 12.9 2.6 23 12.7 25.6 25.6 0 .5.4.8.9.8"/></g>
</symbol>
<symbol id="icon-calendar" viewBox="0 0 450 450"><path d="M93.6 113.3c-2.2 0-4.1 1.8-4.1 4.1v248.5c0 2.2 1.8 4.1 4.1 4.1h278.8c2.2 0 4.1-1.8 4.1-4.1V117.4c0-2.2-1.8-4.1-4.1-4.1h-26.2V99.2c0-8.9-7.3-16.2-16.2-16.2s-16.2 7.3-16.2 16.2v14.1h-16.1V99.2c0-8.9-7.3-16.2-16.2-16.2s-16.2 7.3-16.2 16.2v14.1h-16.1V99.2c0-8.9-7.3-16.2-16.2-16.2s-16.2 7.3-16.2 16.2v14.1h-16.1V99.2c0-8.9-7.3-16.2-16.2-16.2s-16.2 7.3-16.2 16.2v14.1h-16.1V99.2c0-8.9-7.3-16.2-16.2-16.2s-16.2 7.3-16.2 16.2v14.1H93.6zm274.7 248.5H97.6V121.5h22.2v14.1c0 8.9 7.3 16.2 16.2 16.2s16.2-7.3 16.2-16.2v-14.1h16.1v14.1c0 8.9 7.3 16.2 16.2 16.2s16.2-7.3 16.2-16.2v-14.1h16.1v14.1c0 8.9 7.3 16.2 16.2 16.2s16.2-7.3 16.2-16.2v-14.1h16.1v14.1c0 8.9 7.3 16.2 16.2 16.2s16.2-7.3 16.2-16.2v-14.1h16.1v14.1c0 8.9 7.3 16.2 16.2 16.2s16.2-7.3 16.2-16.2v-14.1h22.2v240.3zm-38.4-218.2c-4.4 0-8.1-3.6-8.1-8.1V99.2c0-4.4 3.6-8.1 8.1-8.1s8.1 3.6 8.1 8.1v36.4c0 4.4-3.6 8-8.1 8zm-48.5 0c-4.4 0-8.1-3.6-8.1-8.1V99.2c0-4.4 3.6-8.1 8.1-8.1s8.1 3.6 8.1 8.1v36.4c0 4.4-3.6 8-8.1 8zm-48.5 0c-4.4 0-8.1-3.6-8.1-8.1V99.2c0-4.4 3.6-8.1 8.1-8.1s8.1 3.6 8.1 8.1v36.4c0 4.4-3.6 8-8.1 8zm-48.4 0c-4.4 0-8.1-3.6-8.1-8.1V99.2c0-4.4 3.6-8.1 8.1-8.1s8.1 3.6 8.1 8.1v36.4c-.1 4.4-3.7 8-8.1 8zm-48.5 0c-4.4 0-8.1-3.6-8.1-8.1V99.2c0-4.4 3.6-8.1 8.1-8.1s8.1 3.6 8.1 8.1v36.4c-.1 4.4-3.7 8-8.1 8z"/><path d="M148.1 190.1h-24.2c-3.3 0-6.1 2.7-6.1 6.1v24.2c0 3.3 2.7 6.1 6.1 6.1h24.2c3.3 0 6.1-2.7 6.1-6.1v-24.2c0-3.4-2.8-6.1-6.1-6.1zM196.6 190.1h-24.2c-3.3 0-6.1 2.7-6.1 6.1v24.2c0 3.3 2.7 6.1 6.1 6.1h24.2c3.3 0 6.1-2.7 6.1-6.1v-24.2c-.1-3.4-2.8-6.1-6.1-6.1zM245.1 190.1h-24.2c-3.3 0-6.1 2.7-6.1 6.1v24.2c0 3.3 2.7 6.1 6.1 6.1h24.2c3.3 0 6.1-2.7 6.1-6.1v-24.2c-.1-3.4-2.8-6.1-6.1-6.1zM293.6 190.1h-24.2c-3.3 0-6.1 2.7-6.1 6.1v24.2c0 3.3 2.7 6.1 6.1 6.1h24.2c3.3 0 6.1-2.7 6.1-6.1v-24.2c-.1-3.4-2.8-6.1-6.1-6.1zM342 190.1h-24.2c-3.3 0-6.1 2.7-6.1 6.1v24.2c0 3.3 2.7 6.1 6.1 6.1H342c3.3 0 6.1-2.7 6.1-6.1v-24.2c0-3.4-2.7-6.1-6.1-6.1zM148.1 238.6h-24.2c-3.3 0-6.1 2.7-6.1 6.1v24.2c0 3.3 2.7 6.1 6.1 6.1h24.2c3.3 0 6.1-2.7 6.1-6.1v-24.2c0-3.4-2.8-6.1-6.1-6.1zM196.6 238.6h-24.2c-3.3 0-6.1 2.7-6.1 6.1v24.2c0 3.3 2.7 6.1 6.1 6.1h24.2c3.3 0 6.1-2.7 6.1-6.1v-24.2c-.1-3.4-2.8-6.1-6.1-6.1zM245.1 238.6h-24.2c-3.3 0-6.1 2.7-6.1 6.1v24.2c0 3.3 2.7 6.1 6.1 6.1h24.2c3.3 0 6.1-2.7 6.1-6.1v-24.2c-.1-3.4-2.8-6.1-6.1-6.1zM293.6 238.6h-24.2c-3.3 0-6.1 2.7-6.1 6.1v24.2c0 3.3 2.7 6.1 6.1 6.1h24.2c3.3 0 6.1-2.7 6.1-6.1v-24.2c-.1-3.4-2.8-6.1-6.1-6.1zM342 238.6h-24.2c-3.3 0-6.1 2.7-6.1 6.1v24.2c0 3.3 2.7 6.1 6.1 6.1H342c3.3 0 6.1-2.7 6.1-6.1v-24.2c0-3.4-2.7-6.1-6.1-6.1zM148.1 287.1h-24.2c-3.3 0-6.1 2.7-6.1 6.1v24.2c0 3.3 2.7 6.1 6.1 6.1h24.2c3.3 0 6.1-2.7 6.1-6.1v-24.2c0-3.4-2.8-6.1-6.1-6.1zM196.6 287.1h-24.2c-3.3 0-6.1 2.7-6.1 6.1v24.2c0 3.3 2.7 6.1 6.1 6.1h24.2c3.3 0 6.1-2.7 6.1-6.1v-24.2c-.1-3.4-2.8-6.1-6.1-6.1zM245.1 287.1h-24.2c-3.3 0-6.1 2.7-6.1 6.1v24.2c0 3.3 2.7 6.1 6.1 6.1h24.2c3.3 0 6.1-2.7 6.1-6.1v-24.2c-.1-3.4-2.8-6.1-6.1-6.1zM293.6 287.1h-24.2c-3.3 0-6.1 2.7-6.1 6.1v24.2c0 3.3 2.7 6.1 6.1 6.1h24.2c3.3 0 6.1-2.7 6.1-6.1v-24.2c-.1-3.4-2.8-6.1-6.1-6.1z"/>
</symbol>
<symbol id="icon-no-exams" viewBox="0 0 450 450"><path d="M285.2 344.7H143c-6.8 0-12.4-5.5-12.4-12.2V163.3c0-2.1.9-4.1 2.3-5.6l19.6-19.4c1.5-1.5 3.5-2.3 5.6-2.3h127c6.8 0 12.4 5.5 12.4 12.2V189c0 1.9-1.6 3.5-3.5 3.5s-3.5-1.6-3.5-3.5v-40.6c0-2.9-2.4-5.3-5.4-5.3h-127c-.3 0-.5.1-.7.3l-19.6 19.4c-.2.2-.3.4-.3.6v169.1c0 2.9 2.4 5.3 5.4 5.3h142.2c3 0 5.4-2.4 5.4-5.3v-46.7c0-1.9 1.6-3.5 3.5-3.5s3.5 1.6 3.5 3.5v46.7c.1 6.7-5.5 12.2-12.3 12.2z"/><path d="M168.9 177.8H148c-1.9 0-3.5-1.6-3.5-3.5s1.6-3.5 3.5-3.5h17.4v-17.4c0-1.9 1.6-3.5 3.5-3.5s3.5 1.6 3.5 3.5v20.9c0 2-1.6 3.5-3.5 3.5zM203.7 327.3c-.9 0-1.8-.4-2.5-1-1-.9-1.3-2.4-.8-3.6l10.6-29.8c.2-.5.5-.9.8-1.3l91-91c6.9-6.9 18-7.2 24.6-.5 3.2 3.2 5 7.6 4.8 12.3-.1 4.6-2 9-5.4 12.3l-91 91c-.4.4-.8.6-1.3.8l-29.8 10.6c-.2.2-.6.2-1 .2zm13.6-31.4l-7.9 22.2 22.2-7.9 90.5-90.5c2.1-2.1 3.2-4.8 3.3-7.6.1-2.8-.9-5.3-2.8-7.2-3.9-3.9-10.6-3.7-14.8.5l-90.5 90.5zm16.2 17.3z"/><path d="M321.1 229c-.9 0-1.8-.3-2.5-1l-19.2-19.2c-1.4-1.4-1.4-3.6 0-4.9 1.4-1.4 3.6-1.4 4.9 0l19.2 19.2c1.4 1.4 1.4 3.6 0 4.9-.6.7-1.5 1-2.4 1zM314.4 235.8c-.9 0-1.8-.3-2.5-1l-19.2-19.2c-1.4-1.4-1.4-3.6 0-4.9 1.4-1.4 3.6-1.4 4.9 0l19.2 19.2c1.4 1.4 1.4 3.6 0 4.9-.6.6-1.5 1-2.4 1zM236.9 313.3c-.9 0-1.8-.3-2.5-1l-19.2-19.2c-1.4-1.4-1.4-3.6 0-4.9s3.6-1.4 4.9 0l19.2 19.2c1.4 1.4 1.4 3.6 0 4.9-.7.7-1.6 1-2.4 1zM252.4 216.1H162c-1.9 0-3.5-1.6-3.5-3.5s1.6-3.5 3.5-3.5h90.4c1.9 0 3.5 1.6 3.5 3.5-.1 1.9-1.6 3.5-3.5 3.5zM224.5 250.8H162c-1.9 0-3.5-1.6-3.5-3.5s1.6-3.5 3.5-3.5h62.6c1.9 0 3.5 1.6 3.5 3.5s-1.6 3.5-3.6 3.5z"/><g><path d="M220.8 403.8c-90.1 0-163.4-73.3-163.4-163.4 0-35.5 11.2-69.3 32.4-97.6 1.8-2.4 5.3-2.9 7.7-1.1 2.4 1.8 2.9 5.3 1.1 7.7-19.8 26.5-30.2 57.9-30.2 91.1 0 84 68.4 152.4 152.4 152.4 37.9 0 73.9-13.9 102-39.1L103.6 134.4c-2.1-2.1-2.2-5.6-.1-7.7 31-32 72.7-49.6 117.3-49.6 90.1 0 163.4 73.3 163.4 163.4 0 36.9-12 71.8-34.8 100.8-1.9 2.4-5.3 2.8-7.7.9-2.4-1.9-2.8-5.3-.9-7.7 21.2-27 32.4-59.5 32.4-94 0-84-68.4-152.4-152.4-152.4-39.8 0-77.1 15-105.6 42.5L333.7 349l.6.4c1.2 1 2 2.5 2 4 .1 1.6-.5 3.1-1.7 4.2-30.6 29.8-71 46.2-113.8 46.2z"/></g>
</symbol>
<symbol id="icon-no-gre" viewBox="0 0 450 450"><path d="M343.2 112.3c-2.1-2.2-5.5-2.3-7.7-.2l-78.8 72.8c-.7-.6-1.4-1.1-2.1-1.6-5.6-3.8-12.2-4.8-20.3-4.8h-29.2c-2.8 0-4.9 2.2-4.9 4.8V237l-18.1 16.7v-28.6c0-2.7-1.5-4.8-4.5-4.8h-27.4c-2.3 0-4.1 2-4.1 4.3 0 2.4 1.8 4.4 4.1 4.4h22.4v17.8c-5.5 4-13.7 7.3-23.2 7.3-18.4 0-33.1-13.3-33.1-34.2 0-18.4 14.9-33.8 33.1-33.8 4.9 0 8.7.7 11.8 1.8 6 2.1 7.7 4 10.1 4s4.5-1.8 4.5-4.5c0-2.8-2.4-4.6-6-6.1-5.6-2.3-11.7-4-20.4-4-23.8 0-43.3 19.2-43.3 42.6 0 27.6 19.2 42.8 42.8 42.8 9.8 0 17.9-2.9 23.5-6.7v2c0 1.3.4 2.5 1.2 3.3l-66.1 61.1C83.7 293.5 71.1 256.6 72.7 219 76.1 135 147.1 69.4 231 72.8c32.8 1.2 64.3 13.1 89.8 33.8 2.3 1.8 5.6 1.4 7.5-.8 2-2.3 1.7-5.8-.6-7.8-27.3-22.2-61.1-34.9-96.3-36.2-90-3.6-166.1 66.8-169.7 156.8-1.7 42.4 13.2 83.9 41.6 115.5.1.2.3.3.5.5 2.3 2 5.8 1.8 7.8-.5l.5-.5 88.3-81.5v6.1c0 2.6 2.1 4.8 4.9 4.8 2.7 0 4.9-2.2 4.9-4.8v-15.1l15-13.8h6.5l23.8 31.4c1 1.3 2.4 2.3 4.1 2.3 2.8 0 5-2.3 5-4.9 0-1.1-.5-2.3-1.3-3.3l-20.4-26c4.3-.7 8.2-2.1 12-4.9 6-4.4 9.8-10.9 9.8-19.9 0-3.7-.5-6.9-1.5-9.8l76-70.2c26.2 29.4 40 67.8 38.3 107.1-3.3 84-74.3 149.6-158.3 146.2-34.1-1.2-66.7-14-92.6-36.1-2.3-2-5.8-1.7-7.8.6s-1.7 5.8.6 7.8c27.8 23.8 62.8 37.4 99.3 38.7 90 3.6 166.1-66.8 169.7-156.8 1.7-44.3-14.5-87.3-45.2-119.2zM210.1 220.9v-34.2h23.2c5.5 0 10.2.5 14.3 2.9.8.5 1.5 1 2.2 1.6l-32 29.6h-7.7zm44.4-17.1c0 7.3-2.9 11.7-7.2 14.3-3.8 2.2-8.2 2.7-13.4 2.8l20.5-18.9c0 .6.1 1.2.1 1.8z"/><path d="M335.8 187.1c2.3 0 4.1-2 4.1-4.4 0-2.3-1.8-4.3-4.1-4.3h-51.4c-2.8 0-4.9 2.2-4.9 4.8v73.6c0 2.6 2.1 4.8 4.9 4.8h51.4c2.3 0 4.1-2 4.1-4.3 0-2.4-1.8-4.4-4.1-4.4h-46.5v-28.7h40.1c2.4 0 4.3-2 4.3-4.3s-1.8-4.4-4.3-4.4h-40.1v-28.4h46.5z"/>
</symbol>
<symbol id="icon-piggy-bank" viewBox="0 0 450 450"><path d="M314 204.4c0-12.1-9.8-21.9-21.9-21.9-12.1 0-21.9 9.8-21.9 21.9 0 12.1 9.8 21.9 21.9 21.9 12.1 0 21.9-9.8 21.9-21.9zm-32.9 0c0-6 4.9-11 11-11 6 0 11 4.9 11 11s-4.9 11-11 11-11-4.9-11-11zM200.7 159.1c-6.8 2-13.4 4.5-20.3 7.4-2.8 1.2-4.1 4.4-3 7.2.9 2.1 2.9 3.4 5.1 3.4.7 0 1.4-.1 2.1-.4 22.5-9.4 40.9-15.2 73-5.3 2.9.9 6-.7 6.9-3.6.9-2.9-.7-6-3.6-6.9-6.1-1.9-11.7-3.2-17-4.1 6.1-6 9.9-14.3 9.9-23.5 0-18.1-14.7-32.9-32.9-32.9-18.1 0-32.9 14.7-32.9 32.9 0 10.4 5 19.8 12.7 25.8zm20.2-47.8c12.1 0 21.9 9.8 21.9 21.9 0 12.1-9.8 21.9-21.9 21.9-12.1 0-21.9-9.8-21.9-21.9-.1-12.1 9.8-21.9 21.9-21.9z"/><path d="M365.4 215.8l-23.9-9.6c-.3-15.1-7.3-39.7-32.4-49.4l4.9-39.4c.3-2.2-.8-4.3-2.7-5.4-1.9-1.1-4.3-1-6 .4l-43.8 32.9c-2.4 1.8-2.9 5.2-1.1 7.7 1.8 2.4 5.2 2.9 7.7 1.1l33.5-25.1-3.9 31c-.3 2.7 1.3 5.2 3.9 5.9 30.7 8.9 29 42.3 28.9 43.7-.2 2.4 1.2 4.6 3.4 5.4l24 9.6V261l-24 9.6c-.2.1-.4.3-.6.4-.3.2-.6.3-.8.5-.3.2-.5.5-.8.8-.2.3-.4.5-.6.8-.2.3-.3.7-.4 1-.1.2-.2.4-.2.6-5.3 31.3-27 33.7-27.9 33.8-.2 0-.3.1-.4.1-.6.1-1.1.2-1.6.5-.3.2-.5.4-.8.6-.3.2-.6.4-.8.7-.5.5-.8 1.2-1.1 1.9l-9.7 29.1h-20.1l-9.4-18.9c-.1-.3-.4-.5-.6-.7-.2-.3-.4-.5-.6-.8-.3-.3-.6-.4-.9-.6-.3-.2-.5-.4-.9-.5-.3-.1-.7-.2-1.1-.2-.3-.1-.6-.1-1-.1s-.7.1-1.1.2c-.3.1-.6 0-.8.1-.2.1-22.3 8.5-51.2-.1-.2-.1-.4 0-.6-.1-.4-.1-.7-.1-1-.1-.4 0-.7.1-1.1.1l-.9.3c-.3.1-.6.3-.9.5-.3.2-.5.4-.8.6-.3.3-.5.6-.7.9-.1.2-.3.3-.4.5l-9.4 18.9h-19.9L155 307c-.2-.7-.5-1.3-1-1.9-.1-.1-.2-.1-.2-.2-.4-.5-.9-.9-1.4-1.2-21.2-11.5-35.5-38.2-35.5-66.4 0-37.4 25.4-70.1 61.7-79.6 2.9-.8 4.7-3.8 3.9-6.7-.8-2.9-3.8-4.7-6.7-3.9-16.2 4.2-30.5 12.6-41.8 23.7-1.1-1.9-2.3-3.7-3.3-5.6 7.6-9.1 14.4-20.2 12.1-29-1-4.1-4.4-9.4-14.3-11.6-10.3-2.2-15.1 1.3-17.4 4.6-5.2 7.7-.1 22.2 6.2 34.5-3 3.2-6.3 6.4-9.5 9.2-2.3 2-2.5 5.4-.5 7.7s5.4 2.5 7.7.5c1.4-1.3 4.4-3.9 7.9-7.4 1.2 2.1 2.4 3.9 3.4 5.5-12.8 16.1-20.4 36.4-20.4 58.1 0 31.7 15.3 60.7 39.2 74.8l10.4 36.3c.7 2.4 2.8 4 5.3 4H188c2.1 0 4-1.2 4.9-3l9-18c9.3 2.3 17.8 3.2 25.2 3.2 10.6 0 19-1.7 23.8-3l8.9 17.7c.9 1.9 2.8 3 4.9 3h27.4c2.4 0 4.5-1.5 5.2-3.7l9.9-29.8c11-2.5 27.9-12.9 33.5-39.2l24.7-9.9c2.1-.8 3.4-2.8 3.4-5.1v-43.8c0-2.2-1.4-4.2-3.4-5zM125 154.5c-4.4-9.4-6.5-16.9-4.9-19.2.1-.1.7-.5 2.2-.5.9 0 2.1.1 3.8.5 2.4.5 5.5 1.6 6 3.6.8 3.3-2.2 9.2-7.1 15.6z"/>
</symbol>
<symbol id="icon-trophy" viewBox="0 0 450 450"><path d="M226.9 266.1c-20.3 0-37.7-7.2-51.7-21.4-40.1-40.6-39.5-124-39.4-127.6 0-2.4 2-4.3 4.4-4.3h173.5c2.4 0 4.3 1.9 4.4 4.3 0 3.5.6 87-39.4 127.6-14.1 14.2-31.5 21.4-51.8 21.4zm-82.4-144.6c.4 17.5 4.3 84.1 36.9 117 12.3 12.5 27.6 18.8 45.5 18.8s33.2-6.3 45.5-18.8c32.6-33 36.4-99.5 36.9-117H144.5z"/><path d="M227.2 242.1c-24.3 0-42.7-15.3-53-44.3-.8-2.3.4-4.8 2.6-5.6 2.3-.8 4.8.4 5.6 2.6 9.2 25.6 24.3 38.5 44.9 38.5 2.4 0 4.4 1.9 4.4 4.4s-2.1 4.4-4.5 4.4zM173.2 240.3c-28 0-49-18.9-60.7-54.7-8.6-26.2-9.2-51.9-9.2-53 0-1.2.4-2.3 1.2-3.1.8-.8 1.9-1.3 3.1-1.3h32.5v8.7h-27.9c1.3 19.3 9.8 94.8 61 94.8v8.6zM280.9 240.3v-8.7c51.2 0 59.7-75.5 61-94.8H314v-8.7h32.5c1.2 0 2.3.5 3.1 1.3.8.8 1.3 2 1.2 3.1 0 1.1-.6 26.8-9.2 53-11.7 35.8-32.7 54.8-60.7 54.8zM226.9 305.6c-8.5 0-36.4-.8-36.4-11.8v-1.2l.6-1c.1-.2 10.8-18.9 2.2-34.2l7.6-4.3c8.9 15.8 2.3 33.3-.9 40 3.4 1.6 12.6 3.7 26.8 3.7 11.6 0 21.3-1.9 26-3.4-7.1-9.4-10.3-24.1.1-40.6l7.4 4.6c-11.3 18-1.6 30 1.7 33.2 1.6 1.6 2 3.8 1.2 5.8-3.1 7.6-27.9 9.2-36.3 9.2z"/><path d="M226.9 326.2c-26.5 0-71.3-4.2-71.3-19.9 0-10.9 21.4-15.9 39.4-18.1l1.1 8.6c-22.4 2.8-31.1 7.7-31.8 9.6 1.5 3.7 24.2 11.1 62.6 11.1 38.4 0 61.1-7.4 62.6-11.4-.7-1.7-9.6-6.6-32.3-9.4l1-8.6c18.2 2.2 40 7.1 40 18.2 0 15.7-44.8 19.9-71.3 19.9z"/><path d="M226.9 355.7c-26.5 0-71.2-4.2-71.3-19.9v-29.9h8.7v29.9c1.4 3.8 24.2 11.2 62.6 11.2 38.4 0 61.1-7.4 62.6-11.4v-29.7h8.7v29.9c-.1 15.7-44.9 19.9-71.3 19.9z"/></symbol>
<symbol id="icon-two-calendars" viewBox="0 0 450 450"><path d="M409.2 123.6l-21.4-3.1 1.7-11.5c1.2-7.3-3.8-14.1-11-15.3-7.3-1.2-14.1 3.8-15.3 11 0 .1 0 .3-.1.4l-1.7 11.5-13.1-1.9 1.7-11.5c1.1-7.3-4-14-11.3-15.1s-14 4-15.1 11.3l-1.7 11.5-13.1-1.9 1.7-11.5c1-7.3-4.1-14-11.4-15-7.2-1-13.8 4-14.9 11.1l-1.7 11.5-13.1-1.9 1.7-11.5c.9-7.3-4.2-14-11.5-14.9-7.1-.9-13.7 4-14.9 11.1L243 99.4l-13.1-1.9 1.7-11.5c1.1-7.3-4-14-11.3-15.1s-14 4-15.1 11.3l-1.7 11.5-21.4-3.1c-1.8-.3-3.5 1-3.8 2.8l-4.7 32.2c-6.1-3.2-13.6-.8-16.7 5.3-1.3 2.5-1.7 5.4-1.2 8.1l2.1 10.6-12.1 2.4-2.1-10.6c-1.5-6.7-8.2-10.9-14.8-9.4-6.5 1.4-10.6 7.7-9.5 14.2l2.1 10.6-12.2 2.4-2.1-10.6c-1.3-6.7-7.9-11.1-14.6-9.8s-11.1 7.9-9.8 14.6l2.1 10.6-19.8 4c-1.7.3-2.8 2-2.5 3.7l37 187.2c.3 1.7 2 2.8 3.7 2.5l200.9-39.6 74.7 10.9c1.8.3 3.5-1 3.8-2.8L412 127.4c.3-1.9-1-3.6-2.8-3.8zm-43.7 12.1l4.3-29.6c.5-3.6 3.8-6.2 7.4-5.7s6.2 3.8 5.7 7.4v.2l-4.3 29.6c-.5 3.6-3.8 6.2-7.4 5.7s-6.2-3.8-5.7-7.4c-.1-.1-.1-.1 0-.2zm-39.5-5.8l4.3-29.6c.5-3.6 3.9-6.1 7.5-5.6s6.1 3.9 5.6 7.5l-4.3 29.6c-.5 3.6-3.9 6.1-7.5 5.6s-6.1-3.8-5.6-7.5zm-39.5-5.7l4.3-29.6c.5-3.6 3.9-6.1 7.5-5.6s6.1 3.9 5.6 7.5l-4.3 29.6c-.5 3.6-3.9 6.1-7.5 5.6s-6.1-3.9-5.6-7.5zm-39.5-5.7l4.3-29.6c.5-3.6 3.9-6.1 7.5-5.6s6.1 3.9 5.6 7.5l-4.3 29.6c-.5 3.6-3.9 6.1-7.5 5.6s-6.1-3.9-5.6-7.5zm-39.5-5.8l4.3-29.6c.5-3.6 3.9-6.2 7.5-5.6 3.6.5 6.2 3.9 5.6 7.5l-4.3 29.6c-.5 3.6-3.9 6.1-7.5 5.6s-6.1-3.9-5.6-7.5zm-40.7 17.8c2.2-.4 4.4.4 5.9 2.1l-4.9 33.9c-.2-.4-.3-.8-.4-1.3l-5.4-27.4c-.7-3.3 1.4-6.6 4.8-7.3zm-36.5 7.3c3.3-.7 6.6 1.5 7.3 4.9l5.4 27.4c.7 3.4-1.5 6.6-4.9 7.3-3.4.7-6.6-1.5-7.3-4.9l-5.4-27.4c-.7-3.4 1.5-6.6 4.9-7.3zM93.7 145c3.3-.7 6.6 1.5 7.3 4.8l5.4 27.4c.7 3.4-1.5 6.6-4.9 7.3s-6.6-1.5-7.3-4.9l-5.4-27.4c-.6-3.3 1.6-6.6 4.9-7.2zm11.4 209.6L69.3 173.5l16.7-3.3 2.1 10.6c1.3 6.7 7.8 11.2 14.6 9.9s11.2-7.8 9.9-14.6v-.1l-2.1-10.6 12.1-2.4 2.1 10.6c1.2 6.8 7.7 11.3 14.4 10.1s11.3-7.7 10.1-14.4c0-.1-.1-.3-.1-.4l-2.1-10.6 12.1-2.4 2.1 10.6c.6 3.3 2.6 6.2 5.4 8l-6.4 43.4-.7-3.6c-.5-2.5-2.9-4.2-5.5-3.7l-18.3 3.6c-2.5.5-4.2 2.9-3.7 5.5l3.6 18.3c.5 2.5 2.9 4.2 5.4 3.7l16-3.2-1.4 9.8-12.8 2.5c-2.5.5-4.2 2.9-3.7 5.5l3.7 18.2c.5 2.5 2.9 4.2 5.5 3.7l3.1-.6-1.4 9.8c-2.5.5-4.1 3-3.6 5.4l3.6 18.3c.5 2.5 2.9 4.2 5.5 3.7l18.3-3.6c2.5-.5 4.2-2.9 3.7-5.5l-.5-2.3 9.9 1.4c.9 2 3 3.2 5.2 2.7l5.8-1.1 87.6 12.7-180.4 35.5zm271.4-29.2l-60.7-8.8-10.5-1.5-91.8-13.4-27.9-4.1-9.8-1.4-19.8-2.9.5-3.7.6-3.9 1.4-9.8 4.2-29 10.3-70.6.9-6.2 3-20.3 2.6-17.9 5-34.3 18.1 2.6-1.7 11.5c-1.1 7.3 4 14 11.3 15.1s14-4 15.1-11.3L229 104l13.1 1.9-1.7 11.5c-1 7.3 4.1 14 11.4 15 7.2 1 13.8-4 14.9-11.1l1.7-11.5 13.1 1.9-1.7 11.5c-1.1 7.3 4 14 11.3 15.1s14-4 15.1-11.3l1.7-11.5 13.1 1.9-1.7 11.5c-1.1 7.3 4 14 11.3 15.1s14-4 15.1-11.3l1.7-11.5 13.1 1.9-1.7 11.5c-.9 7.3 4.2 14 11.5 14.9 7.1.9 13.7-4 14.9-11.1l1.7-11.5 18.1 2.6-28.5 195.9z"/><path d="M98.4 221.4l18.3-3.5c2.5-.5 5 1.2 5.4 3.7l3.5 18.3c.5 2.5-1.2 5-3.7 5.4l-18.2 3.5c-2.5.5-5-1.2-5.4-3.7l-3.6-18.3c-.5-2.5 1.1-4.9 3.7-5.4zm8.1 36.4l18.3-3.6c2.5-.5 5 1.1 5.5 3.7l3.6 18.3c.5 2.5-1.1 5-3.7 5.5l-18.3 3.6c-2.5.5-5-1.1-5.5-3.7l-3.6-18.3c-.4-2.5 1.2-5 3.7-5.5zm7.2 36.6l18.3-3.6c2.5-.5 5 1.1 5.5 3.7l3.6 18.3c.5 2.5-1.1 5-3.7 5.5l-18.3 3.6c-2.5.5-5-1.1-5.5-3.7l-3.5-18.4c-.5-2.5 1.1-4.9 3.6-5.4zm74.9-114.6l2.8-19.7c.4-2.7 2.9-4.6 5.6-4.2l19.7 2.8c2.7.4 4.6 2.9 4.2 5.6l-2.8 19.7c-.4 2.7-2.9 4.6-5.6 4.2l-19.7-2.8c-2.7-.3-4.6-2.8-4.2-5.6zm40.1 6.6l2.9-19.7c.4-2.7 2.9-4.6 5.7-4.2l19.7 2.9c2.7.4 4.6 2.9 4.2 5.7l-2.9 19.7c-.4 2.7-2.9 4.6-5.7 4.2l-19.7-2.9c-2.7-.5-4.6-3-4.2-5.7zm39.5 5.7l2.9-19.7c.4-2.7 2.9-4.6 5.7-4.2l19.7 2.9c2.7.4 4.6 2.9 4.2 5.7l-2.9 19.7c-.4 2.7-2.9 4.6-5.7 4.2l-19.7-2.9c-2.7-.4-4.6-3-4.2-5.7zm39.5 5.8l2.9-19.7c.4-2.7 2.9-4.6 5.7-4.2l19.7 2.9c2.7.4 4.6 2.9 4.2 5.7l-2.9 19.7c-.4 2.7-2.9 4.6-5.7 4.2l-19.7-2.9c-2.7-.5-4.6-3-4.2-5.7zm39.5 5.7l2.9-19.7c.4-2.7 2.9-4.6 5.7-4.2l19.7 2.9c2.7.4 4.6 2.9 4.2 5.7l-2.9 19.7c-.4 2.7-2.9 4.6-5.7 4.2l-19.7-2.9c-2.7-.4-4.6-3-4.2-5.7zm-163.7 16.5l2.9-19.7c.4-2.7 2.9-4.6 5.7-4.2l19.7 2.9c2.7.4 4.6 2.9 4.2 5.7l-2.9 19.7c-.4 2.7-2.9 4.6-5.7 4.2l-19.7-2.9c-2.7-.4-4.6-3-4.2-5.7zm39.5 5.8l2.9-19.7c.4-2.7 2.9-4.6 5.7-4.2l19.7 2.9c2.7.4 4.6 2.9 4.2 5.7l-2.9 19.7c-.4 2.7-2.9 4.6-5.7 4.2l-19.7-2.9c-2.7-.5-4.6-3-4.2-5.7zm39.4 5.7l2.9-19.7c.4-2.7 2.9-4.6 5.7-4.2l19.7 2.9c2.7.4 4.6 2.9 4.2 5.7L292 236c-.4 2.7-2.9 4.6-5.7 4.2l-19.7-2.9c-2.7-.5-4.5-3-4.2-5.7zm39.5 5.7l2.9-19.7c.4-2.7 2.9-4.6 5.7-4.2l19.7 2.9c2.7.4 4.6 2.9 4.2 5.7l-2.9 19.7c-.4 2.7-2.9 4.6-5.7 4.2l-19.7-2.9c-2.7-.4-4.6-2.9-4.2-5.7zm39.5 5.8l2.9-19.7c.4-2.7 2.9-4.6 5.7-4.2l19.7 2.9c2.7.4 4.6 2.9 4.2 5.7l-2.9 19.7c-.4 2.7-2.9 4.6-5.7 4.2l-19.7-2.9c-2.7-.5-4.6-3-4.2-5.7zm-163.7 16.5l2.9-19.7c.4-2.7 2.9-4.6 5.7-4.2l19.7 2.9c2.7.4 4.6 2.9 4.2 5.7l-2.9 19.7c-.4 2.7-2.9 4.6-5.7 4.2l-19.7-2.9c-2.7-.5-4.6-3-4.2-5.7zm39.5 5.7l2.9-19.7c.4-2.7 2.9-4.6 5.7-4.2l19.7 2.9c2.7.4 4.6 2.9 4.2 5.7l-2.9 19.7c-.4 2.7-2.9 4.6-5.7 4.2l-19.7-2.9c-2.7-.4-4.6-2.9-4.2-5.7zm39.5 5.8l2.9-19.7c.4-2.7 2.9-4.6 5.7-4.2l19.7 2.9c2.7.4 4.6 2.9 4.2 5.7l-2.9 19.7c-.4 2.7-2.9 4.6-5.7 4.2l-19.7-2.9c-2.7-.5-4.6-3-4.2-5.7zm39.5 5.7l2.9-19.7c.4-2.7 2.9-4.6 5.7-4.2l19.7 2.9c2.7.4 4.6 2.9 4.2 5.7l-2.9 19.7c-.4 2.7-2.9 4.6-5.7 4.2l-19.7-2.9c-2.7-.4-4.6-3-4.2-5.7z"/>
</symbol>
<symbol id="icon-transfer-arrows" viewBox="0 0 450 450"><path d="M132.8 112c-1.6 0-3.2.6-4.4 1.8l-89.3 86.8c-1.7 1.6-2.6 3.8-2.6 6.1s.9 4.4 2.6 6.1l89.3 86.8c1.8 1.7 4.4 2.2 6.8 1.3 2.3-.9 3.8-3.1 3.8-5.6v-41.8h70.5c3.4 0 6.2-2.7 6.2-6s-2.8-6-6.2-6H139v-34.8c0-3.3-2.8-6-6.2-6-3.4 0-6.2 2.7-6.2 6v74L53 209.2c-.7-.7-1.1-1.6-1.1-2.5s.4-1.8 1.1-2.5l73.6-71.5v33.2c0 3.3 2.8 6 6.2 6h101c3.4 0 6.1-2.7 6.1-5.9 0-3.4-2.8-6.2-6.2-6.2H139V118c0-2.5-1.5-4.6-3.8-5.6-.8-.2-1.6-.4-2.4-.4zM317.2 338c1.6 0 3.2-.6 4.4-1.8l89.3-86.8c1.7-1.6 2.6-3.8 2.6-6.1s-.9-4.4-2.6-6.1l-89.3-86.8c-1.8-1.7-4.4-2.2-6.8-1.3-2.3.9-3.8 3.1-3.8 5.6v41.8h-70.5c-3.4 0-6.2 2.7-6.2 6s2.8 6 6.2 6H311v34.8c0 3.3 2.8 6 6.2 6 3.4 0 6.2-2.7 6.2-6v-74l73.6 71.5c.7.7 1.1 1.6 1.1 2.5s-.4 1.8-1.1 2.5l-73.6 71.5v-33.2c0-3.3-2.8-6-6.2-6h-101c-3.4 0-6.1 2.7-6.1 5.9 0 3.4 2.8 6.2 6.2 6.2H311V332c0 2.5 1.5 4.6 3.8 5.6.8.2 1.6.4 2.4.4z"/>
</symbol>
<symbol id="icon-online-classes" viewBox="0 0 450 450"><path d="M250.7 319.7h-63.2c-1.7 0-3-1.3-3-3s1.3-3 3-3h63.2c1.7 0 3 1.3 3 3s-1.3 3-3 3z"/><path d="M345.5 352.3H92.7c-8 0-14.5-6.5-14.5-14.5v-5.3c0-.8.2-1.6.7-2.2l21.1-31.6c.7-1.1 2-1.8 3.3-1.8H335c1.3 0 2.6.7 3.3 1.8l21.1 31.6c.4.7.7 1.4.7 2.2v5.3c-.1 7.9-6.6 14.5-14.6 14.5zM86.2 333.7v4.1c0 3.6 2.9 6.5 6.5 6.5h252.7c3.6 0 6.5-2.9 6.5-6.5v-4.1l-19.2-28.8H105.4l-19.2 28.8z"/><path d="M356 336.5H82.2c-2.2 0-4-1.8-4-4s1.8-4 4-4H356c2.2 0 4 1.8 4 4s-1.8 4-4 4zM334.9 304.9H103.3c-2.2 0-4-1.8-4-4v-150c0-6.6 5.3-11.9 11.9-11.9H327c6.6 0 11.9 5.3 11.9 11.9v150c0 2.2-1.8 4-4 4zm-227.6-8H331v-146c0-2.1-1.7-3.9-3.9-3.9H111.2c-2.1 0-3.9 1.7-3.9 3.9v146z"/><path d="M308.6 272.3h-21.1c-1.7 0-3-1.3-3-3s1.3-3 3-3h18.1v-94h-78.2v59.8c0 1.7-1.3 3-3 3s-3-1.3-3-3v-62.8c0-1.7 1.3-3 3-3h84.2c1.7 0 3 1.3 3 3v100c0 1.6-1.3 3-3 3z"/><path d="M198 288.1c-1.7 0-3-1.3-3-3v-27.2c0-1.2.7-2.3 1.9-2.8 1.1-.5 2.4-.2 3.3.7l21.1 21.1h40c2.2 0 4.3-1 5.7-2.7 1.5-1.7 2.1-3.9 1.7-6.2-.6-3.6-4-6.2-8-6.2h-31.9c-.8 0-1.6-.3-2.1-.9l-22.3-22.3c-5.4-5.4-12.6-8.4-20.2-8.4h-43.9c-7.1 0-12.8 5.7-12.8 12.8v42.1c0 1.7-1.3 3-3 3s-3-1.3-3-3V243c0-10.4 8.4-18.8 18.8-18.8h43.9c9.2 0 17.9 3.6 24.5 10.1l21.5 21.5h30.7c6.9 0 12.9 4.8 13.9 11.3.6 4-.5 8-3 11-2.6 3-6.3 4.8-10.3 4.8H220c-.8 0-1.6-.3-2.1-.9L201 265.1v20c0 1.6-1.3 3-3 3zM166.5 219.6c-13.7 0-24.1-12.6-24.1-29.3 0-13.3 10.8-24.1 24.1-24.1s24.1 10.8 24.1 24.1c-.1 16.7-10.4 29.3-24.1 29.3zm0-47.3c-10 0-18.1 8.1-18.1 18.1 0 13.5 7.6 23.3 18.1 23.3s18.1-9.8 18.1-23.3c-.1-10-8.2-18.1-18.1-18.1z"/>
</symbol>
<symbol id="icon-start-times" viewBox="0 0 450 450"><path d="M111.2 266.8l7.3-1.3c-1-5.5-1.6-10.7-1.8-15.8h12.8c.2 5.7 1 11.5 2.2 17.3l7.3-1.6c-1.1-5.2-1.8-10.5-2.1-15.7h28.5v-7.5H69.3v7.5h40c.2 5.4.8 11.1 1.9 17.1z"/><path d="M316 168.5l14.7-16.1-7.6-7 6.8-7.4-5.5-5-6.8 7.4-7.8-7.1-14.8 16.2c-15.5-11-33.8-18.3-53.6-20.6v-14.3h10.4V86.2h-49.3v28.4H213v14.3c-34.4 4.1-65.3 23.2-84.6 52.7l6.3 4.1c20.5-31.4 55.1-50.2 92.5-50.2 60.9 0 110.5 49.6 110.5 110.5s-49.6 110.5-110.5 110.5c-37.5 0-72.2-18.9-92.7-50.5-3-4.6-5.6-9.4-7.9-14.4h14.3c3.6 6.8 8 13.2 13.1 18.9 18.6 21.1 45.3 33.2 73.2 33.2 53.9 0 97.7-43.8 97.7-97.7 0-53.9-43.8-97.7-97.7-97.7-18.7 0-36.8 5.3-52.5 15.3-8.5 5.4-16 12-22.5 19.7l5.7 4.8c6-7.1 12.9-13.3 20.7-18.2 13.2-8.4 28.3-13.2 43.9-14v7.4h7.5v-7.5c47.1 1.5 85.3 39.4 87.2 86.4H309v7.5h8.2c-1.9 47-40 84.9-87.2 86.4v-7.5h-7.5v7.4c-24.2-1.2-47-12.2-63.1-30.6-3.8-4.3-7.2-9-10.1-14h16.2V284H91.4v7.5h27c2.7 6.5 6 12.7 9.8 18.5 21.9 33.7 58.9 53.9 98.9 53.9 65 0 117.9-52.9 117.9-117.9.1-29.7-10.9-56.8-29-77.5zm-106-61.4V93.6h34.3V107H210zm10.4 20.9v-13.4h13.4V128h-13.4zm80.5 26l9.3-10.2 9.9 9.1-9.2 10.1c-3.1-3.2-6.5-6.2-10-9z"/><path d="M111.2 225l7.3 1.3c1.1-6.3 2.8-12.5 5-18.5h13.7c-1.5 3.5-2.8 7.1-3.9 10.8-.4 1.4-.7 2.8-1 4.2l-.4 2 7.3 1.6.4-2.2c.2-1.2.5-2.4.8-3.5 1.3-4.4 2.9-8.7 4.9-12.9h20.2v-7.5h-63.7v7.5h13.8c-1.9 5.6-3.4 11.4-4.4 17.2zM48.4 242.2h10.4v7.5H48.4zM70.5 284h10.4v7.5H70.5zM80.9 200.4h10.5v7.5H80.9zM277.1 190.9l-42.8 42.8c-2.1-1.2-4.5-2-7.1-2-7.8 0-14.2 6.4-14.2 14.2 0 7.8 6.4 14.2 14.2 14.2 7.8 0 14.2-6.4 14.2-14.2 0-2.5-.7-4.9-1.8-6.9l42.8-42.8-5.3-5.3zm-49.9 61.7a6.7 6.7 0 110-13.4 6.7 6.7 0 010 13.4z"/>
</symbol>
<symbol id="icon-credit-transfer" viewBox="0 0 450 450"><path d="M360.9 70.7h-95.8c-2 0-3.8 1.2-4.6 3.1-.8 1.9-.3 4 1.1 5.4l27.9 27.9c.5.5.7 1.1.7 1.7 0 .6-.3 1.3-.7 1.7l-50 50c-1.9 1.9-1.9 5.1 0 7 .9.9 2.2 1.4 3.5 1.4 1.3 0 2.6-.5 3.5-1.4l55.3-55.3c1.9-1.9 1.9-5.1 0-7l-20.6-20.6c-.7-.7-.9-1.7-.5-2.6.4-.9 1.3-1.5 2.2-1.5h70.6c1.3 0 2.4 1.1 2.4 2.4v70.6c0 1-.6 1.9-1.5 2.2-.3.1-.6.2-.9.2-.6 0-1.2-.2-1.7-.7l-20.6-20.6c-.9-.9-2.2-1.5-3.5-1.5-1.3 0-2.6.5-3.5 1.5L269 190c-1.9 1.9-1.9 5.1 0 7 .9.9 2.2 1.5 3.5 1.5 1.3 0 2.6-.5 3.5-1.5l50-50c.5-.5 1.1-.7 1.7-.7.6 0 1.2.2 1.7.7l27.9 27.9c.9.9 2.2 1.5 3.5 1.5.6 0 1.3-.1 1.9-.4 1.9-.8 3.1-2.6 3.1-4.6V75.6c.1-2.7-2.1-4.9-4.9-4.9zM365.9 211.5v81c0 2-1.2 3.8-3.1 4.6-1.9.8-4 .3-5.4-1.1l-24.3-24.3c-.9-.9-2.5-.9-3.4 0l-46.4 46.4c-1.9 1.9-5.1 1.9-7 0-.9-.9-1.5-2.2-1.5-3.5 0-1.3.5-2.6 1.5-3.5l51.6-51.6c1.9-1.9 5.1-1.9 7 0l16.9 16.9c.7.7 1.7.9 2.6.5.9-.4 1.5-1.3 1.5-2.2v-55.9c0-1.3-1.1-2.4-2.4-2.4h-55.9c-1 0-1.9.6-2.2 1.5-.1.3-.2.6-.2.9 0 .6.2 1.2.7 1.7l16.9 16.9c.9.9 1.5 2.2 1.5 3.5 0 1.3-.5 2.6-1.5 3.5l-29.5 29.5c-1.9 1.9-5.1 1.9-7 0-.9-.9-1.5-2.2-1.5-3.5 0-1.3.5-2.6 1.5-3.5l24.3-24.3c.5-.5.7-1.1.7-1.7 0-.6-.2-1.2-.7-1.7L276.4 215c-.9-.9-1.5-2.2-1.5-3.5 0-.7.1-1.3.4-1.9.8-1.9 2.6-3.1 4.6-3.1h81c2.8 0 5 2.2 5 5zM158.9 82.1c-.1.3-.2.6-.2.9 0 .6.2 1.2.7 1.7l16.9 16.9c.9.9 1.5 2.2 1.5 3.5 0 1.3-.5 2.6-1.5 3.5l-51.6 51.6c-1.9 1.9-5.1 1.9-7 0-.9-.9-1.5-2.2-1.5-3.5s.5-2.6 1.5-3.5l46.4-46.4c.5-.5.7-1.1.7-1.7 0-.6-.3-1.3-.7-1.7l-24.3-24.3c-.9-.9-1.5-2.2-1.5-3.5 0-.6.1-1.3.4-1.9.8-1.9 2.6-3.1 4.6-3.1h81c2.7 0 5 2.2 5 4.9v81c0 2-1.2 3.8-3.1 4.6-1.9.8-4 .3-5.4-1.1l-24.3-24.3c-.9-.9-2.5-.9-3.4 0L168.8 160c-1.9 1.9-5.1 1.9-7 0-.9-.9-1.5-2.2-1.5-3.5 0-1.3.5-2.6 1.5-3.5l29.5-29.5c1.9-1.9 5.1-1.9 7 0l16.9 16.9c.7.7 1.7.9 2.6.5.9-.4 1.5-1.3 1.5-2.2V83c0-1.3-1.1-2.4-2.4-2.4H161c-.9 0-1.8.6-2.1 1.5z"/><g><path d="M200.6 355.3H95.5c-8.1 0-14.6-6.6-14.6-14.6v-128c0-1.3.5-2.5 1.4-3.4l26.3-26.3c.9-.9 2.1-1.4 3.4-1.4h88.6c8.1 0 14.6 6.6 14.6 14.6v144.5c0 8-6.6 14.6-14.6 14.6zM90.4 214.6v126.1c0 2.8 2.3 5.1 5.1 5.1h105.1c2.8 0 5.1-2.3 5.1-5.1V196.2c0-2.8-2.3-5.1-5.1-5.1h-86.7l-23.5 23.5z"/><path d="M118.5 223.9H98.8c-2.6 0-4.8-2.1-4.8-4.8 0-2.6 2.1-4.8 4.8-4.8h14.9v-14.9c0-2.6 2.1-4.8 4.8-4.8s4.8 2.1 4.8 4.8v19.7c0 2.7-2.2 4.8-4.8 4.8zM233.4 381.5H128.3c-8.1 0-14.6-6.6-14.6-14.6 0-2.6 2.1-4.8 4.8-4.8s4.8 2.1 4.8 4.8c0 2.8 2.3 5.1 5.1 5.1h105.1c2.8 0 5.1-2.3 5.1-5.1V222.5c0-2.8-2.3-5.1-5.1-5.1h-6.6c-2.6 0-4.8-2.1-4.8-4.8 0-2.6 2.1-4.8 4.8-4.8h6.6c8.1 0 14.6 6.6 14.6 14.6v144.5c-.1 8.1-6.6 14.6-14.7 14.6z"/><path d="M180.9 312.6h-65.7c-2.6 0-4.8-2.1-4.8-4.8 0-2.6 2.1-4.8 4.8-4.8h65.7c2.6 0 4.8 2.1 4.8 4.8-.1 2.6-2.2 4.8-4.8 4.8zM180.9 279.7h-65.7c-2.6 0-4.8-2.1-4.8-4.8 0-2.6 2.1-4.8 4.8-4.8h65.7c2.6 0 4.8 2.1 4.8 4.8-.1 2.7-2.2 4.8-4.8 4.8zM180.9 246.9H148c-2.6 0-4.8-2.1-4.8-4.8 0-2.6 2.1-4.8 4.8-4.8h32.8c2.6 0 4.8 2.1 4.8 4.8 0 2.7-2.1 4.8-4.7 4.8z"/></g>
</symbol>
<symbol id="icon-class-ratio" viewBox="0 0 450 450"><path d="M225 330.5c-16 0-28-14.6-28-33.9 0-15.4 12.6-28 28-28s28 12.6 28 28c0 19.4-12 33.9-28 33.9zm0-52.8c-10.5 0-19 8.5-19 19 0 14.4 8 24.9 19 24.9s19-10.5 19-24.9c0-10.5-8.5-19-19-19zM342.5 330.5c-16 0-28-14.6-28-33.9 0-15.4 12.6-28 28-28s28 12.6 28 28c0 19.4-12.1 33.9-28 33.9zm0-52.8c-10.5 0-19 8.5-19 19 0 14.4 8 24.9 19 24.9s19-10.5 19-24.9c0-10.5-8.5-19-19-19zM107.5 330.5c-16 0-28-14.6-28-33.9 0-15.4 12.6-28 28-28s28 12.6 28 28c0 19.4-12 33.9-28 33.9zm0-52.8c-10.5 0-19 8.5-19 19 0 14.4 8 24.9 19 24.9s19-10.5 19-24.9c0-10.5-8.5-19-19-19zM154.5 365.8c-2.5 0-4.5-2-4.5-4.5v-4.7c0-2.9-1.7-5.4-4.2-6.6-7.9-3.5-20.8-7.7-38-7.7-17.3 0-30.5 4.2-38.5 7.8-2.6 1.1-4.3 3.7-4.3 6.6v4.6c0 2.5-2 4.5-4.5 4.5s-4.5-2-4.5-4.5v-4.6c0-6.4 3.8-12.3 9.6-14.8 8.8-3.9 23.3-8.6 42.1-8.6s33.1 4.6 41.7 8.5c5.8 2.6 9.5 8.4 9.5 14.8v4.7c.1 2.5-1.9 4.5-4.4 4.5zM272 365.8c-2.5 0-4.5-2-4.5-4.5v-4.7c0-2.9-1.7-5.4-4.2-6.6-7.9-3.5-20.8-7.7-38-7.7-17.3 0-30.5 4.2-38.5 7.8-2.6 1.1-4.3 3.7-4.3 6.6v4.6c0 2.5-2 4.5-4.5 4.5s-4.5-2-4.5-4.5v-4.6c0-6.4 3.8-12.3 9.6-14.8 8.8-3.9 23.3-8.6 42.1-8.6s33.1 4.6 41.7 8.5c5.8 2.6 9.5 8.4 9.5 14.8v4.7c.1 2.5-1.9 4.5-4.4 4.5zM389.5 365.8c-2.5 0-4.5-2-4.5-4.5v-4.7c0-2.9-1.7-5.4-4.2-6.6-7.9-3.5-20.8-7.7-38-7.7-17.3 0-30.5 4.2-38.5 7.8-2.6 1.1-4.3 3.7-4.3 6.6v4.6c0 2.5-2 4.5-4.5 4.5s-4.5-2-4.5-4.5v-4.6c0-6.4 3.8-12.3 9.6-14.8 8.8-3.9 23.3-8.6 42.1-8.6s33.1 4.6 41.7 8.5c5.8 2.6 9.5 8.4 9.5 14.8v4.7c.1 2.5-1.9 4.5-4.4 4.5zM366 260H84c-2.5 0-4.5-2-4.5-4.5V73.4c0-2.5 2-4.5 4.5-4.5h282c2.5 0 4.5 2 4.5 4.5v182.1c0 2.5-2 4.5-4.5 4.5zm-277.5-9h272.9V77.9H88.5V251z"/><path d="M301.4 100.4H84c-1.9 0-3.5-1.6-3.5-3.5s1.6-3.5 3.5-3.5h217.3c1.9 0 3.5 1.6 3.5 3.5s-1.5 3.5-3.4 3.5zM348.4 100.4h-11.7c-1.9 0-3.5-1.6-3.5-3.5s1.6-3.5 3.5-3.5h11.7c1.9 0 3.5 1.6 3.5 3.5s-1.6 3.5-3.5 3.5zM324.9 100.4h-11.7c-1.9 0-3.5-1.6-3.5-3.5s1.6-3.5 3.5-3.5h11.7c1.9 0 3.5 1.6 3.5 3.5s-1.6 3.5-3.5 3.5zM201.5 241.4c-1.9 0-3.5-1.6-3.5-3.5v-23.5c0-5.2 4.2-9.4 9.4-9.4H272c4.5 0 8.2-3.7 8.2-8.2s-3.7-8.2-8.2-8.2H136.9c-7.8 0-14.1 6.3-14.1 14.1v35.2c0 1.9-1.6 3.5-3.5 3.5s-3.5-1.6-3.5-3.5v-35.2c0-11.6 9.5-21.1 21.1-21.1H272c8.4 0 15.2 6.8 15.2 15.2S280.4 212 272 212h-64.6c-1.3 0-2.4 1.1-2.4 2.4v23.5c0 2-1.6 3.5-3.5 3.5zM166.3 176.8c-15.4 0-27-14.1-27-32.9 0-14.9 12.1-27 27-27s27 12.1 27 27c0 18.8-11.6 32.9-27 32.9zm0-52.9c-11 0-20 9-20 20 0 15 8.4 25.9 20 25.9s20-10.9 20-25.9c0-11-9-20-20-20zM324.9 141.6h-94c-1.9 0-3.5-1.6-3.5-3.5s1.6-3.5 3.5-3.5h94c1.9 0 3.5 1.6 3.5 3.5s-1.6 3.5-3.5 3.5zM324.9 165.1h-94c-1.9 0-3.5-1.6-3.5-3.5s1.6-3.5 3.5-3.5h94c1.9 0 3.5 1.6 3.5 3.5s-1.6 3.5-3.5 3.5z"/>
</symbol>
<symbol id="icon-graduate" viewBox="0 0 450 450"><path d="M158.3 86.4c-2.4 0-4.4 2-4.4 4.4s2 4.4 4.4 4.4h25v42.6c0 20.5 5.8 38.3 17.3 52.9l.3.4V217l-52.7 20c-4.9 2-8.5 6.3-9.7 11.6l-19.4 96.7c-1.2 4.9 0 10 3.1 13.9 3.1 3.9 7.7 6.1 12.7 6.1h187.8c5 0 9.6-2.2 12.7-6.1 3.1-3.9 4.3-8.9 3.1-13.7L319 248.4c-1.2-5.1-4.9-9.4-9.8-11.4l-52.5-20v-25.9l.3-.4c11.5-14.6 17.3-32.4 17.3-52.9V95.2h20.6v42.6c0 2.4 2 4.4 4.4 4.4s4.4-2 4.4-4.4v-47c0-2.4-2-4.4-4.4-4.4h-141zm164.4 270.3h-89.5V245.4l20.2-20.2 52.6 20c2.3.9 4 2.9 4.5 5.1l19.5 97.2c.5 2.2 0 4.6-1.5 6.4-1.4 1.8-3.5 2.8-5.8 2.8zm-98.3 0h-89.5c-2.3 0-4.4-1-5.8-2.8-1.5-1.9-2-4.2-1.4-6.7l19.4-96.7c.6-2.4 2.2-4.4 4.4-5.3l52.8-20 20.2 20.2v111.3zm4.4-119.3l-19.1-19.1v-17.7l2.5 2.1c8 6.7 14.6 9.6 14.9 9.7 1.1.5 2.4.5 3.5 0 .3-.1 6.9-3.1 14.9-9.7l2.5-2.1v17.7l-19.2 19.1zm0-34l-.7-.4c-8.5-4.7-36-23.4-36-65.4v-7.2h73.5v7.4c0 42.2-27.6 60.6-36 65.2l-.8.4zm36.7-81.7H192V95.2h73.5v26.5z"/><circle cx="205.3" cy="284.7" r="5.9"/><circle cx="205.3" cy="308.2" r="5.9"/><circle cx="205.3" cy="261.2" r="5.9"/><circle cx="205.3" cy="331.7" r="5.9"/>	
</symbol>
<symbol id="icon-academic-excellence" viewBox="0 0 450 450"><path d="M270.5 335.4c-2.5 0-4.5 2-4.5 4.5v30c0 1.6.9 3.1 2.3 3.9 1.4.8 3.1.8 4.5-.1l27.7-16.6 27.7 16.6c1.4.8 3.2.8 4.5.1 1.4-.8 2.3-2.3 2.3-3.9v-30c0-2.5-2-4.5-4.5-4.5s-4.5 2-4.5 4.5v22L302.8 348c-1.4-.9-3.2-.9-4.6 0L275 362v-22c0-2.5-2-4.6-4.5-4.6zM300.5 213.9c-24.8 0-45 20.2-45 45s20.2 45 45 45 45-20.2 45-45-20.2-45-45-45zm0 78c-18.2 0-33-14.8-33-33s14.8-33 33-33 33 14.8 33 33-14.8 33-33 33z"/><path d="M300.5 323.1c1.7 0 4.1 1.4 8 4 5 3.3 10.1 6.6 15.6 4.8 5.7-1.9 8-8 10-13.4v-.1c1.6-4.3 2.7-6.7 3.9-7.6 1.3-1 4.5-1.2 8.5-1.4 6.1-.3 12.3-.6 15.8-5.4 3.4-4.7 1.8-10.7.3-16.5-1.2-4.5-1.8-7.2-1.3-8.8.4-1.4 2.4-3.2 5.9-6 4.3-3.5 9.7-7.8 9.7-13.9 0-6.1-5.4-10.4-9.7-13.9l.9-1.2-.9 1.2.9-1.2-.9 1.2c-3.6-2.9-5.5-4.6-5.9-6-.5-1.7.3-5 1.3-8.8 1.6-5.8 3.2-11.8-.3-16.5-3.5-4.8-9.7-5.1-15.7-5.4-4.1-.2-7.2-.4-8.6-1.4-1.2-.9-2.2-3.2-3.9-7.6v-.1c-2-5.4-4.4-11.6-10-13.4-5.5-1.8-10.5 1.5-15.4 4.7l-.2.1c-3.9 2.6-6.4 4-8 4s-4.1-1.4-8-4c-5-3.3-10.1-6.6-15.6-4.8-5.7 1.9-8 8-10 13.4-1.7 4.4-2.7 6.8-3.9 7.7-1.3 1-4.5 1.2-8.5 1.4-6.1.3-12.3.6-15.8 5.4-3.4 4.7-1.8 10.7-.3 16.5 1 3.8 1.8 7.1 1.3 8.8-.4 1.4-2.3 3.1-5.9 6-4.3 3.5-9.7 7.8-9.7 13.9 0 6.1 5.4 10.4 9.7 13.9 3.6 2.9 5.5 4.6 5.9 6 .5 1.7-.3 5-1.3 8.8-1.6 5.8-3.2 11.8.3 16.5 3.5 4.8 9.7 5.1 15.7 5.4 4.1.2 7.2.4 8.6 1.4 1.2.9 2.2 3.2 3.9 7.6 2.1 5.5 4.4 11.7 10.1 13.5 1 .3 2 .5 3.1.5 4.4 0 8.7-2.8 12.5-5.3 3.8-2.6 6.2-4 7.9-4zm-20.7.4l-.4-.2c-1.3-.8-2.4-3.3-4.2-7.9-1.7-4.5-3.4-9.2-7-11.8-3.6-2.7-8.6-2.9-13.4-3.1-5.5-.3-7.6-.6-8.5-1.3l-.3-.3-.2-.4c-.5-1.4 0-4 1.2-8.6 1.3-4.8 2.6-9.6 1.2-13.9-1.4-4.2-5.2-7.2-8.9-10.2-4.5-3.7-6.1-5.2-6.3-6.6v-.6c.3-1.5 2.3-3.4 6.3-6.6 3.7-3 7.5-6 8.9-10.2 1.4-4.3.1-9.2-1.2-13.9v-.1c-1.4-5.3-1.7-7.3-1.4-8.3l.1-.4.3-.3c1.1-1 3.9-1.3 8.7-1.5 4.8-.2 9.8-.5 13.4-3.1 3.6-2.6 5.3-7.3 7-11.8 2-5.4 2.9-7.2 3.9-7.8l.4-.3h.5c1.5 0 3.8 1.3 7.6 3.8 3.9 2.6 8.4 5.5 13 5.5s9-2.9 13-5.5c4.5-3 6.2-3.9 7.3-3.9h.4l.4.2c1.3.8 2.4 3.3 4.2 7.9 1.7 4.5 3.5 9.2 7 11.8 3.6 2.7 8.6 2.9 13.4 3.1 5.5.3 7.6.6 8.5 1.3l.3.3.2.4c.5 1.4 0 4.1-1.2 8.6-1.3 4.8-2.6 9.6-1.2 13.9 1.3 4.2 5.2 7.2 8.9 10.2 3.8 3.1 6 5 6.3 6.5l.1.3-.1.3c-.3 1.5-2.5 3.4-6.3 6.5-3.7 3-7.5 6-8.9 10.2-1.4 4.3-.1 9.2 1.2 13.9 1.4 5.4 1.8 7.4 1.4 8.4l-.1.4-.3.3c-1.1 1-3.9 1.3-8.7 1.5-4.8.2-9.8.5-13.4 3.1-3.6 2.6-5.3 7.3-7 11.8-2 5.4-2.9 7.2-3.9 7.8l-.3.2h-.4c-1.6.2-3.7-1.1-6.8-3.2-.3-.2-.7-.5-1-.7-3.9-2.6-8.4-5.5-13-5.5s-9 2.9-13 5.5c-4.5 3-6.2 3.9-7.3 3.9l-.4.4zm1-126.4"/><path d="M96.5 89.4c-2.5 0-4.5 2-4.5 4.5v276c0 2.5 2 4.5 4.5 4.5h150c2.5 0 4.5-2 4.5-4.5s-2-4.5-4.5-4.5H101v-267h195v73.5c0 2.5 2 4.5 4.5 4.5s4.5-2 4.5-4.5v-78c0-2.5-2-4.5-4.5-4.5h-204z"/><path d="M149.9 113.4c-2.2 0-4.1 1.6-4.4 3.8-2.2 13.2-12.6 23.6-25.8 25.8-2.2.4-3.8 2.2-3.8 4.4v169.1c0 2.2 1.6 4.1 3.8 4.4 13.2 2.2 23.5 12.6 25.8 25.8.4 2.2 2.2 3.8 4.4 3.8h96.5c2.5 0 4.5-2 4.5-4.5s-2-4.5-4.5-4.5h-92.9l-.3-1.1c-3.9-13.1-14.1-23.3-27.2-27.2l-1.1-.3V151l1.1-.3c13.1-3.9 23.3-14.1 27.2-27.2l.3-1.1h89.8l.3 1.1c3.9 13.1 14.1 23.3 27.2 27.2l1.1.3v20.9c0 2.5 2 4.5 4.5 4.5s4.5-2 4.5-4.5v-24.5c0-2.2-1.6-4.1-3.8-4.4-13.2-2.2-23.6-12.6-25.8-25.8-.4-2.2-2.2-3.8-4.4-3.8h-97z"/><path d="M228.5 159.9c3.3 0 6-2.7 6-6s-2.7-6-6-6h-60c-3.3 0-6 2.7-6 6s2.7 6 6 6h60zM246.5 189.9c0-3.3-2.7-6-6-6h-90c-3.3 0-6 2.7-6 6s2.7 6 6 6h90c3.3 0 6-2.6 6-6zM216.5 213.9h-66c-3.3 0-6 2.7-6 6s2.7 6 6 6h66c3.3 0 6-2.7 6-6s-2.7-6-6-6zM150.5 255.9h54c3.3 0 6-2.7 6-6s-2.7-6-6-6h-54c-3.3 0-6 2.7-6 6s2.7 6 6 6zM150.5 285.9h60c3.3 0 6-2.7 6-6s-2.7-6-6-6h-60c-3.3 0-6 2.7-6 6s2.7 6 6 6zM162.5 315.9h54c3.3 0 6-2.7 6-6s-2.7-6-6-6h-54c-3.3 0-6 2.7-6 6s2.7 6 6 6z"/>
</symbol>
<symbol id="icon-accredited" viewBox="0 0 450 450"><path d="M238.2 313.3c-.4 0-.8-.1-1.2-.2l-20.4-5.9-20.5 5.9c-1.4.4-3 .1-4.1-.9l-16.3-13.8-21-3.1c-1.5-.2-2.8-1.1-3.4-2.5l-9.4-19.3-18-11.5c-1.2-.8-2-2.2-2.1-3.6l-.8-21.5-12-17.8c-.8-1.2-1-2.8-.4-4.1l7.9-20-3.6-21.2c-.2-1.5.2-2.9 1.3-4l15.3-15 5.2-20.9c.4-1.4 1.4-2.6 2.8-3.1l20-7.4 13.1-16.9c.9-1.2 2.4-1.8 3.9-1.7l21.2 1.4 18.8-10c1.3-.7 2.9-.7 4.2 0l18.8 10 21.2-1.4c1.5-.1 2.9.5 3.9 1.7l13.1 16.9 20 7.4c1.4.5 2.4 1.7 2.8 3.1l5.2 20.9 15.3 15c1.1 1 1.5 2.5 1.3 4l-3.6 21.2 7.9 20c.5 1.4.4 2.9-.4 4.1L312.1 237l-.8 21.5c-.1 1.5-.8 2.8-2.1 3.6l-18 11.5-9.4 19.3c-.7 1.3-1.9 2.3-3.4 2.5l-21 3.1-16.3 13.8c-.9.6-1.9 1-2.9 1zm-80-26.4l20 2.9c.8.1 1.6.5 2.3 1l15.5 13.1 19.4-5.6c.8-.2 1.7-.2 2.5 0l19.4 5.6 15.5-13.1c.6-.5 1.4-.9 2.3-1l20-2.9 8.9-18.3c.4-.8.9-1.4 1.6-1.8l17.1-10.9.8-20.4c0-.8.3-1.6.7-2.3l11.3-17-7.5-19c-.3-.8-.4-1.6-.3-2.4l3.4-20.2-14.5-14.2c-.6-.6-1-1.3-1.2-2.1l-4.9-19.8-18.9-7c-.8-.3-1.5-.8-2-1.5l-12.5-16-20.1 1.4c-.8.1-1.7-.1-2.4-.5l-17.8-9.5-17.8 9.5c-.7.4-1.6.6-2.4.5l-20.1-1.4-12.5 16c-.5.7-1.2 1.2-2 1.5l-18.9 7-4.9 19.8c-.2.8-.6 1.5-1.2 2.1l-14.5 14.2 3.4 20.2c.1.8.1 1.6-.3 2.4l-7.5 19 11.3 17c.5.7.7 1.5.7 2.3l.8 20.4 17.1 10.9c.7.4 1.3 1.1 1.6 1.8l8.6 18.3zm58.3-4.4c-43.1 0-78.2-35.1-78.2-78.2s35.1-78.2 78.2-78.2 78.2 35.1 78.2 78.2-35.1 78.2-78.2 78.2zm0-147.5c-38.2 0-69.2 31-69.2 69.2s31.1 69.2 69.2 69.2c38.2 0 69.2-31.1 69.2-69.2S254.6 135 216.5 135z"/><path d="M246.2 250.8c-.7 0-1.4-.2-2.1-.5l-27.6-14.5-27.6 14.5c-1.5.8-3.4.7-4.7-.3s-2.1-2.7-1.8-4.4l5.3-30.8-22.5-21.8c-1.2-1.2-1.7-3-1.1-4.6.5-1.6 1.9-2.8 3.6-3.1l30.9-4.5 13.8-28c.8-1.5 2.3-2.5 4-2.5s3.3 1 4 2.5l13.8 28 30.9 4.5c1.7.2 3.1 1.4 3.6 3.1.5 1.6.1 3.4-1.1 4.6l-22.4 21.8 5.3 30.8c.3 1.7-.4 3.4-1.8 4.4-.6.6-1.6.8-2.5.8zM178 193l17.5 17.1c1.1 1 1.5 2.5 1.3 4l-4.1 24.1 21.7-11.4c1.3-.7 2.9-.7 4.2 0l21.6 11.4-4.1-24.1c-.2-1.5.2-2.9 1.3-4l17.5-17.1-24.2-3.5c-1.5-.2-2.7-1.1-3.4-2.5l-10.8-22-10.8 22c-.7 1.3-1.9 2.2-3.4 2.5L178 193zM161.2 368.6h-.4c-1.6-.1-3-1.1-3.7-2.5l-16.9-35.2-29.9 1.5c-1.7.1-3.3-.8-4.2-2.3-.8-1.5-.7-3.4.3-4.8l37.5-52.6c1.4-2 4.3-2.5 6.3-1.1s2.5 4.3 1.1 6.3l-32.1 45 23.6-1.2c1.8-.1 3.5.9 4.3 2.5l14.9 31 36.7-51.2c1.4-2 4.3-2.5 6.3-1 2 1.4 2.5 4.3 1 6.3l-41.1 57.4c-.9 1.2-2.3 1.9-3.7 1.9zM271.7 368.6c-1.4 0-2.8-.7-3.7-1.9l-41-57.4c-1.4-2-1-4.8 1-6.3 2-1.4 4.8-1 6.3 1l36.7 51.2 14.9-31c.8-1.6 2.5-2.6 4.3-2.5l23.6 1.2-32.1-45c-1.4-2-1-4.8 1.1-6.3s4.8-1 6.3 1.1l37.5 52.6c1 1.4 1.1 3.3.3 4.8s-2.4 2.4-4.2 2.3l-29.9-1.5-17 35.1c-.7 1.4-2.1 2.4-3.7 2.5-.1.1-.2.1-.4.1z"/>
</symbol>
</defs>
</svg>
