<svg version="1.1" id="Layer_1" xmlns="http://www.w3.org/2000/svg" x="0" y="0" viewBox="0 0 640 512" xml:space="preserve"><style>.st0{fill:#2e2d2c}</style><path class="st0" d="M326.8 289.2c-4.3 4.3-10 6.5-15.6 6.5-5.7 0-11.3-2.2-15.6-6.5-8.6-8.6-8.6-22.6 0-31.3l29.5-29.5c-6-2.3-12.4-3.5-19-3.5-14.4 0-27.9 5.6-38 15.8-21 21-21 55.1 0 76.1 10.2 10.2 23.7 15.8 38 15.8 14.4 0 27.9-5.6 38-15.8 15.4-15.4 19.5-37.9 12.3-57l-29.6 29.4z"/><path class="st0" d="M389.1 227c9.6 15.4 14.8 33.2 14.8 51.8 0 26.1-10.2 50.7-28.7 69.2s-43.1 28.7-69.2 28.7-50.7-10.2-69.2-28.7-28.7-43.1-28.7-69.2 10.2-50.7 28.7-69.2 43.1-28.7 69.2-28.7c18.6 0 36.4 5.2 51.8 14.8l29.2-29.2c-23.4-17-51.5-26.2-81-26.2-37 0-71.7 14.4-97.9 40.6-26.1 26.1-40.5 60.9-40.5 97.9 0 37 14.4 71.7 40.5 97.9 26.1 26.2 60.9 40.6 97.9 40.6s71.7-14.4 97.9-40.6c26.2-26.1 40.6-60.9 40.6-97.9 0-29.5-9.2-57.6-26.2-81L389.1 227z"/><path class="st0" d="M491 165.9h-41.5c25.3 32.1 39.1 71.4 39.1 112.9 0 48.8-19 94.6-53.5 129.1s-80.3 53.5-129.1 53.5-94.6-19-129.1-53.5-53.5-80.3-53.5-129.1 19-94.6 53.5-129.1S257.2 96.2 306 96.2c41.5 0 80.8 13.7 112.9 39.1V93.9c0-2.4.3-4.8.8-7.1-34.1-20.2-73-31-113.7-31-59.6 0-115.6 23.2-157.8 65.3-42.1 42.1-65.3 98.2-65.3 157.8s23.2 115.6 65.3 157.7C190.3 478.7 246.4 502 306 502s115.6-23.2 157.8-65.3c42.1-42.1 65.4-98.2 65.4-157.8 0-40.6-10.8-79.6-31-113.7-2.5.5-4.8.7-7.2.7z"/><path class="st0" d="M576.7 73.7c-.6-1.5-2.2-2.6-3.8-2.6h-59.2V11.9c0-1.7-1-3.2-2.6-3.8-1.5-.6-3.3-.3-4.5.9l-70.1 70.1c-3.9 3.9-6.1 9.2-6.1 14.8v44.9l-127 127c-4.3 4.3-4.3 11.3 0 15.6 2.2 2.2 5 3.2 7.8 3.2s5.7-1.1 7.8-3.2l127-127h45c5.6 0 10.8-2.2 14.8-6.1l70.1-70.1c1.1-1.2 1.5-3 .8-4.5z"/></svg>